<svg width="32" height="32" viewBox="0 0 32 32" fill="none" xmlns="http://www.w3.org/2000/svg">
<path d="M14.864 21.936C15.0162 22.0817 15.1956 22.1959 15.392 22.272C15.7815 22.432 16.2185 22.432 16.608 22.272C16.8044 22.1959 16.9838 22.0817 17.136 21.936L21.936 17.136C22.2373 16.8347 22.4065 16.4261 22.4065 16C22.4065 15.5739 22.2373 15.1653 21.936 14.864C21.6347 14.5627 21.2261 14.3935 20.8 14.3935C20.3739 14.3935 19.9653 14.5627 19.664 14.864L17.6 16.944L17.6 11.2C17.6 10.7757 17.4314 10.3687 17.1314 10.0686C16.8313 9.76858 16.4243 9.6 16 9.6C15.5756 9.6 15.1687 9.76857 14.8686 10.0686C14.5686 10.3687 14.4 10.7757 14.4 11.2L14.4 16.944L12.336 14.864C12.1873 14.714 12.0103 14.595 11.8153 14.5138C11.6203 14.4325 11.4112 14.3907 11.2 14.3907C10.9888 14.3907 10.7796 14.4325 10.5847 14.5138C10.3897 14.595 10.2127 14.714 10.064 14.864C9.91403 15.0127 9.795 15.1897 9.71377 15.3847C9.63254 15.5797 9.59072 15.7888 9.59072 16C9.59072 16.2112 9.63254 16.4204 9.71377 16.6153C9.795 16.8103 9.91403 16.9873 10.064 17.136L14.864 21.936ZM16 32C19.1645 32 22.2579 31.0616 24.8891 29.3035C27.5203 27.5454 29.5711 25.0466 30.7821 22.1229C31.9931 19.1993 32.3099 15.9823 31.6926 12.8786C31.0752 9.77486 29.5513 6.92394 27.3137 4.6863C25.0761 2.44866 22.2251 0.924806 19.1214 0.307442C16.0177 -0.309921 12.8007 0.00693178 9.87706 1.21793C6.95345 2.42894 4.45459 4.47969 2.69649 7.11088C0.938385 9.74207 -5.61058e-07 12.8355 -6.99382e-07 16C-8.8487e-07 20.2435 1.68571 24.3131 4.68629 27.3137C7.68687 30.3143 11.7565 32 16 32ZM16 3.20001C18.5316 3.20001 21.0063 3.95071 23.1113 5.35719C25.2162 6.76368 26.8568 8.76276 27.8257 11.1017C28.7945 13.4406 29.0479 16.0142 28.554 18.4972C28.0602 20.9801 26.8411 23.2609 25.051 25.051C23.2608 26.8411 20.9801 28.0602 18.4972 28.5541C16.0142 29.0479 13.4405 28.7945 11.1016 27.8257C8.76275 26.8569 6.76367 25.2162 5.35719 23.1113C3.95071 21.0064 3.2 18.5316 3.2 16C3.2 12.6052 4.54856 9.3495 6.94903 6.94904C9.34949 4.54857 12.6052 3.20001 16 3.20001Z" fill="#104065"/>
</svg>
