<svg width="83" height="63" viewBox="0 0 83 63" fill="none" xmlns="http://www.w3.org/2000/svg">
    <path
        d="M22.4294 50.2878C21.7587 50.2824 21.085 50.0463 20.5375 49.5724L1.69819 33.2679C1.04834 32.7048 0.678644 31.8872 0.685556 31.0267C0.692456 30.1679 1.07688 29.3563 1.73405 28.8037L20.8329 12.804C22.0731 11.7637 23.922 11.9274 24.9623 13.1676C26.0009 14.4094 25.8389 16.2584 24.597 17.297L8.13838 31.0866L24.3733 45.1388C25.5983 46.1989 25.7307 48.0502 24.6722 49.2736C24.086 49.951 23.2588 50.2945 22.4294 50.2878Z"
        fill="#104065" />
    <path
        d="M59.8762 50.5866C59.0468 50.58 58.2252 50.2233 57.6516 49.5365C56.6113 48.2963 56.775 46.4473 58.0152 45.407L74.4739 31.6175L58.2389 17.5653C57.0156 16.5068 56.8816 14.6555 57.9417 13.4305C59.0001 12.2072 60.8531 12.0732 62.0748 13.1333L80.9141 29.4378C81.5639 30.0009 81.9336 30.8186 81.9267 31.6774C81.9198 32.5378 81.537 33.3494 80.8782 33.902L61.7794 49.9017C61.2243 50.3668 60.5469 50.592 59.8762 50.5866Z"
        fill="#104065" />
    <path
        d="M34.3403 62.4983C34.1391 62.4967 33.9365 62.4738 33.7323 62.4296C32.1515 62.0832 31.1498 60.5194 31.4962 58.9386L43.7693 2.90346C44.1157 1.32266 45.6779 0.320937 47.2603 0.66738C48.8411 1.01381 49.8429 2.57599 49.4964 4.15843L37.2234 60.1935C36.9211 61.5718 35.6964 62.5092 34.3403 62.4983Z"
        fill="#104065" />
</svg>