<svg width="50" height="50" viewBox="0 0 50 50" fill="none" xmlns="http://www.w3.org/2000/svg">
<path fill-rule="evenodd" clip-rule="evenodd" d="M38.9205 0.770555C29.669 -0.259456 20.3319 -0.259456 11.0805 0.770555C8.47948 1.0572 6.05139 2.21336 4.18933 4.05183C2.32727 5.8903 1.14025 8.30345 0.820464 10.9006C-0.269582 20.269 -0.269582 29.7322 0.820464 39.1006C1.14025 41.6977 2.32727 44.1108 4.18933 45.9493C6.05139 47.7878 8.47948 48.9439 11.0805 49.2306C15.7757 49.7518 20.4964 50.0088 25.2205 50.0006V33.1706H19.5705V26.6506H25.2205V21.7606C25.1038 20.6119 25.2403 19.4517 25.6204 18.3615C26.0005 17.2713 26.6149 16.2777 27.4205 15.4506C28.2233 14.624 29.1964 13.9821 30.2722 13.5693C31.348 13.1566 32.5008 12.983 33.6505 13.0606C35.3443 13.0506 37.0373 13.1408 38.7205 13.3306V19.2006H35.2605C32.5205 19.2006 32.0005 20.5006 32.0005 22.3906V26.5906H38.5205L37.6705 33.1106H32.0005V49.8106C34.3205 49.6806 36.6305 49.4806 38.9205 49.2306C41.5214 48.9439 43.9495 47.7878 45.8116 45.9493C47.6736 44.1108 48.8607 41.6977 49.1805 39.1006C50.2705 29.7322 50.2705 20.269 49.1805 10.9006C48.8607 8.30345 47.6736 5.8903 45.8116 4.05183C43.9495 2.21336 41.5214 1.0572 38.9205 0.770555V0.770555Z" fill="white"/>
</svg>
