<svg width="75" height="92" viewBox="0 0 75 92" fill="none" xmlns="http://www.w3.org/2000/svg">
    <path
        d="M45.7617 0.0312747L74.1417 0L26.5278 47.5896L14.1188 59.9291L0 45.793L45.7617 0.0312747ZM45.4976 42.5231C45.866 42.0366 46.5436 42.2764 47.0579 42.2138L74.1174 42.2207L49.4556 66.8582L35.2639 52.7533L45.4976 42.5231Z"
        fill="#44D1FD" />
    <path d="M21.1172 66.8811L35.2637 52.752L49.4555 66.8568L49.5146 66.9194L35.2672 81.0346L21.1172 66.8811Z"
        fill="#1FBCFD" />
    <path
        d="M35.2671 81.0352L49.5144 66.9199L74.1276 91.5574C64.8564 91.5782 55.5886 91.5504 46.3209 91.5713C45.7927 91.6894 45.4661 91.2064 45.129 90.9076L35.2671 81.0352Z"
        fill="#08589C" />
</svg>