<svg width="120" height="83" viewBox="0 0 120 83" fill="none" xmlns="http://www.w3.org/2000/svg">
    <mask id="path-1-inside-1_2757_552" fill="white">
        <path
            d="M25.722 32.2161C18.6907 39.3115 18.7429 50.8053 25.8384 57.8366C32.9339 64.8679 44.4276 64.8157 51.4589 57.7202C58.4902 50.6247 58.438 39.131 51.3425 32.0997C44.247 25.0684 32.7533 25.1206 25.722 32.2161ZM48.2418 54.5322C42.9683 59.8538 34.348 59.8929 29.0264 54.6195C23.7048 49.346 23.6656 40.7257 28.9391 35.4041C34.2126 30.0825 42.8329 30.0433 48.1545 35.3168C53.4761 40.5903 53.5153 49.2106 48.2418 54.5322Z" />
        <path
            d="M57.878 13.2442L52.8785 16.4904C51.4204 15.7586 49.9044 15.1395 48.348 14.64L47.0549 8.81873C46.8237 7.77881 45.8988 7.04052 44.8341 7.04536L32.001 7.10366C30.9363 7.10849 30.0181 7.85516 29.7963 8.89713L28.5562 14.7299C27.0044 15.2435 25.4941 15.8764 24.0427 16.6214L19.0139 13.4207C18.1155 12.8487 16.9394 12.9808 16.1897 13.7373L7.15677 22.8527C6.40708 23.6092 6.28568 24.7865 6.86583 25.6797L10.112 30.6792C9.38024 32.1373 8.76115 33.6533 8.26164 35.2097L2.44039 36.5028C1.40047 36.734 0.66218 37.6589 0.667016 38.7236L0.725315 51.5567C0.730152 52.6214 1.47682 53.5396 2.51879 53.7614L8.35155 55.0015C8.86518 56.5533 9.49802 58.0636 10.243 59.515L7.04238 64.5438C6.47079 65.4426 6.60246 66.6183 7.359 67.368L16.4744 76.4009C17.2309 77.1506 18.4077 77.2716 19.3013 76.6919L24.3009 73.4457C25.7589 74.1775 27.275 74.7966 28.8313 75.2961L30.1244 81.1173C30.3557 82.1572 31.2806 82.8955 32.3453 82.8907L45.1784 82.8324C46.2431 82.8276 47.1612 82.0809 47.383 81.0389L48.6232 75.2062C50.1749 74.6925 51.6853 74.0597 53.1366 73.3147L58.1655 76.5153C59.0639 77.0873 60.24 76.9552 60.9897 76.1987L70.0226 67.0834C70.7723 66.3268 70.8937 65.1496 70.3135 64.2564L67.0674 59.2568C67.7991 57.7988 68.4182 56.2827 68.9177 54.7264L74.739 53.4333C75.7789 53.202 76.5176 52.2775 76.5124 51.2125L76.4541 38.3793C76.4492 37.3146 75.7026 36.3965 74.6606 36.1747L68.8278 34.9345C68.3142 33.3828 67.6814 31.8724 66.9364 30.4211L70.137 25.3922C70.7086 24.4934 70.5769 23.3177 69.8204 22.568L60.705 13.5351C59.9485 12.7854 58.7716 12.6644 57.878 13.2442ZM65.3357 24.5002L62.401 29.1112C61.9504 29.8198 61.9283 30.7194 62.3438 31.4486C63.4261 33.3473 64.278 35.38 64.8759 37.4899C65.1049 38.298 65.7618 38.9132 66.5836 39.0877L71.933 40.225L71.9752 49.4075L66.6359 50.5937C65.8157 50.7757 65.1644 51.3969 64.9432 52.2066C64.364 54.3223 63.5306 56.3626 62.4656 58.2711C62.0568 59.004 62.0871 59.9034 62.5441 60.6078L65.5206 65.192L59.0575 71.7141L54.4465 68.7794C53.7379 68.3287 52.8383 68.3067 52.1091 68.7221C50.2104 69.8044 48.1777 70.6563 46.0678 71.2542C45.2597 71.4832 44.6449 72.1406 44.47 72.962L43.3327 78.3114L34.1502 78.3527L32.964 73.0142C32.782 72.1941 32.1612 71.5423 31.3511 71.3207C29.2359 70.7419 27.1955 69.9085 25.2866 68.8439C24.5537 68.4351 23.6547 68.465 22.9503 68.922L18.3657 71.8989L11.8436 65.4358L14.7784 60.8248C15.229 60.1162 15.2511 59.2166 14.8356 58.4875C13.7533 56.5887 12.9014 54.556 12.3035 52.4462C12.0745 51.6381 11.4175 51.0229 10.5957 50.8483L5.24632 49.711L5.2042 40.5286L10.5435 39.3423C11.3636 39.1603 12.015 38.5392 12.2362 37.7294C12.8154 35.6138 13.6488 33.5735 14.7138 31.6649C15.1226 30.932 15.0923 30.0327 14.6353 29.3282L11.6588 24.7441L18.1219 18.222L22.7329 21.1567C23.4415 21.6073 24.3411 21.6294 25.0702 21.214C26.969 20.1317 29.0017 19.2798 31.1115 18.6818C31.9196 18.4529 32.5344 17.7955 32.7094 16.9741L33.8467 11.6247L43.0292 11.5834L44.2154 16.9218C44.3974 17.742 45.0181 18.3938 45.8283 18.6154C47.9439 19.1937 49.9838 20.0275 51.8928 21.0921C52.6257 21.5009 53.5246 21.4711 54.2291 21.014L58.8136 18.0371L65.3357 24.5002Z" />
        <path
            d="M86.5366 18.1856C83.8151 23.5587 85.9724 30.1445 91.3454 32.866C96.7184 35.5875 103.304 33.4301 106.026 28.0571C108.747 22.6841 106.59 16.0983 101.217 13.3768C95.8439 10.6553 89.2581 12.8126 86.5366 18.1856ZM103.59 26.8232C101.548 30.8529 96.6091 32.4709 92.5793 30.4298C88.5496 28.3887 86.9316 23.4493 88.9727 19.4196C91.0138 15.3898 95.9532 13.7718 99.983 15.8129C104.013 17.854 105.631 22.7934 103.59 26.8232Z" />
        <path
            d="M101.478 1.34746L99.2103 4.13559C98.2381 3.98554 97.2536 3.91089 96.2681 3.91232L94.4486 0.811232C94.1234 0.257289 93.456 0.00482674 92.846 0.204659L85.4927 2.61338C84.8826 2.81322 84.4939 3.41163 84.5595 4.05059L84.9275 7.62716C84.1321 8.20912 83.3825 8.8518 82.6876 9.54793L79.2095 8.64209C78.5881 8.48014 77.9376 8.77362 77.6474 9.3465L74.1512 16.2491C73.861 16.822 74.0093 17.52 74.5075 17.9251L77.2956 20.1932C77.1456 21.1654 77.0709 22.1499 77.0724 23.1354L73.9713 24.9549C73.4173 25.2801 73.1649 25.9475 73.3647 26.5575L75.7734 33.9108C75.9733 34.5209 76.5717 34.9095 77.2106 34.8439L80.7872 34.476C81.3692 35.2714 82.0119 36.0209 82.708 36.7159L81.8021 40.194C81.6405 40.8156 81.9337 41.4659 82.5066 41.756L89.4091 45.2523C89.982 45.5424 90.6797 45.394 91.0852 44.896L93.3533 42.1078C94.3254 42.2579 95.3099 42.3325 96.2955 42.3311L98.115 45.4322C98.4401 45.9861 99.1075 46.2386 99.7176 46.0388L107.071 43.63C107.681 43.4302 108.07 42.8318 108.004 42.1928L107.636 38.6163C108.431 38.0343 109.181 37.3916 109.876 36.6955L113.354 37.6013C113.975 37.7633 114.626 37.4698 114.916 36.8969L118.412 29.9943C118.702 29.4215 118.554 28.7234 118.056 28.3183L115.268 26.0502C115.418 25.0781 115.493 24.0935 115.491 23.108L118.592 21.2885C119.146 20.9634 119.399 20.2961 119.199 19.6859L116.79 12.3326C116.59 11.7226 115.992 11.3339 115.353 11.3995L111.776 11.7674C111.194 10.972 110.552 10.2225 109.856 9.52755L110.761 6.04943C110.923 5.42786 110.63 4.77757 110.057 4.4874L103.154 0.991168C102.582 0.700997 101.884 0.84939 101.478 1.34746ZM107.841 6.42623L107.011 9.61536C106.883 10.1054 107.037 10.6257 107.41 10.9672C108.383 11.8564 109.248 12.8652 109.982 13.9652C110.262 14.3866 110.753 14.618 111.257 14.566L114.537 14.2285L116.261 19.4899L113.417 21.1589C112.98 21.4151 112.721 21.8921 112.744 22.3977C112.803 23.7189 112.703 25.044 112.445 26.3363C112.346 26.8325 112.53 27.343 112.922 27.6627L115.479 29.7423L112.977 34.6811L109.788 33.8505C109.298 33.7231 108.778 33.8769 108.436 34.2503C107.547 35.2228 106.538 36.0879 105.438 36.8215C105.017 37.1024 104.786 37.5935 104.837 38.0972L105.175 41.3774L99.9134 43.1006L98.2446 40.2568C97.9883 39.8199 97.5115 39.5607 97.0056 39.5835C95.6847 39.6429 94.3596 39.5423 93.0672 39.2848C92.571 39.1858 92.0606 39.3693 91.741 39.762L89.6612 42.3188L84.7224 39.8172L85.5529 36.6281C85.6804 36.1381 85.5265 35.6178 85.1532 35.2762C84.1807 34.387 83.3156 33.3783 82.582 32.2782C82.301 31.8569 81.8102 31.6254 81.3063 31.6774L78.0261 32.0149L76.3024 26.7535L79.1467 25.0845C79.5836 24.8283 79.8424 24.3513 79.8195 23.8457C79.7602 22.5245 79.8608 21.1994 80.1187 19.9071C80.2176 19.4109 80.0338 18.9004 79.6412 18.5808L77.0847 16.5012L79.5863 11.5623L82.7754 12.3929C83.2654 12.5203 83.7857 12.3665 84.1272 11.9931C85.0165 11.0206 86.0252 10.1556 87.1253 9.42194C87.5466 9.14098 87.7777 8.64996 87.7261 8.14624L87.3886 4.86607L92.6501 3.14279L94.3189 5.98662C94.5752 6.42357 95.052 6.68269 95.5579 6.6599C96.879 6.60019 98.2039 6.70109 99.4963 6.95867C99.9926 7.0576 100.503 6.87409 100.823 6.48144L102.902 3.92464L107.841 6.42623Z" />
    </mask>
    <path
        d="M25.722 32.2161C18.6907 39.3115 18.7429 50.8053 25.8384 57.8366C32.9339 64.8679 44.4276 64.8157 51.4589 57.7202C58.4902 50.6247 58.438 39.131 51.3425 32.0997C44.247 25.0684 32.7533 25.1206 25.722 32.2161ZM48.2418 54.5322C42.9683 59.8538 34.348 59.8929 29.0264 54.6195C23.7048 49.346 23.6656 40.7257 28.9391 35.4041C34.2126 30.0825 42.8329 30.0433 48.1545 35.3168C53.4761 40.5903 53.5153 49.2106 48.2418 54.5322Z"
        fill="#104065" />
    <path
        d="M57.878 13.2442L52.8785 16.4904C51.4204 15.7586 49.9044 15.1395 48.348 14.64L47.0549 8.81873C46.8237 7.77881 45.8988 7.04052 44.8341 7.04536L32.001 7.10366C30.9363 7.10849 30.0181 7.85516 29.7963 8.89713L28.5562 14.7299C27.0044 15.2435 25.4941 15.8764 24.0427 16.6214L19.0139 13.4207C18.1155 12.8487 16.9394 12.9808 16.1897 13.7373L7.15677 22.8527C6.40708 23.6092 6.28568 24.7865 6.86583 25.6797L10.112 30.6792C9.38024 32.1373 8.76115 33.6533 8.26164 35.2097L2.44039 36.5028C1.40047 36.734 0.66218 37.6589 0.667016 38.7236L0.725315 51.5567C0.730152 52.6214 1.47682 53.5396 2.51879 53.7614L8.35155 55.0015C8.86518 56.5533 9.49802 58.0636 10.243 59.515L7.04238 64.5438C6.47079 65.4426 6.60246 66.6183 7.359 67.368L16.4744 76.4009C17.2309 77.1506 18.4077 77.2716 19.3013 76.6919L24.3009 73.4457C25.7589 74.1775 27.275 74.7966 28.8313 75.2961L30.1244 81.1173C30.3557 82.1572 31.2806 82.8955 32.3453 82.8907L45.1784 82.8324C46.2431 82.8276 47.1612 82.0809 47.383 81.0389L48.6232 75.2062C50.1749 74.6925 51.6853 74.0597 53.1366 73.3147L58.1655 76.5153C59.0639 77.0873 60.24 76.9552 60.9897 76.1987L70.0226 67.0834C70.7723 66.3268 70.8937 65.1496 70.3135 64.2564L67.0674 59.2568C67.7991 57.7988 68.4182 56.2827 68.9177 54.7264L74.739 53.4333C75.7789 53.202 76.5176 52.2775 76.5124 51.2125L76.4541 38.3793C76.4492 37.3146 75.7026 36.3965 74.6606 36.1747L68.8278 34.9345C68.3142 33.3828 67.6814 31.8724 66.9364 30.4211L70.137 25.3922C70.7086 24.4934 70.5769 23.3177 69.8204 22.568L60.705 13.5351C59.9485 12.7854 58.7716 12.6644 57.878 13.2442ZM65.3357 24.5002L62.401 29.1112C61.9504 29.8198 61.9283 30.7194 62.3438 31.4486C63.4261 33.3473 64.278 35.38 64.8759 37.4899C65.1049 38.298 65.7618 38.9132 66.5836 39.0877L71.933 40.225L71.9752 49.4075L66.6359 50.5937C65.8157 50.7757 65.1644 51.3969 64.9432 52.2066C64.364 54.3223 63.5306 56.3626 62.4656 58.2711C62.0568 59.004 62.0871 59.9034 62.5441 60.6078L65.5206 65.192L59.0575 71.7141L54.4465 68.7794C53.7379 68.3287 52.8383 68.3067 52.1091 68.7221C50.2104 69.8044 48.1777 70.6563 46.0678 71.2542C45.2597 71.4832 44.6449 72.1406 44.47 72.962L43.3327 78.3114L34.1502 78.3527L32.964 73.0142C32.782 72.1941 32.1612 71.5423 31.3511 71.3207C29.2359 70.7419 27.1955 69.9085 25.2866 68.8439C24.5537 68.4351 23.6547 68.465 22.9503 68.922L18.3657 71.8989L11.8436 65.4358L14.7784 60.8248C15.229 60.1162 15.2511 59.2166 14.8356 58.4875C13.7533 56.5887 12.9014 54.556 12.3035 52.4462C12.0745 51.6381 11.4175 51.0229 10.5957 50.8483L5.24632 49.711L5.2042 40.5286L10.5435 39.3423C11.3636 39.1603 12.015 38.5392 12.2362 37.7294C12.8154 35.6138 13.6488 33.5735 14.7138 31.6649C15.1226 30.932 15.0923 30.0327 14.6353 29.3282L11.6588 24.7441L18.1219 18.222L22.7329 21.1567C23.4415 21.6073 24.3411 21.6294 25.0702 21.214C26.969 20.1317 29.0017 19.2798 31.1115 18.6818C31.9196 18.4529 32.5344 17.7955 32.7094 16.9741L33.8467 11.6247L43.0292 11.5834L44.2154 16.9218C44.3974 17.742 45.0181 18.3938 45.8283 18.6154C47.9439 19.1937 49.9838 20.0275 51.8928 21.0921C52.6257 21.5009 53.5246 21.4711 54.2291 21.014L58.8136 18.0371L65.3357 24.5002Z"
        fill="#104065" />
    <path
        d="M86.5366 18.1856C83.8151 23.5587 85.9724 30.1445 91.3454 32.866C96.7184 35.5875 103.304 33.4301 106.026 28.0571C108.747 22.6841 106.59 16.0983 101.217 13.3768C95.8439 10.6553 89.2581 12.8126 86.5366 18.1856ZM103.59 26.8232C101.548 30.8529 96.6091 32.4709 92.5793 30.4298C88.5496 28.3887 86.9316 23.4493 88.9727 19.4196C91.0138 15.3898 95.9532 13.7718 99.983 15.8129C104.013 17.854 105.631 22.7934 103.59 26.8232Z"
        fill="#104065" />
    <path
        d="M101.478 1.34746L99.2103 4.13559C98.2381 3.98554 97.2536 3.91089 96.2681 3.91232L94.4486 0.811232C94.1234 0.257289 93.456 0.00482674 92.846 0.204659L85.4927 2.61338C84.8826 2.81322 84.4939 3.41163 84.5595 4.05059L84.9275 7.62716C84.1321 8.20912 83.3825 8.8518 82.6876 9.54793L79.2095 8.64209C78.5881 8.48014 77.9376 8.77362 77.6474 9.3465L74.1512 16.2491C73.861 16.822 74.0093 17.52 74.5075 17.9251L77.2956 20.1932C77.1456 21.1654 77.0709 22.1499 77.0724 23.1354L73.9713 24.9549C73.4173 25.2801 73.1649 25.9475 73.3647 26.5575L75.7734 33.9108C75.9733 34.5209 76.5717 34.9095 77.2106 34.8439L80.7872 34.476C81.3692 35.2714 82.0119 36.0209 82.708 36.7159L81.8021 40.194C81.6405 40.8156 81.9337 41.4659 82.5066 41.756L89.4091 45.2523C89.982 45.5424 90.6797 45.394 91.0852 44.896L93.3533 42.1078C94.3254 42.2579 95.3099 42.3325 96.2955 42.3311L98.115 45.4322C98.4401 45.9861 99.1075 46.2386 99.7176 46.0388L107.071 43.63C107.681 43.4302 108.07 42.8318 108.004 42.1928L107.636 38.6163C108.431 38.0343 109.181 37.3916 109.876 36.6955L113.354 37.6013C113.975 37.7633 114.626 37.4698 114.916 36.8969L118.412 29.9943C118.702 29.4215 118.554 28.7234 118.056 28.3183L115.268 26.0502C115.418 25.0781 115.493 24.0935 115.491 23.108L118.592 21.2885C119.146 20.9634 119.399 20.2961 119.199 19.6859L116.79 12.3326C116.59 11.7226 115.992 11.3339 115.353 11.3995L111.776 11.7674C111.194 10.972 110.552 10.2225 109.856 9.52755L110.761 6.04943C110.923 5.42786 110.63 4.77757 110.057 4.4874L103.154 0.991168C102.582 0.700997 101.884 0.84939 101.478 1.34746ZM107.841 6.42623L107.011 9.61536C106.883 10.1054 107.037 10.6257 107.41 10.9672C108.383 11.8564 109.248 12.8652 109.982 13.9652C110.262 14.3866 110.753 14.618 111.257 14.566L114.537 14.2285L116.261 19.4899L113.417 21.1589C112.98 21.4151 112.721 21.8921 112.744 22.3977C112.803 23.7189 112.703 25.044 112.445 26.3363C112.346 26.8325 112.53 27.343 112.922 27.6627L115.479 29.7423L112.977 34.6811L109.788 33.8505C109.298 33.7231 108.778 33.8769 108.436 34.2503C107.547 35.2228 106.538 36.0879 105.438 36.8215C105.017 37.1024 104.786 37.5935 104.837 38.0972L105.175 41.3774L99.9134 43.1006L98.2446 40.2568C97.9883 39.8199 97.5115 39.5607 97.0056 39.5835C95.6847 39.6429 94.3596 39.5423 93.0672 39.2848C92.571 39.1858 92.0606 39.3693 91.741 39.762L89.6612 42.3188L84.7224 39.8172L85.5529 36.6281C85.6804 36.1381 85.5265 35.6178 85.1532 35.2762C84.1807 34.387 83.3156 33.3783 82.582 32.2782C82.301 31.8569 81.8102 31.6254 81.3063 31.6774L78.0261 32.0149L76.3024 26.7535L79.1467 25.0845C79.5836 24.8283 79.8424 24.3513 79.8195 23.8457C79.7602 22.5245 79.8608 21.1994 80.1187 19.9071C80.2176 19.4109 80.0338 18.9004 79.6412 18.5808L77.0847 16.5012L79.5863 11.5623L82.7754 12.3929C83.2654 12.5203 83.7857 12.3665 84.1272 11.9931C85.0165 11.0206 86.0252 10.1556 87.1253 9.42194C87.5466 9.14098 87.7777 8.64996 87.7261 8.14624L87.3886 4.86607L92.6501 3.14279L94.3189 5.98662C94.5752 6.42357 95.052 6.68269 95.5579 6.6599C96.879 6.60019 98.2039 6.70109 99.4963 6.95867C99.9926 7.0576 100.503 6.87409 100.823 6.48144L102.902 3.92464L107.841 6.42623Z"
        fill="#104065" />
    <path
        d="M25.722 32.2161C18.6907 39.3115 18.7429 50.8053 25.8384 57.8366C32.9339 64.8679 44.4276 64.8157 51.4589 57.7202C58.4902 50.6247 58.438 39.131 51.3425 32.0997C44.247 25.0684 32.7533 25.1206 25.722 32.2161ZM48.2418 54.5322C42.9683 59.8538 34.348 59.8929 29.0264 54.6195C23.7048 49.346 23.6656 40.7257 28.9391 35.4041C34.2126 30.0825 42.8329 30.0433 48.1545 35.3168C53.4761 40.5903 53.5153 49.2106 48.2418 54.5322Z"
        stroke="#104065" stroke-width="20" mask="url(#path-1-inside-1_2757_552)" />
    <path
        d="M57.878 13.2442L52.8785 16.4904C51.4204 15.7586 49.9044 15.1395 48.348 14.64L47.0549 8.81873C46.8237 7.77881 45.8988 7.04052 44.8341 7.04536L32.001 7.10366C30.9363 7.10849 30.0181 7.85516 29.7963 8.89713L28.5562 14.7299C27.0044 15.2435 25.4941 15.8764 24.0427 16.6214L19.0139 13.4207C18.1155 12.8487 16.9394 12.9808 16.1897 13.7373L7.15677 22.8527C6.40708 23.6092 6.28568 24.7865 6.86583 25.6797L10.112 30.6792C9.38024 32.1373 8.76115 33.6533 8.26164 35.2097L2.44039 36.5028C1.40047 36.734 0.66218 37.6589 0.667016 38.7236L0.725315 51.5567C0.730152 52.6214 1.47682 53.5396 2.51879 53.7614L8.35155 55.0015C8.86518 56.5533 9.49802 58.0636 10.243 59.515L7.04238 64.5438C6.47079 65.4426 6.60246 66.6183 7.359 67.368L16.4744 76.4009C17.2309 77.1506 18.4077 77.2716 19.3013 76.6919L24.3009 73.4457C25.7589 74.1775 27.275 74.7966 28.8313 75.2961L30.1244 81.1173C30.3557 82.1572 31.2806 82.8955 32.3453 82.8907L45.1784 82.8324C46.2431 82.8276 47.1612 82.0809 47.383 81.0389L48.6232 75.2062C50.1749 74.6925 51.6853 74.0597 53.1366 73.3147L58.1655 76.5153C59.0639 77.0873 60.24 76.9552 60.9897 76.1987L70.0226 67.0834C70.7723 66.3268 70.8937 65.1496 70.3135 64.2564L67.0674 59.2568C67.7991 57.7988 68.4182 56.2827 68.9177 54.7264L74.739 53.4333C75.7789 53.202 76.5176 52.2775 76.5124 51.2125L76.4541 38.3793C76.4492 37.3146 75.7026 36.3965 74.6606 36.1747L68.8278 34.9345C68.3142 33.3828 67.6814 31.8724 66.9364 30.4211L70.137 25.3922C70.7086 24.4934 70.5769 23.3177 69.8204 22.568L60.705 13.5351C59.9485 12.7854 58.7716 12.6644 57.878 13.2442ZM65.3357 24.5002L62.401 29.1112C61.9504 29.8198 61.9283 30.7194 62.3438 31.4486C63.4261 33.3473 64.278 35.38 64.8759 37.4899C65.1049 38.298 65.7618 38.9132 66.5836 39.0877L71.933 40.225L71.9752 49.4075L66.6359 50.5937C65.8157 50.7757 65.1644 51.3969 64.9432 52.2066C64.364 54.3223 63.5306 56.3626 62.4656 58.2711C62.0568 59.004 62.0871 59.9034 62.5441 60.6078L65.5206 65.192L59.0575 71.7141L54.4465 68.7794C53.7379 68.3287 52.8383 68.3067 52.1091 68.7221C50.2104 69.8044 48.1777 70.6563 46.0678 71.2542C45.2597 71.4832 44.6449 72.1406 44.47 72.962L43.3327 78.3114L34.1502 78.3527L32.964 73.0142C32.782 72.1941 32.1612 71.5423 31.3511 71.3207C29.2359 70.7419 27.1955 69.9085 25.2866 68.8439C24.5537 68.4351 23.6547 68.465 22.9503 68.922L18.3657 71.8989L11.8436 65.4358L14.7784 60.8248C15.229 60.1162 15.2511 59.2166 14.8356 58.4875C13.7533 56.5887 12.9014 54.556 12.3035 52.4462C12.0745 51.6381 11.4175 51.0229 10.5957 50.8483L5.24632 49.711L5.2042 40.5286L10.5435 39.3423C11.3636 39.1603 12.015 38.5392 12.2362 37.7294C12.8154 35.6138 13.6488 33.5735 14.7138 31.6649C15.1226 30.932 15.0923 30.0327 14.6353 29.3282L11.6588 24.7441L18.1219 18.222L22.7329 21.1567C23.4415 21.6073 24.3411 21.6294 25.0702 21.214C26.969 20.1317 29.0017 19.2798 31.1115 18.6818C31.9196 18.4529 32.5344 17.7955 32.7094 16.9741L33.8467 11.6247L43.0292 11.5834L44.2154 16.9218C44.3974 17.742 45.0181 18.3938 45.8283 18.6154C47.9439 19.1937 49.9838 20.0275 51.8928 21.0921C52.6257 21.5009 53.5246 21.4711 54.2291 21.014L58.8136 18.0371L65.3357 24.5002Z"
        stroke="#104065" stroke-width="20" mask="url(#path-1-inside-1_2757_552)" />
    <path
        d="M86.5366 18.1856C83.8151 23.5587 85.9724 30.1445 91.3454 32.866C96.7184 35.5875 103.304 33.4301 106.026 28.0571C108.747 22.6841 106.59 16.0983 101.217 13.3768C95.8439 10.6553 89.2581 12.8126 86.5366 18.1856ZM103.59 26.8232C101.548 30.8529 96.6091 32.4709 92.5793 30.4298C88.5496 28.3887 86.9316 23.4493 88.9727 19.4196C91.0138 15.3898 95.9532 13.7718 99.983 15.8129C104.013 17.854 105.631 22.7934 103.59 26.8232Z"
        stroke="#104065" stroke-width="20" mask="url(#path-1-inside-1_2757_552)" />
    <path
        d="M101.478 1.34746L99.2103 4.13559C98.2381 3.98554 97.2536 3.91089 96.2681 3.91232L94.4486 0.811232C94.1234 0.257289 93.456 0.00482674 92.846 0.204659L85.4927 2.61338C84.8826 2.81322 84.4939 3.41163 84.5595 4.05059L84.9275 7.62716C84.1321 8.20912 83.3825 8.8518 82.6876 9.54793L79.2095 8.64209C78.5881 8.48014 77.9376 8.77362 77.6474 9.3465L74.1512 16.2491C73.861 16.822 74.0093 17.52 74.5075 17.9251L77.2956 20.1932C77.1456 21.1654 77.0709 22.1499 77.0724 23.1354L73.9713 24.9549C73.4173 25.2801 73.1649 25.9475 73.3647 26.5575L75.7734 33.9108C75.9733 34.5209 76.5717 34.9095 77.2106 34.8439L80.7872 34.476C81.3692 35.2714 82.0119 36.0209 82.708 36.7159L81.8021 40.194C81.6405 40.8156 81.9337 41.4659 82.5066 41.756L89.4091 45.2523C89.982 45.5424 90.6797 45.394 91.0852 44.896L93.3533 42.1078C94.3254 42.2579 95.3099 42.3325 96.2955 42.3311L98.115 45.4322C98.4401 45.9861 99.1075 46.2386 99.7176 46.0388L107.071 43.63C107.681 43.4302 108.07 42.8318 108.004 42.1928L107.636 38.6163C108.431 38.0343 109.181 37.3916 109.876 36.6955L113.354 37.6013C113.975 37.7633 114.626 37.4698 114.916 36.8969L118.412 29.9943C118.702 29.4215 118.554 28.7234 118.056 28.3183L115.268 26.0502C115.418 25.0781 115.493 24.0935 115.491 23.108L118.592 21.2885C119.146 20.9634 119.399 20.2961 119.199 19.6859L116.79 12.3326C116.59 11.7226 115.992 11.3339 115.353 11.3995L111.776 11.7674C111.194 10.972 110.552 10.2225 109.856 9.52755L110.761 6.04943C110.923 5.42786 110.63 4.77757 110.057 4.4874L103.154 0.991168C102.582 0.700997 101.884 0.84939 101.478 1.34746ZM107.841 6.42623L107.011 9.61536C106.883 10.1054 107.037 10.6257 107.41 10.9672C108.383 11.8564 109.248 12.8652 109.982 13.9652C110.262 14.3866 110.753 14.618 111.257 14.566L114.537 14.2285L116.261 19.4899L113.417 21.1589C112.98 21.4151 112.721 21.8921 112.744 22.3977C112.803 23.7189 112.703 25.044 112.445 26.3363C112.346 26.8325 112.53 27.343 112.922 27.6627L115.479 29.7423L112.977 34.6811L109.788 33.8505C109.298 33.7231 108.778 33.8769 108.436 34.2503C107.547 35.2228 106.538 36.0879 105.438 36.8215C105.017 37.1024 104.786 37.5935 104.837 38.0972L105.175 41.3774L99.9134 43.1006L98.2446 40.2568C97.9883 39.8199 97.5115 39.5607 97.0056 39.5835C95.6847 39.6429 94.3596 39.5423 93.0672 39.2848C92.571 39.1858 92.0606 39.3693 91.741 39.762L89.6612 42.3188L84.7224 39.8172L85.5529 36.6281C85.6804 36.1381 85.5265 35.6178 85.1532 35.2762C84.1807 34.387 83.3156 33.3783 82.582 32.2782C82.301 31.8569 81.8102 31.6254 81.3063 31.6774L78.0261 32.0149L76.3024 26.7535L79.1467 25.0845C79.5836 24.8283 79.8424 24.3513 79.8195 23.8457C79.7602 22.5245 79.8608 21.1994 80.1187 19.9071C80.2176 19.4109 80.0338 18.9004 79.6412 18.5808L77.0847 16.5012L79.5863 11.5623L82.7754 12.3929C83.2654 12.5203 83.7857 12.3665 84.1272 11.9931C85.0165 11.0206 86.0252 10.1556 87.1253 9.42194C87.5466 9.14098 87.7777 8.64996 87.7261 8.14624L87.3886 4.86607L92.6501 3.14279L94.3189 5.98662C94.5752 6.42357 95.052 6.68269 95.5579 6.6599C96.879 6.60019 98.2039 6.70109 99.4963 6.95867C99.9926 7.0576 100.503 6.87409 100.823 6.48144L102.902 3.92464L107.841 6.42623Z"
        stroke="#104065" stroke-width="20" mask="url(#path-1-inside-1_2757_552)" />
</svg>