<svg width="700" height="450" viewBox="0 0 700 450" fill="none" xmlns="http://www.w3.org/2000/svg">
<path d="M605.952 115.258H125.061V423.242H605.952V115.258Z" fill="#E6E6E6"/>
<path d="M341.193 156.617H167.585V335.009H341.193V156.617ZM579.733 160.077H406.126V376.745H579.733V160.077Z" fill="white"/>
<path d="M577.419 445.635C594.595 445.635 608.518 443.646 608.518 441.192C608.518 438.739 594.595 436.75 577.419 436.75C560.244 436.75 546.32 438.739 546.32 441.192C546.32 443.646 560.244 445.635 577.419 445.635ZM266.495 445.735C283.671 445.735 297.594 443.746 297.594 441.292C297.594 438.838 283.671 436.849 266.495 436.849C249.319 436.849 235.396 438.838 235.396 441.292C235.396 443.746 249.319 445.735 266.495 445.735ZM71.3739 440.267C110.793 440.267 142.749 438.737 142.749 436.849C142.749 434.962 110.793 433.432 71.3739 433.432C31.9559 433.432 0 434.962 0 436.849C0 438.737 31.9549 440.267 71.3739 440.267Z" fill="#E6E6E6"/>
<path d="M605.747 114.986H124.855V135.416H605.747V114.986Z" fill="#44C4EB"/>
<path d="M140.038 129.217C140.541 129.225 141.039 129.133 141.506 128.947C141.973 128.76 142.397 128.483 142.755 128.13C143.114 127.778 143.398 127.358 143.592 126.894C143.786 126.431 143.886 125.933 143.886 125.431C143.886 124.929 143.786 124.431 143.592 123.968C143.398 123.504 143.114 123.084 142.755 122.732C142.397 122.379 141.973 122.102 141.506 121.915C141.039 121.729 140.541 121.637 140.038 121.645C139.045 121.661 138.098 122.067 137.401 122.775C136.704 123.484 136.313 124.437 136.313 125.431C136.313 126.425 136.704 127.378 137.401 128.086C138.098 128.795 139.045 129.201 140.038 129.217ZM154.411 129.217C154.914 129.225 155.413 129.133 155.879 128.947C156.346 128.76 156.77 128.483 157.129 128.13C157.487 127.778 157.771 127.358 157.965 126.894C158.16 126.431 158.26 125.933 158.26 125.431C158.26 124.929 158.16 124.431 157.965 123.968C157.771 123.504 157.487 123.084 157.129 122.732C156.77 122.379 156.346 122.102 155.879 121.915C155.413 121.729 154.914 121.637 154.411 121.645C153.418 121.661 152.471 122.067 151.774 122.775C151.077 123.484 150.687 124.437 150.687 125.431C150.687 126.425 151.077 127.378 151.774 128.086C152.471 128.795 153.418 129.201 154.411 129.217ZM168.784 129.217C169.286 129.225 169.785 129.133 170.251 128.947C170.718 128.76 171.143 128.483 171.501 128.13C171.859 127.778 172.143 127.358 172.338 126.894C172.532 126.431 172.632 125.933 172.632 125.431C172.632 124.929 172.532 124.431 172.338 123.968C172.143 123.504 171.859 123.084 171.501 122.732C171.143 122.379 170.718 122.102 170.251 121.915C169.785 121.729 169.286 121.637 168.784 121.645C167.79 121.661 166.843 122.067 166.146 122.775C165.449 123.484 165.059 124.437 165.059 125.431C165.059 126.425 165.449 127.378 166.146 128.086C166.843 128.795 167.79 129.201 168.784 129.217Z" fill="#E6E6E6"/>
<path d="M541.458 218.191H540.406V189.382C540.406 187.192 539.975 185.024 539.137 183.001C538.299 180.978 537.071 179.14 535.522 177.591C533.974 176.043 532.136 174.814 530.113 173.976C528.09 173.138 525.921 172.707 523.732 172.707H462.694C458.272 172.707 454.031 174.464 450.904 177.591C447.776 180.718 446.02 184.96 446.02 189.382V347.434C446.02 351.856 447.776 356.098 450.904 359.225C454.031 362.352 458.272 364.109 462.694 364.109H523.732C525.921 364.109 528.09 363.678 530.113 362.84C532.136 362.002 533.974 360.773 535.522 359.225C537.07 357.677 538.298 355.838 539.136 353.815C539.974 351.792 540.406 349.624 540.406 347.434V238.699H541.458V218.191Z" fill="#3F3D56"/>
<path d="M523.721 177.047H515.754C516.12 177.945 516.259 178.92 516.16 179.885C516.061 180.85 515.727 181.776 515.186 182.581C514.645 183.386 513.914 184.046 513.058 184.502C512.202 184.958 511.247 185.197 510.277 185.198H475.309C474.339 185.197 473.384 184.958 472.527 184.503C471.235 183.814 470.244 182.67 469.746 181.293C469.248 179.916 469.278 178.403 469.831 177.047H462.39C460.755 177.046 459.135 177.368 457.624 177.994C456.114 178.62 454.741 179.537 453.585 180.694C452.428 181.85 451.511 183.223 450.885 184.734C450.259 186.245 449.937 187.864 449.938 189.5V347.32C449.937 348.955 450.259 350.574 450.885 352.085C451.51 353.596 452.428 354.969 453.585 356.125C454.741 357.282 456.114 358.199 457.625 358.825C459.135 359.451 460.755 359.773 462.39 359.772H523.721C527.023 359.771 530.19 358.459 532.527 356.125C534.861 353.789 536.173 350.622 536.174 347.32V189.5C536.174 187.864 535.852 186.245 535.226 184.734C534.6 183.223 533.683 181.851 532.526 180.694C531.37 179.538 529.997 178.621 528.487 177.995C526.976 177.369 525.356 177.047 523.721 177.047Z" fill="white"/>
<path d="M314.841 269.303H194.174V274.807H314.841V269.303Z" fill="#E6E6E6"/>
<path d="M314.841 287.074H194.174V292.577H314.841V287.074Z" fill="#4CA0F5"/>
<path d="M314.841 304.845H194.174V310.349H314.841V304.845ZM528.96 281.312H458.516V286.817H528.96V281.312ZM528.96 298.4H458.516V303.904H528.96V298.4ZM528.96 315.487H458.516V320.992H528.96V315.487Z" fill="#E6E6E6"/>
<path d="M536.326 400.954V389.213H524.585V400.954H536.326Z" fill="#3F3D56"/>
<path d="M517.411 400.954V389.213H505.67V400.954H517.411Z" fill="#4CA0F5"/>
<path d="M498.495 400.954V389.213H486.754V400.954H498.495ZM479.58 400.954V389.213H467.839V400.954H479.58ZM460.664 400.954V389.213H448.924V400.954H460.664Z" fill="#3F3D56"/>
<path d="M512.622 209.984H473.486V249.12H512.622V209.984Z" fill="#4CA0F5"/>
<path d="M238.954 303.353L238.447 304.366L236.927 296.767C236.927 296.767 234.901 288.663 238.954 288.663C243.006 288.663 241.993 296.767 241.993 296.767V302.34L238.954 303.353ZM305.418 302.316L305.924 303.329L307.444 295.73C307.444 295.73 309.47 287.625 305.418 287.625C301.365 287.625 302.378 295.73 302.378 295.73V301.302L305.418 302.316Z" fill="#EEA886"/>
<path d="M261.242 360.32L255.164 397.806L258.202 434.278L265.295 431.239L264.281 403.885L271.373 382.102L272.893 407.937L269.854 434.785L278.972 435.798L285.558 380.583L285.051 361.84L261.242 360.32Z" fill="#2F2E41"/>
<path d="M261.243 429.719L257.697 435.292V447.743C257.697 448.101 257.825 448.448 258.057 448.721C258.29 448.994 258.612 449.176 258.966 449.233C260.704 449.518 263.73 449.721 264.789 447.956C266.309 445.423 265.295 439.851 265.295 439.851C265.295 439.851 267.322 435.798 266.309 432.759C265.295 429.719 264.283 429.213 264.283 429.213L261.243 429.719ZM276.44 434.785L277.454 436.305C277.454 436.305 278.973 437.825 277.96 438.837C277.217 439.625 276.539 440.472 275.934 441.37C275.934 441.37 270.361 442.89 270.361 440.864V434.278L276.44 434.785Z" fill="#2F2E41"/>
<path d="M274.614 319.09C276.394 319.09 278.102 318.383 279.362 317.124C280.621 315.864 281.329 314.156 281.329 312.375C281.329 310.594 280.621 308.886 279.362 307.627C278.102 306.368 276.394 305.66 274.614 305.66C272.833 305.66 271.125 306.368 269.865 307.627C268.606 308.886 267.898 310.594 267.898 312.375C267.898 314.156 268.606 315.864 269.865 317.124C271.125 318.383 272.833 319.09 274.614 319.09Z" fill="#EEA886"/>
<path d="M270.107 314.477L269.601 324.101L278.719 324.608L278.212 314.983L270.107 314.477Z" fill="#EEA886"/>
<path d="M279.985 324.861L278.548 321.348C278.548 321.348 271.88 318.782 269.854 321.314L268.84 324.353L260.736 322.327L256.177 332.459L260.229 361.332C260.229 361.332 270.867 375.01 285.051 361.84L289.103 334.485L286.064 323.847L279.985 324.861Z" fill="#FFC655"/>
<path d="M285.051 325.874L286.063 323.848L296.195 317.769L302.378 299.467L307.162 301.517L301.767 323.341L287.076 337.018L285.051 325.874ZM261.748 323.341L260.735 322.329L250.097 315.743L242.499 300.546L236.421 302.572L243.005 321.315L259.215 334.486L261.748 323.341Z" fill="#FFC655"/>
<path d="M279.598 302.094L280.696 301.544L279.05 300.996V300.447C279.05 300.447 270.815 297.153 269.718 302.643C268.301 304.547 267.535 306.856 267.535 309.23C267.535 311.603 268.301 313.913 269.718 315.817V317.464L278.5 318.562L279.598 315.268C279.598 315.268 285.087 305.387 279.598 302.094Z" fill="#2F2E41"/>
<path d="M78.6642 360.914L76.7115 361.89C76.7115 361.89 68.9045 365.468 71.1821 367.42C73.4586 369.372 79.6396 365.468 79.6396 365.468L80.9407 363.842L78.6632 360.914H78.6642Z" fill="#EEA886"/>
<path d="M135.764 360.428L129.732 400.923L120.623 429.221L115.745 426.945L120.298 388.237L107.287 377.177L108.262 360.914L135.764 360.428Z" fill="#2F2E41"/>
<path d="M115.094 427.922C115.094 427.922 120.623 424.995 120.949 429.223L120.299 433.453C120.299 433.453 122.25 440.934 115.745 439.307C109.239 437.681 113.793 432.802 113.793 432.802L115.094 427.922ZM111.516 373.602L107.287 377.179C107.287 377.179 107.287 399.298 110.215 402.551C113.142 405.804 131.683 422.393 132.334 423.043C132.984 423.694 135.911 416.538 135.911 416.538L118.347 396.045L119.648 383.359L111.516 373.602Z" fill="#2F2E41"/>
<path d="M133.961 415.561C133.961 415.561 139.166 414.585 139.166 418.163C139.23 420.992 139.447 423.815 139.816 426.62C139.816 426.62 141.118 438.006 136.888 436.379C132.66 434.753 131.034 423.367 131.034 423.367C131.428 422.421 132.111 421.624 132.986 421.091C134.287 420.44 133.961 415.561 133.961 415.561Z" fill="#2F2E41"/>
<path d="M117.697 312.123L118.673 324.158L116.071 328.712L108.914 321.882L108.264 312.774L117.697 312.123Z" fill="#EEA886"/>
<path d="M111.842 316.026C113.913 316.026 115.898 315.203 117.362 313.739C118.826 312.275 119.649 310.29 119.649 308.219C119.649 306.148 118.826 304.163 117.362 302.699C115.898 301.235 113.913 300.412 111.842 300.412C109.772 300.412 107.786 301.235 106.322 302.699C104.858 304.163 104.035 306.148 104.035 308.219C104.035 310.29 104.858 312.275 106.322 313.739C107.786 315.203 109.772 316.026 111.842 316.026Z" fill="#EEA886"/>
<path d="M115.096 323.833L118.348 314.4L124.203 320.905L134.938 362.215L126.805 367.095L123.227 361.891L122.577 368.721L106.638 365.468L105.337 321.881L108.588 317.302L115.096 323.833Z" fill="#D0CDE1"/>
<path d="M110.541 370.023L108.59 317.328L104.361 320.581L96.5537 325.786L101.758 344.327L103.384 363.843L110.541 370.023Z" fill="#FF7E55"/>
<path d="M98.8319 326.109L96.5544 325.783L90.0487 344.975L77.0371 361.239L81.9169 366.444L96.8792 351.806L102.41 339.771L98.8319 326.109Z" fill="#FF7E55"/>
<path d="M134.353 361.213L133.909 363.349C133.909 363.349 131.879 371.693 134.821 371.116C137.764 370.539 138.532 363.27 138.532 363.27L138.062 361.24L134.353 361.213Z" fill="#EEA886"/>
<path d="M117.839 313.871L133.961 320.254L132.009 339.771L135.912 361.239L132.009 365.467L117.576 316.636L117.839 313.871Z" fill="#FF7E55"/>
<path d="M112.25 295.109L114.542 293.963V295.109L116.07 294.345V296.255C116.07 296.255 121.798 300.456 120.652 305.42C119.507 310.386 119.507 310.767 119.507 310.767C119.507 310.767 118.058 301.326 112.33 302.853C106.601 304.381 106.14 304.657 104.612 308.858L104.197 310.66C104.197 310.66 97.7379 295.872 112.25 295.109Z" fill="#2F2E41"/>
<path d="M131.683 320.254H134.286L138.514 343.024V362.865L133.31 361.89L129.081 331.964L131.683 320.254Z" fill="#FF7E55"/>
<path d="M98.3261 368.406H2.41797V435.055H98.3261V368.406Z" fill="#4AA9F2"/>
<path d="M50.371 381.412C46.3521 381.412 42.4233 382.603 39.0817 384.836C35.74 387.069 33.1357 390.242 31.5981 393.956C29.6643 398.616 29.534 403.83 31.2326 408.582C32.9312 413.333 36.3371 417.283 40.7873 419.661C45.2375 422.04 50.4136 422.678 55.3081 421.45C60.2025 420.222 64.465 417.217 67.2659 413.02C69.4988 409.679 70.6905 405.75 70.6902 401.731C70.6751 396.347 68.5294 391.188 64.7221 387.38C60.9148 383.573 55.7554 381.427 50.371 381.412ZM50.371 387.507C51.5771 387.507 52.756 387.865 53.7589 388.535C54.7617 389.204 55.5434 390.157 56.005 391.271C56.4666 392.385 56.5875 393.611 56.3522 394.794C56.117 395.977 55.5363 397.063 54.6835 397.916C53.8307 398.769 52.7442 399.35 51.5613 399.585C50.3785 399.82 49.1524 399.699 48.0383 399.238C46.9241 398.776 45.9718 397.994 45.3019 396.991C44.632 395.989 44.2746 394.81 44.2748 393.604C44.2809 391.989 44.9251 390.442 46.0671 389.3C47.209 388.158 48.7561 387.513 50.371 387.507ZM50.371 416.854C47.963 416.843 45.5941 416.245 43.4696 415.111C41.3452 413.977 39.5293 412.342 38.1795 410.348C38.2774 406.284 46.3072 404.047 50.371 404.047C54.4359 404.047 62.4647 406.284 62.5626 410.348C61.2109 412.34 59.3947 413.974 57.2706 415.107C55.1466 416.241 52.7786 416.84 50.371 416.854Z" fill="white"/>
<path d="M314.536 177.121H194.241V246.155H314.536V177.121Z" fill="#E6E6E6"/>
<path d="M552.404 314.043L552.962 310.448C552.962 310.448 556.211 303.063 553.643 302.665C551.075 302.266 548.933 309.298 548.933 309.298L549.873 316.806L552.404 314.043Z" fill="#EEA886"/>
<path d="M578.696 334.424L555.743 329.813L553.076 313.096L546.32 312.574L546.65 334.188L566.592 344.644L578.696 334.424Z" fill="#575A89"/>
<path opacity="0.2" d="M578.696 334.424L555.743 329.813L553.076 313.096L546.32 312.574L546.65 334.188L566.592 344.644L578.696 334.424Z" fill="black"/>
<path d="M516.255 309.621H586.698V304.117H516.255V309.621Z" fill="#4CA0F5"/>
<path d="M547.919 312.81L547.924 309.172C547.924 309.172 550.013 301.379 547.414 301.375C544.816 301.372 543.767 308.647 543.767 308.647L545.836 315.926L547.919 312.81Z" fill="#EEA886"/>
<path d="M577.796 323.23L580.945 322.463C582.147 322.463 583.334 322.198 584.42 321.684C585.506 321.171 586.465 320.422 587.227 319.493C587.989 318.563 588.534 317.476 588.824 316.31C589.113 315.143 589.14 313.927 588.902 312.749C588.907 310.653 588.288 308.602 587.126 306.857C585.964 305.112 584.311 303.751 582.375 302.946C580.439 302.141 578.308 301.929 576.251 302.337C574.194 302.744 572.305 303.752 570.821 305.234C569.836 306.217 569.054 307.384 568.52 308.669C567.985 309.954 567.709 311.331 567.708 312.723C567.3 314.141 567.272 315.64 567.626 317.072C567.981 318.504 568.705 319.818 569.726 320.882C570.748 321.946 572.031 322.723 573.447 323.135C574.864 323.547 576.363 323.58 577.796 323.23ZM559.273 375.711L561.837 403.78L566.48 431.331L574.276 431.34L573.27 404.313L569.154 371.566L559.273 375.711Z" fill="#2F2E41"/>
<path d="M567.523 429.772L562.321 432.885C562.321 432.885 554.005 433.913 555.56 436.514C557.116 439.114 575.308 437.578 575.309 436.539C575.311 435.499 574.799 429.781 573.759 429.78L567.523 429.772ZM582.286 373.286C582.286 373.286 582.14 377.299 578.495 383.531L578.99 402.761L597.67 426.691L590.906 432.4L568.071 406.385L562.394 375.195L569.679 367.928L582.286 373.286Z" fill="#2F2E41"/>
<path d="M596.11 426.689C596.11 426.689 602.346 427.737 601.303 430.335C600.261 432.932 597.646 444.882 590.892 443.315C590.892 443.315 587.774 443.311 588.816 441.233C589.442 439.984 590.138 438.77 590.899 437.598L590.907 430.841L596.11 426.689Z" fill="#2F2E41"/>
<path d="M574.421 323.759C575.456 323.775 576.483 323.586 577.443 323.202C578.404 322.817 579.278 322.246 580.016 321.52C580.753 320.795 581.339 319.93 581.738 318.976C582.138 318.021 582.344 316.997 582.344 315.963C582.344 314.928 582.138 313.904 581.738 312.95C581.339 311.996 580.753 311.131 580.016 310.406C579.278 309.68 578.404 309.108 577.443 308.724C576.483 308.34 575.456 308.15 574.421 308.167C572.376 308.2 570.425 309.036 568.989 310.494C567.554 311.953 566.75 313.917 566.75 315.963C566.75 318.009 567.554 319.973 568.989 321.432C570.425 322.89 572.376 323.726 574.421 323.759Z" fill="#EEA886"/>
<path d="M578.052 321.163L578.041 329.998L569.726 329.988L570.776 321.154L578.052 321.163Z" fill="#EEA886"/>
<path d="M567.651 326.869L570.171 326.25L578.045 326.882C578.045 326.882 582.198 331.045 581.676 332.084C581.156 333.123 578.525 358.586 578.525 358.586L583.18 376.782L566.548 377.8L558.233 376.751L559.833 344.01C559.833 344.01 556.206 335.17 560.887 332.577C563.531 331.19 565.839 329.242 567.651 326.869Z" fill="#EDDAD3"/>
<path d="M577.003 328.958L553.618 327.89L548.441 311.771L541.684 312.282L545.295 333.596L566.594 340.899L577.003 328.958Z" fill="#EDDAD3"/>
<path d="M589.47 310.22C590.136 310.229 590.798 310.106 591.416 309.858C592.035 309.609 592.598 309.24 593.072 308.772C593.547 308.304 593.924 307.747 594.181 307.132C594.438 306.517 594.571 305.857 594.571 305.19C594.571 304.524 594.438 303.864 594.181 303.249C593.924 302.634 593.547 302.076 593.072 301.608C592.598 301.14 592.035 300.771 591.416 300.523C590.798 300.274 590.136 300.151 589.47 300.161C588.148 300.179 586.887 300.718 585.959 301.659C585.031 302.6 584.511 303.869 584.511 305.19C584.511 306.512 585.031 307.781 585.959 308.722C586.887 309.663 588.148 310.201 589.47 310.22Z" fill="#2F2E41"/>
<path d="M584.828 302.485C584.83 301.741 584.996 301.007 585.314 300.335C585.633 299.663 586.097 299.069 586.672 298.598C587.248 298.126 587.921 297.788 588.643 297.609C589.365 297.43 590.119 297.413 590.848 297.561C590.204 297.256 589.504 297.092 588.792 297.079C588.08 297.066 587.374 297.204 586.72 297.485C586.066 297.766 585.479 298.182 584.998 298.707C584.516 299.231 584.152 299.851 583.928 300.526C583.703 301.202 583.626 301.918 583.699 302.626C583.773 303.334 583.996 304.018 584.354 304.633C584.712 305.248 585.197 305.78 585.776 306.194C586.354 306.608 587.014 306.895 587.712 307.035C586.85 306.628 586.12 305.984 585.61 305.178C585.099 304.373 584.828 303.439 584.828 302.485ZM580.513 305.337L573.733 304.089L568.519 307.357C567.236 308.16 566.212 309.315 565.566 310.683C564.92 312.051 564.68 313.576 564.874 315.077L570.097 313.754L571.266 310.82L572.659 313.104L578.309 322.983L584.03 319.872L587.676 314.159L580.513 305.337Z" fill="#2F2E41"/>
<path d="M194.58 176.527L193.9 177.713L314.196 246.745L314.875 245.56L194.58 176.527Z" fill="white"/>
<path d="M314.199 176.533L193.898 245.557L194.578 246.743L314.88 177.718L314.199 176.533ZM474.275 209.446L473.308 210.413L512.268 249.372L513.234 248.405L474.275 209.446Z" fill="white"/>
<path d="M512.268 209.445L473.308 248.404L474.275 249.371L513.234 210.412L512.268 209.445Z" fill="white"/>
<path d="M79.6828 242.222L79.1906 241.116C78.8214 241.116 78.4522 240.993 78.0831 240.87L77.2227 241.731L74.6395 239.885L75.1308 238.779C74.8857 238.41 74.6395 238.163 74.5155 237.794H73.2859L72.7937 234.596L73.9012 234.105C73.9012 233.735 74.0243 233.366 74.1473 232.997L73.2859 232.136L75.1318 229.553L76.2383 230.045C76.6074 229.799 76.8535 229.553 77.2227 229.431V228.2L80.4201 227.708L80.9123 228.815C81.2815 228.815 81.6507 228.938 82.0198 229.061L82.8802 228.2L85.4633 230.045L84.9721 231.152C85.2172 231.522 85.4633 231.768 85.5874 232.136H86.8169L87.3092 235.334L86.2017 235.826C86.2017 236.196 86.0786 236.565 85.9556 236.934L86.8169 237.794L84.9711 240.377L83.8646 239.885C83.4955 240.131 83.2494 240.377 82.8802 240.5V241.731L79.6828 242.222ZM77.837 239.885L78.0831 240.008L79.5597 240.377H79.8058L80.174 241.362L81.8968 241.116V240.008L82.1429 239.885C82.6351 239.639 83.0032 239.394 83.3734 239.148L83.6185 239.025L84.603 239.394L85.5864 237.917L84.8491 237.179L84.9721 236.934L85.3403 235.457V235.211L86.3247 234.842L86.0786 233.12H84.9721L84.8491 232.874C84.6307 232.448 84.384 232.037 84.1107 231.645L83.9877 231.398L84.3568 230.414L82.8802 229.431L82.1429 230.168L81.8968 230.045L80.4201 229.676H80.175L79.8058 228.692L78.0831 228.938V230.045L77.837 230.168C77.3457 230.414 76.9766 230.66 76.6064 230.906L76.3613 231.029L75.3769 230.66L74.3934 232.136L75.1308 232.874L75.0087 233.12L74.6395 234.596V234.842L73.6551 235.211L73.9012 236.934H75.0077L75.1318 237.179C75.3769 237.671 75.623 238.04 75.8691 238.41L75.9921 238.656L75.623 239.639L77.0996 240.624L77.837 239.885ZM80.0509 238.41C79.3136 238.41 78.6993 238.163 78.0841 237.794C76.4844 236.688 76.1152 234.474 77.2227 232.997C78.3292 231.398 80.5432 231.029 82.0198 232.136C82.7581 232.628 83.2504 233.489 83.3724 234.351C83.4955 235.211 83.3724 236.196 82.7571 236.934C82.2659 237.671 81.4045 238.163 80.5432 238.286C80.4201 238.41 80.175 238.41 80.0519 238.41H80.0509ZM80.0509 232.259C79.1906 232.259 78.4522 232.628 77.96 233.366C77.5919 233.982 77.3447 234.596 77.4688 235.334C77.5908 236.073 77.96 236.565 78.5753 237.056C79.1906 237.425 79.8058 237.671 80.5432 237.548C81.2815 237.425 81.7737 237.056 82.2659 236.442C82.6341 235.826 82.8812 235.211 82.7571 234.474C82.6351 233.735 82.2659 233.243 81.6506 232.751C81.0354 232.505 80.5432 232.259 80.0519 232.259H80.0509ZM55.2049 245.913L54.2205 243.33C53.1682 243.215 52.1348 242.967 51.1451 242.591L49.1783 244.436L43.7649 240.624L44.8724 238.163C44.2571 237.302 43.6418 236.442 43.1506 235.457L40.4444 235.334L39.3369 228.692L41.9201 227.708C42.0431 226.601 42.2892 225.617 42.6584 224.632L40.8126 222.665L44.6252 217.252L47.0863 218.36C47.9477 217.744 48.8081 217.129 49.7925 216.637L49.9156 213.932L56.4335 212.824L57.4179 215.407C58.5244 215.53 59.5088 215.777 60.4933 216.146L62.4601 214.3L67.8735 218.114L66.7661 220.574C67.3813 221.435 67.9966 222.295 68.4878 223.28L71.194 223.403L72.3015 230.045L69.7184 231.029C69.6035 232.082 69.3554 233.115 68.98 234.105L70.8259 236.073L67.0122 241.485L64.5531 240.377C63.6917 240.993 62.8313 241.608 61.8469 242.099L61.7238 244.805L55.2049 245.913ZM50.899 241.362L51.2682 241.485C52.3757 241.853 53.6052 242.222 54.7127 242.222H55.0819L55.9423 244.559L60.6173 243.822L60.7394 241.362L61.1086 241.239C62.216 240.747 63.1995 240.131 64.1849 239.393L64.43 239.148L66.7671 240.131L69.4733 236.319L67.7515 234.473L67.8746 234.105C68.2427 232.997 68.6119 231.767 68.6119 230.66V230.291L70.9489 229.43L70.2116 224.755L67.7505 224.632L67.6284 224.263C67.1362 223.157 66.521 222.172 65.7826 221.189L65.5375 220.943L66.5209 218.606L62.7083 215.9L60.8624 217.621L60.4943 217.498C59.3868 217.129 58.1562 216.76 57.0498 216.76H56.6806L55.8202 214.423L51.1451 215.161L51.0221 217.621L50.6529 217.744C49.5464 218.237 48.562 218.852 47.5786 219.589L47.3325 219.835L44.9954 218.852L42.2892 222.665L44.011 224.509L43.8879 224.879C43.5188 225.986 43.1506 227.216 43.1506 228.323V228.692L40.8126 229.553L41.5509 234.228L44.012 234.35L44.134 234.719C44.6263 235.826 45.2415 236.81 45.9799 237.794L46.225 238.04L45.2415 240.377L49.0542 243.084L50.9 241.362H50.899ZM55.8202 237.056C54.3436 237.056 52.7438 236.565 51.3923 235.703C47.9477 233.243 47.2094 228.569 49.6695 225.125C52.1296 221.68 56.8036 220.943 60.2482 223.403C63.6917 225.863 64.43 230.537 62.093 233.982C60.4943 235.949 58.1562 237.056 55.8192 237.056H55.8202ZM55.8202 223.034C53.8513 223.034 51.8835 224.018 50.5309 225.74C49.5464 227.093 49.1773 228.815 49.4234 230.537C49.6695 232.259 50.6539 233.735 52.0065 234.719C54.8358 236.81 58.8956 236.073 60.9855 233.243C61.9699 231.89 62.3391 230.168 62.093 228.446C61.8469 226.723 60.8624 225.248 59.5098 224.263C58.4024 223.403 57.1728 223.034 55.8202 223.034Z" fill="#A1D4FF"/>
<path d="M339.618 73.0404C327.564 73.0404 317.724 63.199 317.724 51.1447H318.954C318.954 62.5848 328.302 71.8098 339.618 71.8098C351.058 71.8098 360.283 62.4617 360.283 51.1447C360.283 39.7056 350.935 30.4795 339.618 30.4795V29.25C351.674 29.25 361.514 39.0904 361.514 51.1447C361.514 63.3231 351.674 73.0404 339.618 73.0404ZM339.618 70.0881C329.286 70.0881 320.799 61.6003 320.799 51.2677C320.799 40.9352 329.286 32.4484 339.618 32.4484C349.951 32.4484 358.439 40.9352 358.439 51.2677H357.208C357.208 41.5504 349.336 33.5559 339.495 33.5559C329.778 33.5559 321.782 41.4274 321.782 51.2677C321.782 60.9851 329.655 68.9806 339.495 68.9806V70.0881H339.618Z" fill="#78C2FF"/>
<path d="M337.038 58.4031L329.042 50.5316L329.902 49.7933L337.038 56.8044L349.461 44.3809L350.198 45.2422L337.038 58.4031Z" fill="#78C2FF"/>
<path d="M111.763 97.8626H33.2852L33.4082 97.1253C34.6388 90.6054 40.4193 85.9313 46.9392 85.9313C47.9226 85.9313 48.784 86.0544 49.7685 86.1774C53.8273 78.428 61.8208 73.6309 70.5567 73.6309C78.059 73.6309 85.1931 77.1984 89.6221 83.3482C91.2574 82.8537 92.957 82.6049 94.6653 82.6098C103.152 82.6098 110.409 88.7606 111.64 97.1243L111.763 97.8626ZM34.7608 96.7561H110.409C108.934 89.3758 102.292 83.8404 94.6643 83.8404C92.9426 83.8404 91.2208 84.0865 89.6211 84.7018L89.2529 84.8248L89.0068 84.4557C84.825 78.551 77.9359 74.9845 70.6797 74.9845C62.1909 74.9845 54.4425 79.6585 50.6288 87.2849L50.3827 87.6531L49.8905 87.531C48.9256 87.2874 47.9344 87.1634 46.9392 87.1619C41.1576 87.2849 36.1144 91.2206 34.7608 96.7561Z" fill="#6AAFE8"/>
<path d="M127.385 156.044H77.8135V92.5742H78.921V154.815H127.385V156.044Z" fill="#78C2FF"/>
<path d="M78.429 93.1879C76.0909 93.1879 74.123 91.2211 74.123 88.883C74.123 86.546 76.0909 84.5781 78.429 84.5781C80.766 84.5781 82.7339 86.545 82.7339 88.883C82.7339 91.2201 80.766 93.1879 78.429 93.1879ZM78.429 85.6846C78.0239 85.6806 77.6222 85.7573 77.2471 85.9105C76.8721 86.0636 76.5314 86.2899 76.245 86.5763C75.9585 86.8627 75.732 87.2033 75.5788 87.5782C75.4256 87.9532 75.3487 88.3549 75.3526 88.76C75.3487 89.165 75.4256 89.5668 75.5788 89.9417C75.732 90.3167 75.9585 90.6573 76.245 90.9437C76.5314 91.23 76.8721 91.4564 77.2471 91.6095C77.6222 91.7626 78.0239 91.8394 78.429 91.8353C78.8338 91.8391 79.2354 91.7621 79.6101 91.6089C79.9849 91.4557 80.3254 91.2293 80.6116 90.9429C80.8979 90.6566 81.1242 90.3161 81.2773 89.9412C81.4304 89.5664 81.5072 89.1648 81.5033 88.76C81.5072 88.3551 81.4304 87.9535 81.2773 87.5787C81.1242 87.2039 80.8979 86.8634 80.6116 86.577C80.3254 86.2907 79.9849 86.0643 79.6101 85.911C79.2354 85.7578 78.8338 85.6808 78.429 85.6846Z" fill="#78C2FF"/>
<path d="M675.743 259.099H633.43V228.963H675.743V259.099ZM634.66 257.87H674.637V230.07H634.66V257.87Z" fill="#A1D4FF"/>
<path d="M654.588 247.168L633.677 229.947L634.415 229.086L654.588 245.691L674.761 229.086L675.499 229.947L654.588 247.168Z" fill="#A1D4FF"/>
<path d="M660.483 242.057L659.591 242.904L674.743 258.878L675.636 258.031L660.483 242.057ZM648.748 242.11L633.606 258.095L634.499 258.941L649.641 242.956L648.748 242.11Z" fill="#A1D4FF"/>
<path d="M553.918 63.2262L553.671 63.1032C525.872 48.8348 529.562 21.4047 529.562 21.0355L529.685 20.5433H530.177C547.89 20.5433 553.425 14.8848 553.548 14.7618L554.041 14.2695L554.41 14.7618C554.41 14.7618 560.067 20.5433 577.78 20.5433H578.272L578.395 21.0355C578.395 21.2816 582.208 48.8338 554.287 63.1032L553.918 63.2262ZM530.669 21.7729C530.3 25.4635 529.194 49.081 553.918 61.9957C578.642 49.204 577.534 25.5865 577.165 21.7729C561.79 21.6498 555.516 17.3449 553.918 15.9923C552.318 17.3449 546.045 21.6508 530.669 21.7729Z" fill="#6AAFE8"/>
<path d="M491.31 176.145H490.202V110.706H553.304V55.5996H554.534V111.813H491.31V176.145Z" fill="#78C2FF"/>
<path d="M592.787 77.7394H582.701V76.6329H591.557V67.6529H592.787V77.7394ZM525.012 77.7394H514.926V67.6529H516.155V76.6329H525.012V77.7394ZM516.154 10.0865H515.048V0H525.011V1.23055H516.154V10.0865ZM592.787 10.0865H591.557V1.23055H582.701V0H592.787V10.0865ZM592.787 25.0931H591.557V52.6463H592.787V25.0931ZM516.155 25.0931H514.926V52.6463H516.155V25.0931Z" fill="#6AAFE8"/>
<path d="M553.919 56.2143C551.582 56.2143 549.614 54.2465 549.614 51.9084C549.614 49.5714 551.582 47.6035 553.919 47.6035C556.256 47.6035 558.224 49.5714 558.224 51.9084C558.224 54.3695 556.256 56.2143 553.919 56.2143ZM553.919 48.8341C553.514 48.8302 553.113 48.907 552.738 49.0601C552.363 49.2132 552.023 49.4395 551.736 49.7258C551.45 50.012 551.224 50.3525 551.07 50.7272C550.917 51.102 550.84 51.5036 550.844 51.9084C550.84 52.3135 550.917 52.7152 551.07 53.0902C551.223 53.4652 551.449 53.8059 551.736 54.0924C552.022 54.3789 552.363 54.6053 552.737 54.7586C553.112 54.9118 553.514 54.9887 553.919 54.9848C554.324 54.9887 554.726 54.9118 555.101 54.7586C555.476 54.6053 555.816 54.3789 556.103 54.0924C556.389 53.8059 556.616 53.4652 556.769 53.0902C556.922 52.7152 556.999 52.3135 556.995 51.9084C557.118 50.1867 555.641 48.8341 553.919 48.8341Z" fill="#78C2FF"/>
<path d="M650.673 403.086C648.519 393.202 653.207 390.732 657.706 388.388C661.38 386.423 664.864 384.586 664.675 378.757C664.42 371.028 669.68 368.241 674.304 365.77C677.726 363.932 681.02 362.159 681.464 358.674C682.603 350.248 690.396 339.732 690.523 339.668L691.03 340.048C690.966 340.174 683.237 350.501 682.097 358.801C681.59 362.602 678.169 364.439 674.621 366.34C669.933 368.874 665.055 371.472 665.308 378.757C665.498 384.966 661.697 386.994 658.023 388.894C653.524 391.302 649.28 393.519 651.307 402.959L650.673 403.086Z" fill="url(#paint0_linear_2745_929)"/>
<path d="M653.018 400.614H652.701C650.738 400.487 648.837 398.967 646.683 395.926L646.557 395.737L646.683 395.546C646.746 395.482 650.168 391.302 648.901 383.382C648.584 381.545 648.204 380.151 647.887 379.01C647.443 377.363 647.127 376.287 647.633 375.399C648.267 374.322 650.041 373.689 654.983 372.549C660.241 371.282 662.015 365.326 663.599 360.068C665.056 355.126 666.449 350.438 670.567 350.628C674.369 350.755 680.071 344.863 685.139 339.668C689.828 334.853 694.263 330.292 697.113 330.354C697.81 330.354 698.38 330.672 698.824 331.178C701.357 334.156 699.013 338.78 696.733 343.152C694.769 346.89 692.931 350.501 694.136 352.845C695.593 355.823 695.846 358.484 694.705 360.574C693.439 363.045 690.397 364.629 685.773 365.326C681.527 365.959 681.085 370.585 680.577 375.463C680.007 381.165 679.374 387.691 672.215 388.324C666.893 388.767 663.346 392.505 660.177 395.799C657.77 398.334 655.553 400.614 653.018 400.614ZM647.316 395.737C649.281 398.461 651.054 399.854 652.765 399.981C655.109 400.171 657.327 397.89 659.797 395.293C663.029 391.935 666.703 388.133 672.215 387.627C678.867 387.057 679.438 381.101 680.007 375.336C680.515 370.205 681.021 365.326 685.709 364.629C690.144 363.996 692.995 362.476 694.199 360.195C695.213 358.294 694.959 355.823 693.566 353.036C692.235 350.438 694.136 346.7 696.163 342.835C698.38 338.591 700.598 334.219 698.316 331.495C698 331.115 697.557 330.861 697.049 330.861C694.516 330.798 690.144 335.233 685.52 339.985C680.197 345.496 674.686 351.135 670.631 351.135H670.504C666.829 351.008 665.626 355.253 664.169 360.195C662.585 365.58 660.747 371.725 655.109 373.055C650.611 374.132 648.647 374.702 648.14 375.652C647.76 376.287 648.013 377.237 648.457 378.821C648.871 380.28 649.21 381.761 649.471 383.256C650.738 390.668 648.013 394.849 647.316 395.737Z" fill="url(#paint1_linear_2745_929)"/>
<path d="M653.272 398.522H653.081C649.85 398.206 647.443 391.237 645.035 384.458C643.895 381.227 642.818 378.186 641.804 376.286C640.98 374.765 639.967 373.181 639.016 371.66C636.356 367.605 633.631 363.424 634.519 359.686C634.962 357.722 636.356 356.139 638.763 354.745C644.021 351.704 643.198 349.993 641.424 346.255C640.157 343.531 638.319 339.73 638.256 333.838C638.256 331.304 638.193 329.086 638.13 327.186C637.939 320.976 637.877 317.809 639.207 316.669C639.777 316.226 640.537 316.099 641.614 316.288C643.515 316.669 644.338 318.19 645.162 319.773C646.239 321.864 647.506 324.145 651.308 324.969C654.855 325.728 658.276 326.742 659.163 329.086C659.796 330.733 659.227 332.888 657.263 335.738C656.819 336.435 656.629 337.006 656.755 337.512C657.072 338.653 658.846 339.476 660.874 340.426C663.788 341.757 667.4 343.467 668.413 346.952C669.236 349.74 668.286 353.287 665.498 357.722C658.91 368.176 659.163 375.208 659.416 381.48C659.607 386.105 659.733 390.476 656.946 395.355C655.742 397.509 654.538 398.522 653.272 398.522ZM640.663 316.796C640.221 316.796 639.84 316.923 639.587 317.112C638.446 318.063 638.574 321.293 638.7 327.122C638.763 329.086 638.827 331.24 638.827 333.838C638.89 339.603 640.663 343.341 641.931 346.002C643.705 349.74 644.718 351.957 639.016 355.251C636.799 356.518 635.469 358.039 635.025 359.813C634.202 363.234 636.863 367.352 639.397 371.281C640.41 372.801 641.424 374.384 642.248 375.969C643.324 377.933 644.401 381.036 645.542 384.268C647.759 390.54 650.23 397.699 653.081 397.952C654.158 398.079 655.299 397.066 656.439 395.038C659.163 390.287 658.973 386.232 658.783 381.48C658.53 375.145 658.276 367.985 664.992 357.406C667.653 353.161 668.603 349.804 667.842 347.142C666.892 343.911 663.534 342.328 660.62 340.997C658.466 339.983 656.566 339.096 656.185 337.703C655.996 337.006 656.185 336.245 656.755 335.421C658.593 332.761 659.163 330.797 658.593 329.339C657.769 327.249 654.349 326.299 651.117 325.602C647.062 324.778 645.668 322.181 644.592 320.09C643.768 318.57 643.071 317.176 641.424 316.923C641.178 316.844 640.922 316.802 640.663 316.796Z" fill="url(#paint2_linear_2745_929)"/>
<path d="M653.336 402.262L652.765 402.072C655.997 391.872 650.168 369.001 648.393 363.426C647.507 360.702 648.331 356.583 649.09 352.592C650.104 347.461 651.118 342.139 648.52 340.111C643.643 336.374 643.896 327.694 643.896 327.314H644.529C644.529 327.377 644.276 336.057 648.901 339.605C651.815 341.822 650.737 347.334 649.724 352.656C648.964 356.583 648.204 360.638 649.027 363.235C651.118 370.142 656.566 392.125 653.336 402.262Z" fill="url(#paint3_linear_2745_929)"/>
<path d="M628.943 336.055C627.613 332.635 622.354 333.141 622.861 337.957C623.367 342.771 626.725 347.903 621.594 356.14C616.462 364.312 628.183 365.959 632.364 371.091C636.545 376.223 638.003 383.319 641.55 387.816C645.099 392.315 647.505 403.085 650.357 399.094C653.271 395.103 650.546 389.844 650.863 382.622C651.18 375.399 657.642 370.838 651.18 366.149C644.718 361.461 638.256 360.067 640.41 349.55C641.233 344.862 633.124 346.636 628.943 336.055Z" fill="url(#paint4_linear_2745_929)"/>
<path d="M654.982 399.98C654.918 399.791 651.371 378.567 643.387 372.801C635.215 366.91 633.758 361.397 630.907 348.536L631.477 348.41C634.265 361.144 635.721 366.529 643.704 372.357C651.877 378.313 655.424 399.094 655.551 399.917L654.982 399.98Z" fill="white"/>
<path d="M647.759 399.219C647.759 399.219 650.166 393.328 645.795 384.965C641.487 376.602 637.94 377.869 648.393 371.47C658.846 365.072 648.456 344.798 657.326 342.2C666.196 339.603 673.925 306.849 680.641 311.03C687.419 315.212 678.359 331.304 683.238 336.118C688.052 340.934 688.687 347.079 678.739 352.021C668.793 356.962 685.835 375.969 672.34 381.733C658.846 387.562 662.711 410.243 647.759 399.219Z" fill="url(#paint5_linear_2745_929)"/>
<path d="M651.879 405.43C651.879 405.366 650.421 397.827 654.983 388.07C659.672 378.187 661.889 367.353 660.938 359.118C660.431 354.683 663.283 352.908 666.07 351.198C668.794 349.551 671.582 347.84 671.456 343.406C671.328 339.414 672.976 330.101 673.039 329.721L673.609 329.848C673.609 329.975 671.898 339.477 672.025 343.406C672.215 348.157 669.238 349.994 666.387 351.705C663.663 353.352 661.065 354.936 661.572 358.991C662.522 367.353 660.241 378.314 655.553 388.324C651.055 397.827 652.449 405.176 652.449 405.303L651.879 405.43Z" fill="white"/>
<path d="M662.774 363.869C665.815 361.081 669.807 360.637 668.983 364.819C668.159 369 665.309 370.204 666.703 372.801C668.159 375.398 670.504 378.059 666.449 381.291C662.395 384.522 660.113 384.902 658.91 390.984C657.706 397.066 657.96 401.247 652.701 401.5C647.443 401.754 649.47 394.089 651.181 390.667C651.181 390.667 653.715 386.739 652.004 381.544C650.357 376.349 647.126 373.562 653.905 371.788C660.747 370.013 660.747 365.769 662.774 363.869Z" fill="white"/>
<path d="M653.144 405.365C653.144 404.605 652.765 387.056 656.059 384.141C659.417 381.1 660.05 375.778 660.114 372.864C660.24 369.063 665.119 366.846 665.308 366.719L665.562 367.289C665.499 367.289 660.811 369.507 660.684 372.864C660.557 376.539 659.734 381.544 656.376 384.521C653.271 387.309 653.651 405.112 653.651 405.302L653.144 405.365Z" fill="url(#paint6_linear_2745_929)"/>
<path d="M665.436 398.207L660.05 418.861H647.886L642.438 398.207H665.436Z" fill="url(#paint7_linear_2745_929)"/>
<path d="M665.436 398.207C665.436 398.207 653.462 400.425 653.462 418.861H647.823L642.375 398.207H665.436Z" fill="url(#paint8_linear_2745_929)"/>
<defs>
<linearGradient id="paint0_linear_2745_929" x1="650.125" y1="371.403" x2="691.013" y2="371.403" gradientUnits="userSpaceOnUse">
<stop stop-color="#3076A1"/>
<stop offset="1" stop-color="#639C38"/>
</linearGradient>
<linearGradient id="paint1_linear_2745_929" x1="646.575" y1="365.442" x2="699.959" y2="365.442" gradientUnits="userSpaceOnUse">
<stop stop-color="#3076A1"/>
<stop offset="1" stop-color="#639C38"/>
</linearGradient>
<linearGradient id="paint2_linear_2745_929" x1="634.309" y1="357.364" x2="668.743" y2="357.364" gradientUnits="userSpaceOnUse">
<stop stop-color="#3076A1"/>
<stop offset="1" stop-color="#639C38"/>
</linearGradient>
<linearGradient id="paint3_linear_2745_929" x1="643.881" y1="364.812" x2="654.321" y2="364.812" gradientUnits="userSpaceOnUse">
<stop stop-color="#3076A1"/>
<stop offset="1" stop-color="#639C38"/>
</linearGradient>
<linearGradient id="paint4_linear_2745_929" x1="620.25" y1="366.881" x2="653.956" y2="366.881" gradientUnits="userSpaceOnUse">
<stop stop-color="#3076A1"/>
<stop offset="1" stop-color="#639C38"/>
</linearGradient>
<linearGradient id="paint5_linear_2745_929" x1="642.818" y1="443.248" x2="671.175" y2="332.966" gradientUnits="userSpaceOnUse">
<stop stop-color="#3076A1"/>
<stop offset="1" stop-color="#639C38"/>
</linearGradient>
<linearGradient id="paint6_linear_2745_929" x1="653.126" y1="386.081" x2="665.587" y2="386.081" gradientUnits="userSpaceOnUse">
<stop stop-color="#3076A1"/>
<stop offset="1" stop-color="#639C38"/>
</linearGradient>
<linearGradient id="paint7_linear_2745_929" x1="642.426" y1="408.548" x2="665.463" y2="408.548" gradientUnits="userSpaceOnUse">
<stop stop-color="#FF9340"/>
<stop offset="1" stop-color="#FFCE45"/>
</linearGradient>
<linearGradient id="paint8_linear_2745_929" x1="642.426" y1="408.548" x2="665.463" y2="408.548" gradientUnits="userSpaceOnUse">
<stop stop-color="#C97332"/>
<stop offset="1" stop-color="#FFCE45"/>
</linearGradient>
</defs>
</svg>
