<svg width="80" height="80" viewBox="0 0 80 80" fill="none" xmlns="http://www.w3.org/2000/svg">
<path d="M39.5236 21.9043C35.8505 21.9043 32.2599 22.9656 29.2059 24.9539C26.1518 26.9422 23.7714 29.7683 22.3658 33.0748C20.9602 36.3813 20.5924 40.0196 21.309 43.5297C22.0256 47.0399 23.7943 50.2641 26.3916 52.7948C28.9889 55.3255 32.298 57.0489 35.9005 57.7471C39.503 58.4453 43.2371 58.0869 46.6306 56.7174C50.024 55.3478 52.9245 53.0285 54.9652 50.0527C57.0058 47.077 58.095 43.5784 58.095 39.9995C58.0891 35.2021 56.1306 30.6029 52.6491 27.2106C49.1675 23.8183 44.4472 21.91 39.5236 21.9043Z" fill="#478AFF"/>
<path d="M65.7145 23.8089C70.4484 23.8089 74.2859 19.9713 74.2859 15.2374C74.2859 10.5036 70.4484 6.66602 65.7145 6.66602C60.9806 6.66602 57.1431 10.5036 57.1431 15.2374C57.1431 19.9713 60.9806 23.8089 65.7145 23.8089Z" fill="#478AFF"/>
<path d="M76.3974 23.4472L76.0492 22.6854L75.505 23.3166C74.1437 24.8613 72.4223 26.0463 70.4935 26.7665L69.9493 26.9624L70.167 27.5065C73.0995 34.5588 73.4707 42.4152 71.2161 49.7126C68.9616 57.01 64.2236 63.2879 57.8242 67.4571C51.4247 71.6262 43.7677 73.4237 36.1816 72.5374C28.5954 71.6512 21.5589 68.1373 16.2928 62.6053C11.0267 57.0733 7.86329 49.8724 7.35149 42.2518C6.83968 34.6313 9.01176 27.072 13.4909 20.8855C17.97 14.699 24.4734 10.2758 31.8729 8.38309C39.2724 6.49042 47.101 7.24781 54.0005 10.5238L54.512 10.7687L54.7351 10.2246C55.5483 8.33318 56.8155 6.67162 58.4244 5.38713L59.0774 4.84299L58.3319 4.45664C52.6685 1.51317 46.3769 -0.0158648 39.9942 0.000124116C31.3527 0.00136502 22.944 2.80108 16.0265 7.98025C9.10899 13.1594 4.05476 20.4395 1.62022 28.731C-0.814329 37.0225 -0.498253 45.8794 2.52114 53.9762C5.54053 62.0731 11.1009 68.9744 18.3699 73.6473C25.639 78.3202 34.226 80.5134 42.8456 79.8986C51.4652 79.2839 59.6539 75.8942 66.1863 70.237C72.7186 64.5798 77.2432 56.9592 79.083 48.5158C80.9227 40.0724 79.9786 31.2603 76.392 23.3983L76.3974 23.4472Z" fill="#478AFF"/>
</svg>
