<svg width="600" height="474" viewBox="0 0 600 474" fill="none" xmlns="http://www.w3.org/2000/svg">
<path d="M115.484 369.571H428.065V149.008C428.065 142.997 423.21 138.025 417.084 138.025H126.35C120.34 138.025 115.369 142.881 115.369 149.008V369.571H115.484Z" fill="url(#paint0_linear_2518_526)"/>
<path d="M126.467 327.494H416.505V149.355H126.467V327.494Z" fill="url(#paint1_linear_2518_526)"/>
<path d="M96.0638 150.164H22.3115L22.4265 149.471C23.5834 143.344 29.0161 138.951 35.1427 138.951C36.0676 138.951 36.8776 139.067 37.8015 139.183C41.6163 131.9 49.1308 127.392 57.3383 127.392C64.3898 127.392 71.0944 130.744 75.2561 136.524C76.7929 136.059 78.3902 135.825 79.9958 135.83C87.9723 135.83 94.7919 141.61 95.9478 149.471L96.0638 150.164ZM23.6984 149.124H94.7919C93.405 142.188 87.1624 136.986 79.9958 136.986C78.3769 136.986 76.759 137.217 75.2561 137.795L74.9091 137.911L74.6782 137.564C70.7474 132.016 64.2738 128.663 57.4542 128.663C49.4768 128.663 42.1952 133.055 38.6105 140.223L38.3805 140.57L37.9175 140.454C37.0103 140.225 36.0784 140.108 35.1427 140.107C29.71 140.223 24.9704 143.922 23.6984 149.124ZM366.913 59.4192L366.681 59.3042C340.556 45.8941 344.024 20.1157 344.024 19.7687L344.14 19.3058H344.602C361.249 19.3058 366.45 13.9891 366.566 13.8731L367.028 13.4102L367.375 13.8731C367.375 13.8731 372.693 19.3058 389.339 19.3058H389.802L389.917 19.7687C389.917 19.9997 393.501 45.894 367.259 59.3032L366.913 59.4182V59.4192ZM345.065 20.4617C344.718 23.9304 343.678 46.125 366.913 58.2632C390.149 46.241 389.108 24.0455 388.761 20.4617C374.311 20.3467 368.415 16.3009 366.913 15.029C365.41 16.3009 359.515 20.3467 345.065 20.4617Z" fill="#6AAFE8"/>
<path d="M510.143 403.326C506.212 385.292 514.766 380.784 522.974 376.507C529.678 372.923 536.037 369.571 535.69 358.936C535.227 344.833 544.822 339.746 553.261 335.238C559.504 331.886 565.514 328.649 566.323 322.291C568.404 306.916 582.623 287.726 582.854 287.611L583.779 288.304C583.663 288.536 569.56 307.378 567.48 322.522C566.555 329.458 560.312 332.81 553.839 336.278C545.284 340.902 536.383 345.642 536.846 358.936C537.193 370.265 530.256 373.964 523.552 377.432C515.344 381.824 507.599 385.87 511.299 403.095L510.143 403.326Z" fill="url(#paint2_linear_2518_526)"/>
<path d="M514.419 398.817H513.841C510.257 398.586 506.79 395.812 502.859 390.264L502.628 389.917L502.859 389.57C502.975 389.454 509.217 381.824 506.905 367.374C506.327 364.022 505.634 361.479 505.056 359.399C504.247 356.393 503.668 354.427 504.593 352.809C505.749 350.844 508.986 349.688 518.003 347.607C527.597 345.296 530.834 334.428 533.724 324.834C536.383 315.817 538.927 307.263 546.44 307.61C553.376 307.841 563.78 297.09 573.028 287.611C581.582 278.826 589.674 270.502 594.876 270.618C596.148 270.618 597.188 271.196 597.998 272.12C602.621 277.554 598.344 285.992 594.183 293.969C590.599 300.789 587.246 307.379 589.443 311.656C592.102 317.088 592.564 321.944 590.483 325.759C588.171 330.268 582.623 333.157 574.184 334.428C566.439 335.585 565.63 344.024 564.705 352.925C563.664 363.328 562.508 375.236 549.446 376.392C539.736 377.201 533.262 384.021 527.481 390.032C523.089 394.656 519.043 398.817 514.419 398.817ZM504.015 389.917C507.599 394.887 510.835 397.43 513.957 397.661C518.234 398.008 522.28 393.847 526.788 389.108C532.684 382.98 539.389 376.045 549.446 375.12C561.583 374.08 562.624 363.213 563.664 352.693C564.589 343.33 565.514 334.428 574.068 333.157C582.161 332.001 587.362 329.227 589.558 325.065C591.408 321.597 590.946 317.088 588.402 312.003C585.976 307.263 589.443 300.442 593.142 293.391C597.188 285.645 601.235 277.67 597.073 272.698C596.495 272.005 595.685 271.542 594.761 271.542C590.136 271.427 582.16 279.519 573.721 288.189C564.011 298.247 553.954 308.535 546.556 308.535H546.324C539.62 308.303 537.424 316.048 534.765 325.065C531.875 334.891 528.522 346.105 518.234 348.532C510.026 350.497 506.443 351.537 505.518 353.271C504.825 354.427 505.287 356.162 506.096 359.052C506.674 361.133 507.368 363.791 507.946 367.143C510.257 380.668 505.287 388.298 504.015 389.917Z" fill="url(#paint3_linear_2518_526)"/>
<path d="M514.881 395.002H514.534C508.638 394.424 504.246 381.709 499.853 369.34C497.772 363.444 495.807 357.896 493.957 354.427C492.455 351.653 490.605 348.763 488.871 345.989C484.016 338.59 479.045 330.961 480.663 324.14C481.472 320.557 484.016 317.666 488.409 315.124C498.003 309.575 496.5 306.454 493.263 299.634C490.952 294.663 487.6 287.726 487.484 276.976C487.484 272.352 487.368 268.306 487.253 264.838C486.906 253.509 486.79 247.729 489.218 245.648C490.259 244.839 491.646 244.608 493.61 244.955C497.078 245.648 498.581 248.423 500.084 251.313C502.049 255.127 504.362 259.289 511.297 260.792C517.771 262.179 524.013 264.029 525.631 268.306C526.787 271.311 525.747 275.242 522.164 280.444C521.355 281.716 521.008 282.756 521.239 283.681C521.817 285.761 525.053 287.264 528.753 288.998C534.071 291.426 540.659 294.547 542.509 300.904C544.012 305.991 542.278 312.465 537.192 320.557C525.169 339.631 525.631 352.462 526.094 363.906C526.44 372.345 526.672 380.321 521.586 389.223C519.389 393.154 517.193 395.002 514.881 395.002ZM491.877 245.88C491.068 245.88 490.374 246.111 489.912 246.458C487.831 248.192 488.062 254.087 488.293 264.723C488.409 268.306 488.524 272.236 488.524 276.976C488.64 287.495 491.877 294.316 494.188 299.171C497.425 305.991 499.275 310.037 488.871 316.049C484.825 318.36 482.397 321.135 481.588 324.372C480.085 330.614 484.941 338.128 489.565 345.295C491.415 348.069 493.263 350.959 494.766 353.849C496.731 357.433 498.697 363.097 500.778 368.993C504.824 380.437 509.332 393.5 514.534 393.962C516.499 394.193 518.58 392.344 520.661 388.645C525.631 379.975 525.284 372.577 524.938 363.906C524.475 352.346 524.014 339.284 536.267 319.979C541.122 312.234 542.856 306.107 541.468 301.251C539.735 295.356 533.608 292.466 528.29 290.038C524.36 288.189 520.892 286.57 520.199 284.028C519.852 282.756 520.199 281.369 521.239 279.866C524.591 275.011 525.631 271.427 524.591 268.769C523.089 264.954 516.846 263.22 510.95 261.948C503.552 260.445 501.009 255.705 499.044 251.891C497.541 249.117 496.269 246.573 493.263 246.111C492.814 245.968 492.348 245.891 491.877 245.88Z" fill="url(#paint4_linear_2518_526)"/>
<path d="M514.998 401.823L513.958 401.476C519.853 382.865 509.218 341.133 505.981 330.96C504.362 325.989 505.865 318.476 507.253 311.193C509.102 301.829 510.952 292.119 506.212 288.42C497.311 281.599 497.774 265.762 497.774 265.068H498.93C498.93 265.184 498.468 281.021 506.906 287.495C512.224 291.541 510.258 301.598 508.409 311.308C507.021 318.476 505.634 325.874 507.137 330.613C510.952 343.214 520.893 383.327 514.998 401.823Z" fill="url(#paint5_linear_2518_526)"/>
<path d="M470.49 281.022C468.064 274.78 458.468 275.705 459.393 284.49C460.318 293.275 466.445 302.64 457.081 317.667C447.718 332.58 469.103 335.586 476.733 344.949C484.363 354.313 487.021 367.26 493.495 375.467C499.968 383.675 504.361 403.326 509.563 396.044C514.881 388.761 509.91 379.166 510.488 365.988C511.066 352.81 522.857 344.486 511.066 335.932C499.275 327.377 487.484 324.834 491.414 305.645C492.917 297.09 478.12 300.327 470.49 281.022Z" fill="url(#paint6_linear_2518_526)"/>
<path d="M518.002 397.66C517.886 397.313 511.413 358.588 496.848 348.069C481.935 337.318 479.276 327.261 474.074 303.794L475.114 303.562C480.201 326.798 482.86 336.624 497.426 347.26C512.338 358.126 518.811 396.043 519.042 397.545L518.002 397.66Z" fill="white"/>
<path d="M504.825 396.274C504.825 396.274 509.217 385.524 501.241 370.265C493.38 355.005 486.907 357.318 505.981 345.641C525.054 333.966 506.096 296.974 522.28 292.235C538.464 287.495 552.567 227.73 564.821 235.359C577.19 242.989 560.659 272.352 569.56 281.137C578.346 289.923 579.502 301.136 561.352 310.153C543.203 319.169 574.299 353.849 549.677 364.369C525.054 375.003 532.106 416.389 504.825 396.274Z" fill="url(#paint7_linear_2518_526)"/>
<path d="M512.339 407.603C512.339 407.487 509.68 393.731 518.002 375.928C526.557 357.895 530.603 338.128 528.869 323.099C527.944 315.007 533.146 311.771 538.232 308.649C543.204 305.644 548.289 302.523 548.058 294.431C547.827 287.148 550.833 270.155 550.948 269.461L551.989 269.693C551.989 269.924 548.867 287.264 549.098 294.431C549.445 303.101 544.013 306.454 538.81 309.574C533.839 312.58 529.1 315.47 530.025 322.868C531.758 338.128 527.598 358.126 519.043 376.391C510.836 393.731 513.379 407.14 513.379 407.371L512.339 407.603Z" fill="white"/>
<path d="M532.221 331.769C537.77 326.683 545.052 325.874 543.549 333.503C542.047 341.133 536.845 343.329 539.388 348.068C542.047 352.808 546.324 357.663 538.926 363.558C531.527 369.454 527.366 370.148 525.17 381.245C522.973 392.342 523.436 399.972 513.84 400.435C504.246 400.897 507.945 386.91 511.067 380.667C511.067 380.667 515.69 373.501 512.569 364.021C509.564 354.542 503.668 349.455 516.037 346.218C528.521 342.982 528.521 335.237 532.221 331.769Z" fill="white"/>
<path d="M514.65 407.488C514.65 406.101 513.956 374.08 519.968 368.763C526.095 363.214 527.251 353.504 527.367 348.186C527.598 341.249 536.499 337.204 536.846 336.973L537.308 338.013C537.192 338.013 528.638 342.058 528.407 348.186C528.176 354.891 526.673 364.023 520.546 369.456C514.881 374.542 515.575 407.025 515.575 407.372L514.65 407.488Z" fill="url(#paint8_linear_2518_526)"/>
<path d="M537.076 394.426L527.25 432.111H505.055L495.113 394.426H537.076Z" fill="url(#paint9_linear_2518_526)"/>
<path d="M537.076 394.426C537.076 394.426 515.228 398.472 515.228 432.111H504.939L494.998 394.426H537.076Z" fill="url(#paint10_linear_2518_526)"/>
<path d="M146.12 296.051H116.873V299.404H146.12V296.051Z" fill="#1487E3"/>
<path d="M110.747 204.841H64.1602V145.192H65.2001V203.685H110.747V204.841ZM308.075 165.538H307.035V104.039H366.337V52.25H367.493V105.08H308.075V165.538ZM499.852 233.972H438.122V232.932H498.696V197.097H499.852V233.972Z" fill="#78C2FF"/>
<path d="M38.266 283.795C38.266 283.795 36.9941 302.291 40.5779 304.603C42.8897 305.99 51.9071 310.729 51.6752 311.538C51.4442 312.463 46.5885 319.4 46.5885 319.4C46.5885 319.4 29.2496 307.956 28.6706 304.372C28.0927 300.904 29.4796 277.206 31.9074 276.166C33.6423 275.356 34.6822 276.05 36.8781 277.668C39.9999 279.98 38.266 283.795 38.266 283.795Z" fill="#FF7E55"/>
<path d="M36.1844 418.816C36.1844 418.816 35.6064 422.516 35.6064 423.094C35.4914 423.672 29.5958 422.747 29.5958 422.747L29.1328 418.238C29.1328 418.354 35.4904 418.238 36.1844 418.816Z" fill="#424773"/>
<path d="M35.7211 422.632C35.7211 422.632 37.5709 424.944 39.4208 425.868C41.2707 426.909 44.1605 427.256 45.2005 428.296C46.0104 428.99 48.0912 432.227 40.4608 432.111C32.9472 431.996 29.2484 432.574 28.4385 431.302C27.6296 430.03 29.5945 422.285 29.5945 422.285C29.5945 422.285 31.3293 422.978 35.7211 422.632Z" fill="#292C47"/>
<path d="M66.0091 418.816C66.0091 418.816 65.4312 422.516 65.4312 423.094C65.3162 423.672 59.4196 422.747 59.4196 422.747L58.9576 418.238C58.8426 418.354 65.2002 418.238 66.0091 418.816Z" fill="#424773"/>
<path d="M65.43 422.632C65.43 422.632 67.2799 424.944 69.1288 425.868C70.9787 426.909 77.6833 427.717 78.7232 428.642C79.5331 429.336 80.8041 432.341 70.1697 432.11C62.6552 431.879 58.9555 432.573 58.1465 431.301C57.3376 430.029 59.3034 422.285 59.3034 422.285C59.3034 422.285 61.0373 423.094 65.43 422.632ZM38.3817 322.406C38.3817 322.406 32.8321 331.308 33.18 339.284C33.642 347.261 32.7171 355.93 31.7921 364.254C30.8672 373.617 28.3243 393.038 28.2093 398.008C28.0933 402.979 28.4394 421.822 28.4394 421.822L38.1507 421.707C38.1507 421.707 41.6185 383.674 43.2364 379.744C44.8553 375.814 51.7908 347.261 52.0218 344.14C52.2538 341.018 38.3817 322.406 38.3817 322.406Z" fill="#292C47"/>
<path d="M67.7422 323.562C67.7422 323.562 69.939 345.411 70.517 350.266C71.0949 355.121 70.748 376.507 70.979 379.513C71.21 382.633 69.1301 415.001 68.5521 421.244L57.9168 421.129C57.9168 421.129 57.2228 394.888 57.2228 382.055C57.2228 369.34 53.9861 354.427 50.1713 345.989C46.4716 337.55 37.8021 337.319 35.4902 321.713C35.4902 321.944 64.6214 318.592 67.7431 323.562H67.7422Z" fill="#292C47"/>
<path d="M44.277 247.498C44.277 247.498 50.9816 243.105 55.6063 247.845C60.229 252.585 62.5418 263.798 59.1891 265.994C55.8363 268.191 50.1726 268.769 47.3978 265.763C44.739 262.757 41.8492 258.133 41.1552 254.781C40.4622 251.429 42.5431 248.885 44.277 247.498Z" fill="#EEA886"/>
<path d="M56.9926 266.801C56.9926 266.801 56.8776 271.426 57.4556 272.466C57.9176 273.507 47.7452 273.507 47.7452 273.507C47.7452 273.507 46.9353 268.073 45.3174 263.45C43.6985 258.826 56.9926 266.801 56.9926 266.801Z" fill="#EEA886"/>
<path d="M45.5479 263.336C45.5479 263.336 46.4729 264.261 49.2477 263.221C51.9065 262.065 54.4493 257.556 55.6053 256.862C56.6462 256.169 56.5302 255.475 56.5302 255.475L57.5702 256.4L58.8421 256.169C58.8421 256.169 56.8772 253.047 58.2641 251.314C59.651 249.58 53.9873 240.91 45.6639 246.227C45.6639 246.227 39.1903 249.811 40.3462 253.625C41.3862 257.556 43.4671 261.833 45.5479 263.336Z" fill="#754836"/>
<path d="M58.0329 272.352C58.0329 272.352 58.0329 270.502 57.108 270.271C56.299 270.039 47.6286 269.23 46.4727 269.693V271.889C46.4727 271.889 48.5526 273.161 58.0319 272.352H58.0329Z" fill="#E2D2CA"/>
<path d="M55.836 254.202C55.4891 253.624 53.4082 252.121 53.1772 254.202C53.0622 256.399 55.2571 258.711 56.067 258.249C57.107 257.786 56.645 255.705 55.836 254.202Z" fill="#EEA886"/>
<path d="M42.3129 248.654C42.3129 248.654 32.8335 251.198 45.0868 262.988L42.3129 248.654Z" fill="#754836"/>
<path d="M127.392 299.287L117.681 299.171C118.49 298.709 119.877 297.784 119.53 297.437C119.068 296.859 116.409 298.131 115.253 298.247C114.213 298.362 112.479 298.247 111.208 298.709L108.086 299.981L110.861 302.524C110.861 302.524 115.946 303.218 117.449 303.333C119.877 303.449 127.276 300.674 127.392 300.212C127.738 299.518 127.392 299.287 127.392 299.287Z" fill="#EEA886"/>
<path d="M70.6335 275.009C64.5068 273.97 57.9173 272.351 57.9173 272.351L46.473 271.889C46.473 271.889 35.9537 274.201 31.792 276.05C31.445 276.281 31.445 285.414 30.2891 287.842L33.7568 295.124C33.7568 295.124 35.7217 309.574 36.1847 315.932C36.4157 318.822 32.1389 343.445 32.1389 343.445C32.1389 343.445 36.7626 344.832 44.6232 345.641C52.4846 346.45 72.0204 345.294 72.1364 344.369C72.2514 343.445 68.3216 309.921 68.2066 308.187C67.9746 305.528 69.0146 293.159 69.0146 293.159C70.5175 295.124 79.0719 302.638 83.2337 304.951C86.2395 306.684 93.522 305.644 95.6029 305.413C100.227 304.951 113.059 304.026 113.29 303.563C113.521 303.332 112.596 298.592 112.018 298.477C111.556 298.361 95.0249 297.552 90.8632 297.667C89.1293 297.783 83.6966 291.656 83.6966 291.656C83.6966 291.656 74.1012 276.512 70.6335 275.009Z" fill="#FF7E55"/>
<path d="M0 228.541H30.403V255.128L25.6633 250.505H0.000957955V228.541H0Z" fill="#FFCB55"/>
<path d="M489.217 158.486H459.739V129.008H489.217V158.486ZM460.664 157.446H488.176V129.933H460.664V157.446ZM562.74 139.759H495.229V132.592H562.74V139.759ZM496.154 138.718H561.699V133.517H496.154V138.718ZM562.739 173.283H459.739V166.115H562.739V173.283ZM460.664 172.358H561.698V167.155H460.664V172.358ZM525.284 187.154H459.739V179.988H525.284V187.154ZM460.664 186.114H524.243V180.912H460.664V186.114ZM540.89 153.515H495.112V146.348H540.89V153.515ZM496.153 152.474H539.965V147.273H496.153V152.474Z" fill="#6AAFE8"/>
<path d="M574.415 202.877H447.949V113.288H574.415V202.877ZM448.99 201.837H573.49V114.213H448.99V201.837ZM403.443 73.0593H393.964V72.0184H402.287V63.5799H403.443V73.0593ZM339.749 73.0593H330.27V63.5799H331.425V72.0184H339.749V73.0583V73.0593ZM331.425 9.47938H330.385V0H339.748V1.15593H331.425V9.47938ZM403.443 9.47938H402.287V1.15593H393.964V0H403.443V9.47938ZM403.443 23.5825H402.286V49.4768H403.443V23.5825ZM331.425 23.5825H330.27V49.4768H331.425V23.5825Z" fill="#6AAFE8"/>
<path d="M64.7372 145.77C62.5413 145.77 60.6914 143.92 60.6914 141.724C60.6914 139.527 62.5413 137.678 64.7372 137.678C66.934 137.678 68.7829 139.527 68.7829 141.724C68.7829 143.92 66.933 145.77 64.7381 145.77H64.7372ZM64.7372 138.718C64.3566 138.715 63.9792 138.787 63.6269 138.931C63.2746 139.075 62.9546 139.287 62.6855 139.556C62.4164 139.826 62.2037 140.146 62.0597 140.498C61.9158 140.85 61.8436 141.228 61.8473 141.608C61.8435 141.989 61.9156 142.366 62.0595 142.719C62.2033 143.071 62.4161 143.391 62.6852 143.66C62.9543 143.929 63.2744 144.142 63.6267 144.286C63.9791 144.43 64.3566 144.502 64.7372 144.498C65.1177 144.502 65.4952 144.43 65.8476 144.286C66.1999 144.142 66.52 143.929 66.7891 143.66C67.0583 143.391 67.271 143.071 67.4148 142.719C67.5587 142.366 67.6308 141.989 67.627 141.608C67.6307 141.228 67.5585 140.85 67.4146 140.498C67.2707 140.146 67.0579 139.826 66.7888 139.556C66.5198 139.287 66.1997 139.075 65.8474 138.931C65.4951 138.787 65.1177 138.715 64.7372 138.718ZM366.915 52.8278C364.718 52.8278 362.869 50.978 362.869 48.783C362.869 46.5862 364.718 44.7363 366.915 44.7363C369.111 44.7363 370.96 46.5862 370.96 48.7821C370.96 51.0939 369.111 52.8278 366.915 52.8278ZM366.915 45.8923C366.534 45.8884 366.157 45.9605 365.804 46.1044C365.452 46.2483 365.132 46.461 364.863 46.7301C364.594 46.9992 364.381 47.3193 364.237 47.6717C364.093 48.024 364.021 48.4015 364.025 48.7821C364.021 49.1626 364.093 49.5402 364.237 49.8925C364.381 50.2448 364.594 50.5649 364.863 50.8341C365.132 51.1032 365.452 51.3159 365.804 51.4598C366.157 51.6036 366.534 51.6757 366.915 51.6719C367.295 51.6756 367.673 51.6034 368.025 51.4595C368.377 51.3156 368.697 51.1029 368.966 50.8338C369.235 50.5647 369.448 50.2446 369.592 49.8923C369.736 49.5401 369.808 49.1626 369.805 48.7821C369.921 47.1642 368.533 45.8923 366.915 45.8923ZM499.275 197.79C497.079 197.79 495.229 195.941 495.229 193.744C495.229 191.547 497.079 189.698 499.275 189.698C501.472 189.698 503.322 191.547 503.322 193.744C503.322 195.941 501.472 197.79 499.275 197.79ZM499.275 190.738C498.895 190.734 498.517 190.806 498.165 190.95C497.813 191.094 497.493 191.307 497.224 191.576C496.954 191.845 496.742 192.165 496.598 192.518C496.454 192.87 496.382 193.247 496.385 193.628C496.382 194.008 496.454 194.386 496.598 194.738C496.741 195.091 496.954 195.411 497.223 195.68C497.492 195.949 497.812 196.162 498.165 196.306C498.517 196.45 498.895 196.522 499.275 196.519C499.656 196.522 500.034 196.45 500.386 196.306C500.738 196.162 501.058 195.949 501.328 195.68C501.597 195.411 501.81 195.091 501.954 194.738C502.098 194.386 502.17 194.008 502.166 193.628C502.166 192.126 500.894 190.738 499.275 190.738Z" fill="#78C2FF"/>
<path d="M91.5557 33.293H63.8125V5.54883H91.5557V33.293ZM64.8525 32.1371H90.3998V6.58974H64.8525V32.1371Z" fill="#A1D4FF"/>
<path d="M78.2634 13.0625H77.1074V26.0097H78.2634V13.0625Z" fill="#A1D4FF"/>
<path d="M84.1581 18.9599H71.2119V20.1159H84.1581V18.959V18.9599ZM515.112 66.8169H475.346V38.4967H515.112V66.8188V66.8169ZM476.502 65.6619H514.072V39.5366H476.502V65.6619Z" fill="#A1D4FF"/>
<path d="M495.231 55.6042L475.579 39.4203L476.273 38.6113L495.231 54.2173L514.19 38.6113L514.884 39.4203L495.231 55.6042Z" fill="#A1D4FF"/>
<path d="M500.77 50.7988L499.932 51.5944L514.173 66.6071L515.011 65.8115L500.77 50.7988ZM489.742 50.8496L475.511 65.8719L476.351 66.6665L490.581 51.6442L489.742 50.8487V50.8496ZM160.916 95.2532L160.454 94.2132C160.107 94.2132 159.76 94.0973 159.414 93.9813L158.604 94.7912L156.177 93.0564L156.639 92.0164C156.408 91.6694 156.177 91.4384 156.061 91.0915H154.905L154.442 88.0857L155.483 87.6237C155.483 87.2767 155.598 86.9297 155.714 86.5837L154.905 85.7738L156.639 83.3469L157.679 83.8089C158.026 83.5779 158.257 83.3469 158.604 83.231V82.075L161.61 81.6121L162.072 82.653C162.419 82.653 162.765 82.768 163.112 82.884L163.921 82.075L166.349 83.8089L165.887 84.8489C166.118 85.1958 166.349 85.4268 166.465 85.7738H167.621L168.083 88.7796L167.043 89.2426C167.043 89.5886 166.927 89.9355 166.811 90.2825L167.621 91.0915L165.887 93.5193L164.846 93.0564C164.499 93.2883 164.268 93.5193 163.921 93.6353V94.7912L160.916 95.2532ZM159.182 93.0573L159.414 93.1723L160.801 93.5193H161.032L161.379 94.4442L162.996 94.2132V93.1723L163.228 93.0573C163.69 92.8254 164.037 92.5944 164.384 92.3634L164.615 92.2484L165.54 92.5944L166.465 91.2074L165.771 90.5135L165.887 90.2825L166.233 88.8956V88.6636L167.158 88.3176L166.927 86.6987H165.887L165.771 86.4678C165.54 86.0048 165.308 85.6588 165.077 85.3118L164.962 85.0808L165.308 84.1559L163.921 83.231L163.228 83.9249L162.996 83.8089L161.61 83.462H161.379L161.032 82.537L159.414 82.769V83.8089L159.182 83.9239C158.72 84.1559 158.373 84.3869 158.026 84.6179L157.795 84.7329L156.87 84.3869L155.945 85.7738L156.639 86.4678L156.523 86.6987L156.177 88.0857V88.3176L155.252 88.6636L155.483 90.2825H156.523L156.639 90.5135C156.87 90.9764 157.101 91.3225 157.333 91.6694L157.448 91.9004L157.101 92.8254L158.489 93.7503L159.182 93.0564V93.0573ZM161.263 91.6694C160.57 91.6694 159.992 91.4394 159.414 91.0915C157.911 90.0515 157.564 87.9706 158.604 86.5837C159.645 85.0808 161.726 84.7339 163.112 85.7738C163.806 86.2368 164.268 87.0457 164.384 87.8547C164.499 88.6636 164.384 89.5895 163.806 90.2825C163.343 90.9764 162.534 91.4384 161.726 91.5544C161.61 91.6694 161.379 91.6694 161.263 91.6694ZM161.263 85.8898C160.454 85.8898 159.76 86.2368 159.298 86.9297C158.951 87.5077 158.72 88.0866 158.835 88.7796C158.951 89.4735 159.298 89.9355 159.876 90.3985C160.454 90.7445 161.032 90.9764 161.726 90.8605C162.419 90.7454 162.881 90.3985 163.343 89.8205C163.69 89.2426 163.921 88.6636 163.806 87.9706C163.69 87.2767 163.343 86.8147 162.765 86.3518C162.188 86.1217 161.726 85.8898 161.263 85.8898ZM137.912 98.721L136.987 96.2931C135.998 96.1859 135.027 95.953 134.097 95.6002L132.247 97.3341L127.162 93.7503L128.202 91.4384C127.624 90.6295 127.046 89.8196 126.584 88.8956L124.04 88.7796L123 82.537L125.427 81.6121C125.543 80.5721 125.774 79.6472 126.121 78.7223L124.387 76.8724L127.971 71.7867L130.283 72.8266C131.092 72.2487 131.9 71.6707 132.825 71.2087L132.941 68.6649L139.068 67.625L139.993 70.0528C141.033 70.1678 141.958 70.3998 142.883 70.7458L144.733 69.0119L149.819 72.5966L148.778 74.9075C149.356 75.7165 149.934 76.5264 150.397 77.4504L152.94 77.5663L153.98 83.8089L151.553 84.7339C151.445 85.7226 151.212 86.6937 150.859 87.6237L152.593 89.4735L149.009 94.5592L146.697 93.5193C145.889 94.0973 145.08 94.6752 144.155 95.1372L144.039 97.681L137.912 98.721ZM133.866 94.4442L134.213 94.5592C135.253 94.9062 136.409 95.2532 137.45 95.2532H137.796L138.606 97.45L142.999 96.7561L143.114 94.4442L143.461 94.3292C144.502 93.8663 145.426 93.2883 146.351 92.5944L146.582 92.3634L148.778 93.2883L151.321 89.7036L149.703 87.9706L149.819 87.6237C150.165 86.5837 150.512 85.4268 150.512 84.3869V84.0399L152.709 83.231L152.015 78.8382L149.703 78.7232L149.587 78.3753C149.125 77.3353 148.547 76.4104 147.853 75.4855L147.622 75.2545L148.547 73.0586L144.964 70.5148L143.23 72.1337L142.883 72.0177C141.843 71.6707 140.687 71.3237 139.646 71.3237H139.299L138.49 69.1279L134.097 69.8218L133.981 72.1337L133.635 72.2487C132.594 72.7116 131.669 73.2896 130.745 73.9835L130.514 74.2136L128.318 73.2896L125.774 76.8734L127.393 78.6072L127.277 78.9533C126.93 79.9942 126.584 81.1501 126.584 82.19V82.537L124.387 83.346L125.081 87.7397L127.393 87.8547L127.508 88.2016C127.971 89.2416 128.549 90.1665 129.243 91.0915L129.474 91.3225L128.549 93.5193L132.132 96.0621L133.866 94.4442ZM138.49 90.3975C137.103 90.3975 135.6 89.9355 134.328 89.1266C131.091 86.8147 130.399 82.422 132.71 79.1852C135.022 75.9484 139.415 75.2545 142.652 77.5663C145.889 79.8782 146.582 84.2709 144.386 87.5077C142.883 89.3576 140.687 90.3975 138.49 90.3975ZM138.49 77.2194C136.64 77.2194 134.791 78.1443 133.519 79.7632C132.594 81.0341 132.247 82.653 132.478 84.2709C132.71 85.8898 133.635 87.2767 134.906 88.2016C137.565 90.1665 141.38 89.4735 143.346 86.8147C144.27 85.5428 144.617 83.9249 144.386 82.306C144.155 80.6872 143.23 79.3002 141.958 78.3763C140.918 77.5663 139.762 77.2194 138.49 77.2194Z" fill="#A1D4FF"/>
<path d="M428.066 336.164H115.601L81.3838 464.017H462.283L428.066 336.164Z" fill="url(#paint11_linear_2518_526)"/>
<path d="M127.393 358.589H146.582C147.392 358.589 147.97 359.167 147.854 359.861L146.004 368.185C145.889 368.647 145.311 369.109 144.733 369.109H125.196C124.387 369.109 123.809 368.416 123.924 367.722L126.121 359.398C126.236 358.936 126.814 358.589 127.393 358.589ZM155.367 358.589H169.932L167.967 369.109H153.17L155.367 358.589ZM177.215 358.589H191.665L190.162 369.109H175.366L177.215 358.589ZM198.949 358.589H213.399L212.358 369.109H197.562L198.949 358.589ZM220.681 358.589H235.246L234.553 369.109H219.756L220.681 358.589ZM242.528 358.589H256.979L256.748 369.109H241.951L242.528 358.589ZM416.737 358.589H394.89L397.316 369.109H419.512L416.737 358.589ZM387.721 358.589H373.156L375.121 369.109H389.918L387.721 358.589ZM365.874 358.589H351.423L352.926 369.109H367.723L365.874 358.589ZM344.142 358.589H329.576L330.732 369.109H345.529L344.142 358.589ZM322.406 358.589H307.84L308.534 369.109H323.331L322.406 358.589ZM300.559 358.589H286.11L286.341 369.109H301.137L300.559 358.589ZM264.263 358.589H278.712L279.059 369.109H264.263V358.589ZM121.034 376.97H151.321L149.587 387.837H118.722L121.034 376.97ZM421.478 376.97H383.908L386.104 387.837H424.252L421.478 376.97ZM376.394 376.97H361.481L363.1 387.837H378.474L376.394 376.97ZM353.966 376.97H338.938L340.209 387.837H355.468L353.966 376.97ZM331.425 376.97H316.512L317.321 387.837H332.581L331.425 376.97ZM308.999 376.97H293.971L294.433 387.837H309.692L308.999 376.97ZM116.526 396.391H147.507L145.195 407.141H113.636L116.526 396.391ZM155.252 396.391H170.742L168.892 407.141H153.055L155.252 396.391ZM178.488 396.391H294.78L295.127 407.141H176.754L178.488 396.391ZM302.525 396.391H318.016L318.825 407.141H303.104L302.525 396.391ZM325.76 396.391H341.25L342.522 407.141H326.8L325.76 396.391ZM348.996 396.391H364.486L366.22 407.141H350.383L348.996 396.391ZM372.231 396.391H387.837L389.918 407.141H374.081L372.231 396.391ZM395.583 396.391H426.564L429.338 407.141H397.779L395.583 396.391ZM286.457 376.97H271.66V387.837H286.804L286.457 376.97ZM264.03 376.97H249.002L248.539 387.837H263.914L264.03 376.97ZM241.489 376.97H226.46L225.651 387.837H240.911L241.489 376.97ZM219.063 376.97H204.035L202.763 387.837H218.023L219.063 376.97ZM196.521 376.97H181.493L179.875 387.837H195.134L196.521 376.97ZM173.978 376.97H159.066L156.87 387.837H172.129L173.978 376.97ZM128.084 352.001L130.512 342.521H137.563L135.251 352.001H128.084ZM144.617 342.521H158.72L156.755 352.001H142.42L144.617 342.521ZM165.771 342.521H179.874L178.256 352.001H163.921L165.771 342.521ZM186.927 342.521H201.03L199.758 352.001H185.424L186.927 342.521ZM208.08 342.521H222.183L221.259 352.001H206.924L208.08 342.521ZM229.234 342.521H243.337L242.875 352.001H228.425L229.234 342.521ZM250.388 342.521H264.492L264.376 352.001H250.042L250.388 342.521ZM271.545 342.521H285.648L285.879 352.001H271.545V342.521ZM292.7 342.521H306.687L307.381 352.001H293.046L292.7 342.521ZM313.739 342.521H327.842L328.882 352.001H314.548L313.739 342.521ZM334.893 342.521H348.996L350.383 352.001H336.048L334.893 342.521ZM356.047 342.521H370.15L371.884 352.001H357.55L356.047 342.521ZM377.203 342.521H391.306L393.387 352.001H379.052L377.203 342.521ZM398.357 342.521H412.461L414.888 352.001H400.553L398.357 342.521Z" fill="white"/>
<path d="M452.342 473.957H91.3252C85.7765 473.957 81.3838 469.448 81.3838 464.016H462.283C462.283 469.448 457.776 473.957 452.342 473.957Z" fill="url(#paint12_linear_2518_526)"/>
<path d="M316.051 422.747C315.705 420.551 313.739 418.816 311.427 418.816H232.126C229.814 418.816 227.848 420.435 227.502 422.747L222.531 452.803C222.419 453.474 222.454 454.16 222.635 454.815C222.816 455.47 223.139 456.078 223.579 456.596C224.02 457.113 224.568 457.528 225.186 457.811C225.804 458.095 226.476 458.24 227.155 458.236H316.398C317.077 458.239 317.749 458.094 318.367 457.811C318.985 457.528 319.533 457.113 319.973 456.595C320.414 456.078 320.736 455.47 320.917 454.815C321.098 454.16 321.134 453.473 321.021 452.803L316.051 422.747Z" fill="#4D78EB"/>
<path d="M178.373 164.498H146.121V167.851H178.373V164.498ZM210.74 189.467H187.389V192.82H210.74V189.467Z" fill="#E0E0E0"/>
<path d="M229.814 189.467H214.324V192.82H229.814V189.467ZM161.957 252.007H146.467V255.359H161.957V252.007Z" fill="#1487E3"/>
<path d="M270.274 189.467H232.935V192.82H270.274V189.467ZM170.511 239.522H146.467V242.874H170.511V239.522ZM194.558 264.491H179.877V267.844H194.558V264.491Z" fill="#E0E0E0"/>
<path d="M175.482 264.49H146.467V267.843H175.482V264.49Z" fill="#1487E3"/>
<path d="M162.535 276.975H146.467V280.327H162.535V276.975Z" fill="#E0E0E0"/>
<path d="M207.504 164.498H184.615V167.851H207.504V164.498Z" fill="#78C2FF"/>
<path d="M207.504 201.836H184.615V205.189H207.504V201.836Z" fill="#1487E3"/>
<path d="M182.998 214.322H173.172V217.675H182.998V214.322Z" fill="#E0E0E0"/>
<path d="M185.424 226.922H163.46V230.275H185.424V226.922Z" fill="#78C2FF"/>
<path d="M219.18 226.922H188.778V230.274H219.18V226.922ZM169.355 214.438H146.467V217.789H169.355V214.438ZM160.108 226.922H146.467V230.274H160.108V226.922Z" fill="#1487E3"/>
<path d="M200.454 214.438H187.623V217.789H200.454V214.438ZM159.647 289.346H146.814V292.698H159.647V289.346Z" fill="#FF8761"/>
<path d="M169.24 189.467H146.352V192.82H169.24V189.467ZM189.471 252.007H166.581V255.359H189.471V252.007ZM189.818 276.977H166.929V280.33H189.818V276.977ZM230.508 276.977H207.62V280.33H230.508V276.977ZM179.066 201.837H146.352V205.189H179.066V201.837ZM322.409 164.498H299.521V167.851H322.409V164.498ZM240.68 289.346H217.791V292.698H240.68V289.346ZM344.952 164.498H329.577V167.851H344.952V164.498ZM396.855 176.983H381.48V180.336H396.855V176.983Z" fill="#78C2FF"/>
<path d="M242.992 164.498H213.745V167.851H242.992V164.498ZM356.859 176.983H327.612V180.336H356.859V176.983ZM321.021 189.467H291.775V192.82H321.021V189.467ZM282.99 201.837H253.743V205.189H282.99V201.837Z" fill="#1487E3"/>
<path d="M345.53 189.467H324.723V192.82H345.53V189.467Z" fill="#78C2FF"/>
<path d="M293.856 164.498H264.61V167.851H293.856V164.498ZM248.426 201.837H231.318V205.189H248.426V201.837ZM234.9 252.238H217.791V255.591H234.9V252.238Z" fill="#FF8761"/>
<path d="M259.177 164.498H248.426V167.851H259.177V164.498ZM224.496 201.837H213.745V205.189H224.496V201.837ZM374.661 176.983H363.909V180.336H374.661V176.983Z" fill="#E0E0E0"/>
<path d="M162.882 176.982H146.12V180.335H162.882V176.982ZM203.919 239.637H190.741V242.99H203.919V239.637ZM172.361 176.982H166.929V180.335H172.361V176.982Z" fill="#1487E3"/>
<path d="M322.409 176.982H277.788V180.335H322.409V176.982ZM279.638 276.976H235.017V280.329H279.638V276.976Z" fill="#E0E0E0"/>
<path d="M181.84 176.982H176.291V180.335H181.84V176.982Z" fill="#FF8761"/>
<path d="M273.627 176.982H259.062V180.335H273.627V176.982Z" fill="#1487E3"/>
<path d="M288.309 189.467H273.743V192.82H288.309V189.467ZM213.169 289.345H198.604V292.697H213.169V289.345Z" fill="#FF8761"/>
<path d="M255.246 176.982H224.15V180.335H255.246V176.982ZM213.399 252.238H195.25V255.59H213.399V252.238ZM203.226 276.976H194.094V280.329H203.226V276.976Z" fill="#1487E3"/>
<path d="M219.758 176.982H209.007V180.335H219.758V176.982Z" fill="#78C2FF"/>
<path d="M183.806 189.467H173.055V192.82H183.806V189.467ZM185.888 239.638H175.137V242.99H185.888V239.638Z" fill="#FF8761"/>
<path d="M204.96 176.982H186.35V180.335H204.96V176.982Z" fill="#1487E3"/>
<path opacity="0.76" d="M459.161 308.997H324.026C322.801 308.993 321.627 308.505 320.761 307.638C319.894 306.772 319.406 305.598 319.402 304.373V210.737C319.406 209.512 319.894 208.338 320.761 207.471C321.627 206.605 322.801 206.117 324.026 206.113H459.161C460.387 206.117 461.561 206.605 462.427 207.471C463.294 208.338 463.782 209.512 463.786 210.737V304.373C463.782 305.598 463.294 306.772 462.427 307.639C461.561 308.505 460.387 308.993 459.161 308.997Z" fill="white"/>
<path d="M448.182 266.109H424.946C423.905 266.109 423.212 265.3 423.212 264.375V260.791C423.212 259.751 424.021 259.057 424.946 259.057H448.182C449.222 259.057 449.916 259.866 449.916 260.791V264.375C449.916 265.3 449.222 266.109 448.182 266.109ZM448.182 279.518H424.946C423.905 279.518 423.212 278.709 423.212 277.784V274.2C423.212 273.16 424.021 272.466 424.946 272.466H448.182C449.222 272.466 449.916 273.275 449.916 274.2V277.784C449.916 278.709 449.222 279.518 448.182 279.518ZM448.182 292.928H424.946C423.905 292.928 423.212 292.118 423.212 291.194V287.61C423.212 286.569 424.021 285.876 424.946 285.876H448.182C449.222 285.876 449.916 286.685 449.916 287.61V291.194C449.916 292.118 449.222 292.928 448.182 292.928ZM410.147 242.988C404.137 226.342 388.184 216.054 371.422 216.517C367.376 216.632 363.214 217.441 359.169 218.829C346.915 223.222 338.129 232.932 334.546 244.491C332.002 252.468 332.002 261.253 335.008 269.808C335.355 270.617 335.586 271.426 335.933 272.235C337.551 275.934 339.632 279.287 342.06 282.177C352.464 294.431 369.804 299.633 385.872 293.852C406.795 286.569 417.546 263.797 410.147 242.988ZM382.751 284.605C377.034 286.65 370.83 286.905 364.965 285.335C359.099 283.765 353.852 280.446 349.92 275.819C348.071 273.622 346.452 271.079 345.296 268.421C345.065 267.843 344.834 267.149 344.602 266.571C342.291 260.213 342.291 253.624 344.256 247.613C346.915 238.943 353.504 231.66 362.752 228.423C365.695 227.402 368.772 226.818 371.885 226.689C384.485 226.342 396.391 233.972 400.9 246.457C406.333 261.947 398.241 279.056 382.751 284.605Z" fill="#4AAFFF"/>
<path d="M344.141 247.498L334.662 244.492C338.246 232.933 347.031 223.222 359.285 218.829C363.33 217.327 367.492 216.633 371.538 216.518L371.885 226.459C368.879 226.574 365.758 227.152 362.752 228.193C353.389 231.545 346.8 238.943 344.141 247.498Z" fill="#1A598C"/>
<path d="M345.298 268.421L336.165 272.351C335.818 271.542 335.472 270.733 335.241 269.924C332.235 261.484 332.235 252.584 334.779 244.607L344.258 247.613C342.408 253.624 342.408 260.213 344.604 266.571C344.72 267.149 344.951 267.727 345.298 268.421Z" fill="#2273B5"/>
<path d="M342.291 282.294C339.705 279.347 337.634 275.987 336.164 272.353L345.296 268.422C346.452 271.197 348.071 273.624 349.92 275.82L342.291 282.294Z" fill="#3788CC"/>
<path d="M385.987 280.097C385.987 280.097 384.022 276.745 387.143 267.613C390.149 258.827 400.321 259.636 403.558 265.301C406.795 270.965 405.755 274.432 400.899 280.675C396.16 287.034 387.952 282.987 385.987 280.097ZM409.801 435.925C409.801 435.925 410.264 439.625 410.379 440.203C410.495 440.781 416.043 439.856 416.043 439.856L416.506 435.463C416.39 435.347 410.495 435.347 409.801 435.925Z" fill="#EEA886"/>
<path d="M410.263 439.624C410.263 439.624 408.529 441.82 406.795 442.86C405.061 443.785 402.403 444.248 401.363 445.288C400.669 445.982 398.704 449.103 405.755 449.103C412.807 448.988 416.275 449.566 417.084 448.294C417.893 447.138 415.928 439.393 415.928 439.393C415.928 439.393 414.31 439.971 410.263 439.624Z" fill="#414773"/>
<path d="M371.075 435.925C371.075 435.925 371.537 439.625 371.653 440.203C371.769 440.781 377.318 439.856 377.318 439.856L377.78 435.463C377.78 435.347 371.769 435.347 371.075 435.925Z" fill="#EEA886"/>
<path d="M371.653 439.624C371.653 439.624 369.919 441.82 368.185 442.861C366.451 443.786 360.208 444.595 359.168 445.635C358.474 446.329 357.202 449.335 367.26 448.988C374.311 448.757 377.779 449.45 378.589 448.179C379.398 447.023 377.432 439.277 377.432 439.277C377.432 439.277 375.12 439.855 371.653 439.624Z" fill="#414773"/>
<path d="M407.835 343.33C407.835 343.33 410.724 352.232 410.263 359.861C409.916 367.491 411.764 375.929 412.458 383.905C413.267 392.807 416.735 413.962 416.851 418.701C416.967 423.441 416.273 438.7 416.273 438.7L409.338 438.815C409.338 438.815 403.557 401.939 402.054 398.125C400.552 394.31 393.038 367.491 392.807 364.485C392.807 361.479 407.835 343.33 407.835 343.33Z" fill="#2D314F"/>
<path d="M379.167 342.404C379.167 342.404 375.006 365.872 374.428 370.61C373.965 375.35 373.618 393.268 373.387 396.274C373.156 399.163 371.769 434.653 370.381 438.93H378.126C378.126 438.93 386.103 413.152 386.103 401.013C386.103 388.875 391.305 374.541 394.772 366.45C398.125 358.357 405.871 358.241 408.066 343.329C407.835 343.329 381.941 337.665 379.167 342.404Z" fill="#2D314F"/>
<path d="M388.762 282.525C388.762 282.525 389.687 285.068 388.762 286.917C387.838 288.767 399.86 287.611 399.86 287.611C399.86 287.611 399.282 283.912 400.9 280.791C402.519 277.669 388.762 282.525 388.762 282.525Z" fill="#EEA886"/>
<path d="M408.413 345.179C408.413 345.179 404.135 349.572 378.704 344.485L379.051 342.289L407.835 343.329L408.413 345.179Z" fill="#2B3B57"/>
<path d="M386.913 287.379C386.913 287.379 382.519 287.841 381.248 288.072C379.977 288.303 371.422 286.57 369.688 286.339C367.954 286.108 360.441 281.021 360.209 280.443C359.978 279.865 355.701 268.999 355.469 266.571C355.238 264.259 351.308 265.415 351.654 267.034C352.232 270.04 353.157 277.437 353.504 279.518C353.967 281.83 355.238 287.032 356.048 287.725C356.741 288.419 363.446 293.506 370.035 295.702C376.625 297.899 381.595 301.02 381.595 301.02H413.963C413.963 301.02 426.564 282.987 426.795 280.328C427.026 277.669 418.009 259.519 416.159 257.323C414.309 255.012 411.766 258.016 411.766 258.016C411.766 258.016 417.199 273.969 417.893 276.166C418.587 278.478 411.536 288.419 409.686 288.419C407.721 288.419 402.75 287.841 400.553 287.725C398.357 287.61 396.045 286.686 396.045 286.686L386.913 287.379Z" fill="#EEA886"/>
<path d="M372.925 299.404C372.925 299.404 376.855 302.062 377.202 306.57C377.549 311.079 379.052 318.245 379.745 320.673C380.438 323.101 379.167 340.903 378.936 342.175C378.705 343.447 404.021 346.453 407.836 343.447C407.836 343.447 408.876 326.916 409.339 322.176C409.801 317.437 411.997 306.108 412.69 304.489C413.384 302.986 422.17 290.617 422.517 288.999C422.517 288.999 418.008 281.717 414.771 281.717C414.771 281.717 409.57 287.727 407.951 288.074C406.217 288.305 395.928 286.456 395.928 286.456C395.928 286.456 394.773 287.958 388.762 286.225C388.762 286.225 381.594 287.034 380.438 287.149C379.052 287.38 369.225 285.879 369.225 285.879C369.225 285.879 365.294 292.467 365.988 295.82L372.925 299.404Z" fill="#FFC655"/>
<path d="M355.7 268.076C355.7 268.076 354.776 263.914 355.931 262.643C356.509 261.949 358.012 260.099 358.127 259.868C358.243 259.637 359.861 258.712 359.861 258.25C359.861 257.787 358.359 257.325 356.971 258.481C355.584 259.753 354.776 259.984 354.313 259.868C353.735 259.753 353.042 255.244 352.926 254.204C352.81 253.048 352.464 250.158 351.77 250.389C351.076 250.621 351.076 251.892 351.076 251.892C351.076 251.892 350.267 249.696 349.689 250.158C349.111 250.621 349.227 251.661 349.227 251.661C349.227 251.661 348.186 250.389 347.955 251.314C347.724 252.239 347.955 253.048 347.955 253.048C347.955 253.048 346.914 252.47 346.799 253.858C346.683 255.244 347.146 259.406 347.839 260.793C348.533 262.296 351.307 266.111 351.654 267.614C352.001 269.117 355.7 268.076 355.7 268.076ZM412.69 260.677C412.69 260.677 409.684 255.591 408.644 255.128C407.603 254.666 406.216 254.435 404.944 253.511C403.673 252.586 402.055 251.892 402.055 251.545C402.171 251.199 403.673 251.314 405.291 252.008C406.91 252.701 407.603 252.355 407.719 252.008C407.835 251.661 406.91 249.118 406.332 248.54C405.869 247.962 402.402 244.493 402.979 243.915C403.557 243.453 405.754 245.303 406.101 245.649C406.101 245.649 404.366 241.95 405.06 241.719C405.754 241.488 407.025 242.875 407.025 242.875C407.025 242.875 406.91 239.638 410.262 244.84C410.262 244.84 409.569 243.106 410.609 243.684C411.65 244.262 412.69 247.499 413.037 249.118C413.384 250.736 414.887 255.937 416.158 257.209C417.43 258.596 412.69 260.677 412.69 260.677Z" fill="#EEA886"/>
<path d="M400.899 280.676C400.899 280.676 399.282 280.791 395.929 279.636C392.577 278.48 392.345 272.584 391.536 273.278C390.033 274.665 388.646 273.74 388.068 272.931C388.068 272.931 389.687 270.734 388.993 269.694C388.184 268.653 387.028 267.844 387.028 267.844C387.028 267.844 389.455 256.4 400.206 261.602C412.807 267.728 400.899 280.676 400.899 280.676Z" fill="#353A3D"/>
<path d="M388.762 286.801L389.109 285.183C389.109 285.183 396.044 285.067 399.744 285.645L400.091 287.611C400.206 287.611 395.351 289.692 388.762 286.801Z" fill="#D4D8E8"/>
<path d="M390.494 271.889C391.072 270.849 393.383 270.155 393.73 273.045C393.961 275.357 389.569 277.785 389.569 275.704C389.453 273.623 390.031 272.583 390.494 271.889Z" fill="#EEA886"/>
<path d="M355.47 267.15C355.47 267.15 352.926 267.266 351.77 268.306C351.77 268.306 351.655 269 352.001 269.578C352.001 269.578 354.198 268.538 355.816 268.422C355.816 268.306 355.816 267.382 355.47 267.15Z" fill="#E55353"/>
<path d="M352.58 267.728C352.349 268.306 352.58 268.884 353.158 269.116C353.736 269.346 354.314 269.116 354.545 268.538C354.776 267.96 354.545 267.382 353.967 267.15C353.389 266.919 352.811 267.266 352.58 267.728Z" fill="#353A3D"/>
<path d="M291.428 179.295C291.428 179.295 295.012 185.306 296.515 186.346C298.596 187.733 297.324 189.005 296.284 189.005C295.359 189.005 290.388 189.352 289.232 188.08C288.191 186.809 287.614 183.109 286.574 182.184C285.533 181.259 284.493 177.33 287.036 176.405C289.347 175.596 291.428 179.295 291.428 179.295Z" fill="#6069A8"/>
<path d="M289.925 176.636C289.925 176.636 293.971 183.688 294.665 184.729C295.359 185.769 293.393 185.769 292.122 185.307C290.85 184.844 287.729 179.757 287.266 178.833C286.688 177.677 287.151 176.521 287.151 176.521L289.925 176.636Z" fill="#202338"/>
<path d="M285.763 180.449L286.688 187.617H287.15L287.035 182.415L285.763 180.449ZM256.17 179.293C256.17 179.293 259.753 185.305 261.256 186.345C263.337 187.732 262.065 189.004 261.025 189.004C260.1 189.004 255.13 189.351 253.974 188.079C252.933 186.808 252.355 183.108 251.315 182.183C250.274 181.258 249.234 177.213 251.777 176.404C254.089 175.71 256.17 179.293 256.17 179.293Z" fill="#6069A8"/>
<path d="M254.782 176.636C254.782 176.636 258.597 183.688 259.406 184.729C260.099 185.769 258.134 185.769 256.862 185.307C255.591 184.844 252.47 179.757 252.008 178.833C251.43 177.677 251.892 176.521 251.892 176.521L254.782 176.636Z" fill="#202338"/>
<path d="M250.391 180.449L251.431 187.617H251.894L251.778 182.415L250.391 180.449Z" fill="#6069A8"/>
<path d="M240.334 124.385L272.586 139.066C272.586 139.066 276.17 140.222 276.632 144.268C277.904 156.753 287.267 176.521 287.267 176.521C290.273 178.023 290.042 176.752 290.042 176.752C288.192 170.74 285.88 145.771 285.071 135.713C284.839 133.632 284.839 132.131 284.724 131.668C284.724 131.321 284.377 130.974 283.799 130.512C279.406 126.928 261.142 119.529 261.142 119.529C247.386 118.951 240.334 124.385 240.334 124.385Z" fill="#202338"/>
<path d="M234.207 130.627C235.246 139.296 247.616 138.371 247.616 138.371H262.644C262.644 138.371 258.713 147.157 257.21 154.555C255.592 162.417 251.777 176.404 251.777 176.404C251.777 176.404 252.008 176.866 254.783 176.635C254.783 176.635 266.574 153.052 271.082 147.157C272.007 145.886 274.897 138.949 275.36 134.788C275.475 133.401 275.475 132.361 274.897 131.898C274.319 131.436 273.163 130.627 271.545 129.586C266.805 126.58 258.598 122.072 254.089 121.031C247.963 119.644 238.252 117.102 238.252 117.102C238.252 117.102 233.282 121.956 234.207 130.627Z" fill="#202338"/>
<path d="M244.494 63.5809C244.494 63.5809 242.182 59.3032 243.338 54.7955C244.494 50.2868 248.656 45.6631 254.899 47.7439C261.141 49.8238 266.112 54.6795 262.412 60.2281C258.713 65.7778 265.765 68.3206 263.915 70.9785C262.066 73.6373 262.759 76.4131 263.569 76.9901C264.378 77.568 266.806 79.7649 266.574 82.4237C266.343 84.9665 254.552 74.7942 254.552 74.7942C254.552 74.7942 248.078 61.962 244.494 63.58V63.5809Z" fill="#464240"/>
<path d="M263.337 118.259C263.337 118.259 262.412 122.766 238.367 117.103C238.367 117.103 246.459 114.444 263.337 118.259Z" fill="#EB4747"/>
<path d="M238.136 118.372C237.789 119.066 237.443 119.76 236.98 120.453C245.765 120.684 254.551 120.916 263.337 121.262C261.949 116.638 262.412 110.281 262.643 105.541C262.99 99.6454 266.227 95.5997 265.88 89.704C267.614 89.935 267.961 90.051 269.695 90.282C267.036 82.6525 266.111 78.9527 257.787 76.0629C255.13 75.138 253.28 74.907 250.39 75.138C240.795 75.9479 237.905 76.0629 233.165 84.7324C240.564 85.8893 239.292 88.5471 241.604 95.8306C242.644 99.4144 243.8 103.344 243.222 107.159C242.644 110.859 238.136 115.02 238.136 118.372Z" fill="#325BB3"/>
<path d="M253.396 77.798C249.465 77.1051 250.274 74.9082 250.274 74.9082C250.274 74.9082 250.506 73.6373 250.506 72.1344V70.8625C250.506 70.1685 250.506 69.5906 250.39 68.8976C250.043 66.2388 257.557 67.8567 257.557 67.8567C257.557 67.8567 257.094 73.1743 258.135 74.7932C259.291 76.4111 257.325 78.608 253.396 77.798Z" fill="#EEA886"/>
<path d="M245.882 74.9084C245.882 74.9084 253.743 84.0408 256.749 86.1226C256.749 86.1226 260.1 83.1159 258.021 75.0234C258.021 75.1394 254.206 73.1745 245.882 74.9084ZM246.112 52.9448C246.112 52.9448 241.951 60.9213 246.112 68.3189C250.158 75.8334 258.251 65.083 258.713 63.8111C259.176 62.5392 261.949 55.3727 256.517 53.1758C251.083 51.0959 247.268 50.748 246.112 52.9448Z" fill="#EEA886"/>
<path d="M247.499 55.7201C247.499 55.7201 244.725 59.4189 244.378 62.1927C244.378 62.1927 243.222 56.991 246.459 52.0203C249.696 47.0496 257.788 51.7893 258.828 53.7552C259.868 55.7201 263.105 57.454 257.788 66.1234C257.673 66.1234 248.077 59.4189 247.499 55.7201Z" fill="#464240"/>
<path d="M254.088 69.1299C254.088 69.1299 253.395 70.6328 250.62 72.1357V70.8638C250.62 70.8638 252.47 70.6328 254.088 69.1289V69.1299Z" fill="#A77860"/>
<path d="M212.589 111.207C212.589 111.207 210.624 112.132 209.7 111.669C208.775 111.322 207.387 111.207 206.925 111.207C206.347 111.207 204.382 110.513 204.497 111.322C204.497 112.016 207.619 112.594 208.197 112.825C208.775 113.056 206.347 114.443 206.116 115.021C205.885 115.599 208.659 119.645 210.278 118.489C211.896 117.333 212.705 115.136 213.051 114.905C213.398 114.79 214.207 114.096 214.207 114.096L212.589 111.207Z" fill="#EEA886"/>
<path d="M206.347 114.674C206.347 114.674 201.723 118.489 201.723 118.951C201.607 119.414 201.839 119.76 202.301 119.414C202.763 119.067 206.81 115.83 206.81 115.83C206.81 115.83 202.185 121.263 202.07 121.609C201.954 121.841 202.417 122.303 202.648 122.187C202.879 122.072 207.735 116.87 207.735 116.87C207.735 116.87 203.457 121.956 203.457 122.303C203.457 122.65 203.92 122.997 204.266 122.65C204.613 122.303 208.89 117.795 208.89 117.795C208.89 117.795 206 121.725 206.232 122.072C206.347 122.303 206.694 122.765 207.388 121.725C208.081 120.684 210.046 118.489 210.046 118.489L206.347 114.674Z" fill="#EEA886"/>
<path d="M261.141 138.371H247.616C247.616 138.371 235.131 139.412 234.206 130.627C233.166 121.956 238.251 117.102 238.251 117.102C238.251 117.102 244.841 118.835 250.506 120.222C253.395 119.644 256.863 119.182 260.909 119.297C260.909 119.297 285.185 127.274 284.491 131.552C284.607 131.552 274.434 126.118 261.141 138.371Z" fill="#FF7E55"/>
<path d="M252.354 123.23L278.132 122.883L265.07 129.472L252.354 123.23Z" fill="#5E5853"/>
<path d="M260.33 119.992C260.33 119.992 254.551 122.188 247.499 120.223L247.152 117.564L261.717 118.373L260.33 119.992Z" fill="#325BB3"/>
<path d="M265.07 129.473L252.354 124.501V123.23L266.11 128.201L265.07 129.473Z" fill="#91887F"/>
<path d="M260.332 121.264C260.216 122.188 261.256 122.882 262.066 122.535L263.568 121.842C264.031 121.61 264.262 121.148 264.147 120.685C263.568 116.755 262.181 101.611 264.147 99.0685C264.84 98.1435 265.303 97.2186 265.534 96.5256C266.805 99.8774 268.424 104.155 269.118 106.467L281.255 122.651L285.301 123.691C280.215 111.438 276.169 104.964 276.169 104.964C275.359 102.883 273.047 96.4097 271.082 90.63C269.81 87.0453 268.655 83.6935 267.962 81.8446C267.615 80.9196 267.037 80.1097 266.227 79.6477C264.378 78.4918 261.256 76.7579 258.366 75.371C258.251 75.371 258.135 75.255 258.135 75.255C263.453 83.3465 261.372 106.351 260.332 121.264C260.332 121.148 260.332 121.148 260.332 121.264ZM240.217 75.833C238.483 76.064 234.206 80.2257 231.894 84.5034C229.235 89.3581 226.692 94.7917 224.611 96.5256C220.913 99.8774 210.739 111.554 210.277 111.207C210.046 111.091 213.051 114.674 213.514 114.905C213.745 115.021 230.276 100.571 231.894 98.3745C233.397 96.2937 237.443 87.6242 238.714 87.7402C238.83 87.9702 240.333 91.092 241.72 95.8317C241.72 95.9477 241.72 95.9477 241.836 96.0627C242.76 99.2995 242.76 102.883 242.182 106.814C241.835 109.819 239.523 114.674 238.252 117.102C238.137 117.333 238.137 117.911 238.252 118.373C238.368 118.605 238.483 118.836 238.714 118.836L243.57 120.685L244.726 121.148C245.535 121.495 246.46 121.264 247.038 120.801C247.616 120.454 247.963 119.876 248.078 119.067C249.119 110.744 250.506 102.189 251.662 98.9525C256.517 84.8494 249.812 74.3301 249.812 74.3301C249.812 74.3301 241.72 75.255 240.217 75.833Z" fill="#EDDAD3"/>
<path d="M265.071 129.472L272.817 108.549L297.439 109.011L290.157 128.201L265.071 129.472Z" fill="#6E6760"/>
<path d="M280.677 117.796C279.868 119.299 280.099 120.918 281.14 121.496C282.18 121.958 283.568 121.265 284.377 119.762C285.186 118.259 284.955 116.64 283.914 116.062C282.874 115.484 281.371 116.293 280.677 117.796Z" fill="#807066"/>
<path d="M254.667 60.8064C254.667 60.8064 256.286 63.2332 254.783 65.4291C253.28 67.51 255.13 69.5908 255.477 71.9027C255.823 74.0995 249.349 80.1111 256.517 83.1169C263.684 86.1218 265.88 81.1511 264.146 78.3763C262.297 75.6024 261.026 73.4056 260.91 69.5908C260.679 65.6611 259.407 59.5335 254.667 60.8054V60.8064Z" fill="#464240"/>
<path d="M202.996 31.3262H233.398V57.9144L228.774 53.2907H202.996V31.3262Z" fill="#78C2FF"/>
<defs>
<linearGradient id="paint0_linear_2518_526" x1="106.023" y1="253.831" x2="453.317" y2="253.831" gradientUnits="userSpaceOnUse">
<stop stop-color="#40D5E6"/>
<stop offset="1" stop-color="#5577FF"/>
</linearGradient>
<linearGradient id="paint1_linear_2518_526" x1="126.504" y1="238.459" x2="416.462" y2="238.459" gradientUnits="userSpaceOnUse">
<stop stop-color="#404B61"/>
<stop offset="0.486" stop-color="#3C4860"/>
<stop offset="1" stop-color="#2F3E5C"/>
</linearGradient>
<linearGradient id="paint2_linear_2518_526" x1="509.142" y1="345.517" x2="583.748" y2="345.517" gradientUnits="userSpaceOnUse">
<stop stop-color="#3076A1"/>
<stop offset="1" stop-color="#639C38"/>
</linearGradient>
<linearGradient id="paint3_linear_2518_526" x1="502.661" y1="334.641" x2="600.07" y2="334.641" gradientUnits="userSpaceOnUse">
<stop stop-color="#3076A1"/>
<stop offset="1" stop-color="#639C38"/>
</linearGradient>
<linearGradient id="paint4_linear_2518_526" x1="480.281" y1="319.904" x2="543.112" y2="319.904" gradientUnits="userSpaceOnUse">
<stop stop-color="#3076A1"/>
<stop offset="1" stop-color="#639C38"/>
</linearGradient>
<linearGradient id="paint5_linear_2518_526" x1="497.746" y1="333.491" x2="516.796" y2="333.491" gradientUnits="userSpaceOnUse">
<stop stop-color="#3076A1"/>
<stop offset="1" stop-color="#639C38"/>
</linearGradient>
<linearGradient id="paint6_linear_2518_526" x1="454.628" y1="337.267" x2="516.129" y2="337.267" gradientUnits="userSpaceOnUse">
<stop stop-color="#3076A1"/>
<stop offset="1" stop-color="#639C38"/>
</linearGradient>
<linearGradient id="paint7_linear_2518_526" x1="495.808" y1="476.609" x2="547.552" y2="275.386" gradientUnits="userSpaceOnUse">
<stop stop-color="#3076A1"/>
<stop offset="1" stop-color="#639C38"/>
</linearGradient>
<linearGradient id="paint8_linear_2518_526" x1="514.617" y1="372.301" x2="537.353" y2="372.301" gradientUnits="userSpaceOnUse">
<stop stop-color="#3076A1"/>
<stop offset="1" stop-color="#639C38"/>
</linearGradient>
<linearGradient id="paint9_linear_2518_526" x1="495.093" y1="413.294" x2="537.126" y2="413.294" gradientUnits="userSpaceOnUse">
<stop stop-color="#FF9340"/>
<stop offset="1" stop-color="#FFCE45"/>
</linearGradient>
<linearGradient id="paint10_linear_2518_526" x1="495.093" y1="413.294" x2="537.126" y2="413.294" gradientUnits="userSpaceOnUse">
<stop stop-color="#C97332"/>
<stop offset="1" stop-color="#FFCE45"/>
</linearGradient>
<linearGradient id="paint11_linear_2518_526" x1="271.808" y1="323.821" x2="271.808" y2="516.383" gradientUnits="userSpaceOnUse">
<stop stop-color="#40D5E6"/>
<stop offset="1" stop-color="#5577FF"/>
</linearGradient>
<linearGradient id="paint12_linear_2518_526" x1="-95.1666" y1="468.966" x2="285.717" y2="468.966" gradientUnits="userSpaceOnUse">
<stop stop-color="#40D5E6"/>
<stop offset="1" stop-color="#5577FF"/>
</linearGradient>
</defs>
</svg>
