<svg width="600" height="461" viewBox="0 0 600 461" fill="none" xmlns="http://www.w3.org/2000/svg">
<path d="M0 406.998H600V406.7H0V406.998ZM312.253 14.0642C310.517 14.0663 308.852 14.7571 307.625 15.9849C306.397 17.2128 305.707 18.8775 305.705 20.6138V346.331C305.707 348.067 306.397 349.732 307.625 350.96C308.852 352.188 310.517 352.879 312.253 352.881H543.973C545.709 352.879 547.374 352.188 548.602 350.96C549.83 349.732 550.52 348.067 550.522 346.331V20.6138C550.52 18.8774 549.83 17.2127 548.602 15.9849C547.374 14.757 545.709 14.0663 543.973 14.0642H312.253ZM543.973 353.181H312.253C310.437 353.179 308.697 352.456 307.413 351.172C306.129 349.888 305.407 348.147 305.405 346.331V20.6138C305.408 18.7982 306.13 17.0576 307.414 15.7735C308.697 14.4895 310.438 13.7667 312.253 13.7637H543.973C545.789 13.7664 547.529 14.489 548.813 15.7731C550.097 17.0572 550.819 18.798 550.822 20.6138V346.331C550.82 348.147 550.097 349.888 548.814 351.172C547.53 352.456 545.789 353.179 543.973 353.181ZM209.324 418.427H240.521V418.128H209.324V418.427ZM62.9508 415.171H127.873V414.87H62.9508V415.171V415.171ZM176.543 429.571H208.124V429.27H176.543V429.571ZM309.872 427.553H356.471V427.254H309.872V427.553ZM367.154 427.553H379.987V427.254H367.154V427.553ZM474.415 422.488H539.881V422.188H474.415V422.488Z" fill="#ECECEC"/>
<path d="M457.272 396.051H512.054V245.482H457.272V396.051ZM218.086 396.051H501.534V406.699H218.086V396.051Z" fill="#F0F0F0"/>
<path d="M457.271 396.051H207.568V245.482H457.271V396.051Z" fill="#F5F5F5"/>
<path d="M458.23 310.788H207.567V255.676H458.23V310.788ZM458.23 375.949H207.567V320.837H458.23V375.949Z" fill="#F0F0F0"/>
<path d="M457.271 310.788H466.748V255.676H457.271V310.788ZM457.271 375.949H466.748V320.837H457.271V375.949Z" fill="#E7E7E7"/>
<path d="M200.268 236.221H457.27V245.484H200.268V236.221Z" fill="#F0F0F0"/>
<path d="M519.709 236.221H457.27V245.484H519.709V236.221Z" fill="#E7E7E7"/>
<path d="M140.656 406.699H149.107V131.688H140.656V406.699V406.699Z" fill="#F0F0F0"/>
<path d="M138.905 404.785L138.675 403.607C138.765 403.588 140.981 403.098 142.666 400.113C144.864 396.224 146.199 387.937 140.09 370.556C130.678 343.78 136.295 322.169 147.488 279.119C149.437 271.619 151.647 263.12 153.94 253.945C162.541 219.544 154.585 198.206 148.192 181.06C143.229 167.751 139.311 157.239 144.328 145.061L145.436 145.518C140.6 157.26 144.446 167.578 149.318 180.642C155.769 197.943 163.794 219.473 155.106 254.236C152.81 263.417 150.6 271.919 148.65 279.42C137.518 322.236 131.931 343.727 141.223 370.158C147.505 388.03 146.026 396.667 143.677 400.765C141.705 404.206 139.018 404.762 138.905 404.785V404.785Z" fill="#F0F0F0"/>
<path d="M129.589 406.699H160.172L151.668 401.688H138.092L129.589 406.699V406.699Z" fill="#F0F0F0"/>
<path d="M84.3781 166.712H205.384L192.068 65.0234H97.6941L84.377 166.712H84.3781Z" fill="#F5F5F5"/>
<path d="M263.854 183.473H328.463L319.959 236.22H272.359L263.854 183.473V183.473Z" fill="#F0F0F0"/>
<path d="M289.81 200.635C307.426 194.26 320.921 184.686 305.823 165.313C290.727 145.943 267.334 146.025 251.573 154.6C231.481 165.53 235.51 197.143 235.51 197.143C235.51 197.143 272.194 207.012 289.81 200.635V200.635Z" fill="#E1E1E1"/>
<path d="M306.94 182.986C293.461 173.811 283.905 163.183 299.543 151.978C315.183 140.772 334.464 146.515 346.054 156.927C360.826 170.198 352.3 193.492 352.3 193.492C352.3 193.492 320.418 192.158 306.94 182.986V182.986Z" fill="#E7E7E7"/>
<path d="M283.216 159.733C298.983 158.776 312.205 154.664 304.74 137.585C297.273 120.507 278.375 115.731 263.568 118.655C244.692 122.382 240.245 145.997 240.245 145.997C240.245 145.997 267.447 160.69 283.216 159.733Z" fill="#F0F0F0"/>
<path d="M302.997 149.658C289.88 145.44 279.596 139.109 289.597 126.292C299.598 113.475 316.597 113.525 328.477 119.197C343.62 126.427 342.272 147.34 342.272 147.34C342.272 147.34 316.112 153.875 302.997 149.658Z" fill="#ECECEC"/>
<path d="M278.415 127.778C291.499 132.093 303.54 133.028 303.003 116.78C302.467 100.532 288.697 90.5641 275.755 88.153C259.259 85.0813 248.033 102.78 248.033 102.78C248.033 102.78 265.331 123.462 278.415 127.778V127.778Z" fill="#F5F5F5"/>
<path d="M311.623 120.808C302.258 121.446 294.15 120.03 297.249 109.395C300.347 98.7583 311.122 94.505 320.071 95.0992C331.48 95.8562 335.902 109.435 335.902 109.435C335.902 109.435 320.99 120.169 311.623 120.808Z" fill="#FAFAFA"/>
<path d="M532.667 447.307C532.667 454.812 428.498 460.895 300 460.895C171.501 460.895 67.334 454.812 67.334 447.307C67.334 439.803 171.501 433.721 300 433.721C428.498 433.721 532.667 439.803 532.667 447.307Z" fill="#104065"/>
<path d="M503.117 263.755H95.4131V249.123H503.117V263.755Z" fill="#3E4A61"/>
<path opacity="0.3" d="M204.525 263.755H95.4131V249.123H204.525V263.755Z" fill="#3E4A61"/>
<path d="M206.27 263.756H196.773L201.747 447.086H210.793L215.767 263.756H206.27Z" fill="#3E4A61"/>
<path opacity="0.3" d="M201.748 447.088H206.27V267.695L196.928 269.403L201.748 447.088Z" fill="#3E4A61"/>
<path d="M116.303 263.756H106.806L111.78 447.086H120.826L125.8 263.756H116.303Z" fill="#3E4A61"/>
<path opacity="0.3" d="M111.78 447.088H116.303V267.695L106.959 269.403L111.78 447.088Z" fill="#3E4A61"/>
<path d="M482.224 263.756H472.728L477.701 447.086H486.747L491.721 263.756H482.224V263.756Z" fill="#3E4A61"/>
<path opacity="0.3" d="M477.702 447.088H482.225V267.695L472.882 269.403L477.702 447.088Z" fill="#3E4A61"/>
<path d="M392.257 263.756H382.76L387.734 447.086H396.78L401.754 263.756H392.257V263.756Z" fill="#3E4A61"/>
<path opacity="0.3" d="M387.734 447.088H392.257V267.695L382.913 269.403L387.734 447.088V447.088Z" fill="white"/>
<path d="M288.936 170.816H191.934C188.453 170.816 186.201 173.665 186.932 177.147L199.85 238.767C200.58 242.248 204.026 245.096 207.507 245.096H304.51C307.991 245.096 310.243 242.248 309.514 238.767L296.594 177.147C295.865 173.665 292.418 170.816 288.936 170.816V170.816Z" fill="#1A2E35"/>
<path d="M208.406 241.583C206.127 241.583 203.707 239.565 203.227 237.265L190.308 175.645C190.108 174.695 190.267 173.843 190.756 173.24C191.214 172.676 191.951 172.365 192.832 172.365H289.834C292.111 172.365 294.532 174.383 295.015 176.685L307.933 238.304C308.132 239.253 307.972 240.107 307.485 240.707C307.019 241.279 306.302 241.583 305.407 241.583H208.406Z" fill="white"/>
<path opacity="0.4" d="M281.594 236.654L269.354 178.273C269.282 177.927 269.287 177.569 269.371 177.225C269.454 176.881 269.613 176.56 269.836 176.286C270.059 176.011 270.34 175.79 270.659 175.638C270.979 175.485 271.328 175.406 271.682 175.406H287.421C288.545 175.406 289.518 176.195 289.749 177.295L301.989 235.679C302.061 236.025 302.055 236.383 301.972 236.726C301.888 237.07 301.729 237.39 301.507 237.665C301.284 237.939 301.002 238.161 300.683 238.313C300.364 238.465 300.015 238.544 299.661 238.544H283.922C283.376 238.544 282.846 238.356 282.422 238.012C281.998 237.668 281.706 237.188 281.594 236.654V236.654Z" fill="#007CFF"/>
<path d="M198.388 180.472L197.856 177.939H217.295L217.825 180.472H198.388Z" fill="#007CFF"/>
<path d="M207.361 186.751L206.83 184.219H240.904L241.436 186.751H207.361ZM209.154 193.033L208.624 190.501H246.813L247.344 193.033H209.154V193.033ZM210.949 199.314L210.418 196.782H241.169L241.7 199.314H210.949Z" fill="#ECECEC"/>
<path d="M204.294 209.506L203.764 206.975H216.06L216.59 209.506H204.294Z" fill="#007CFF"/>
<path d="M213.267 215.787L212.737 213.256H227.718L228.25 215.787H213.267ZM231.838 215.787L231.307 213.256H246.289L246.819 215.787H231.838ZM215.062 222.069L214.531 219.537H265.173L265.704 222.069H215.062ZM216.856 228.35L216.326 225.818H254.937L255.469 228.35H216.856Z" fill="#ECECEC"/>
<path d="M334.226 244.727H206.588C203.106 244.727 200.855 246.704 201.585 249.122H341.885C341.154 246.704 337.709 244.727 334.226 244.727V244.727Z" fill="#1A2E35"/>
<path opacity="0.1" d="M164.649 155.238L152.409 96.8567C152.336 96.5104 152.342 96.1522 152.425 95.8083C152.509 95.4644 152.668 95.1435 152.891 94.8688C153.114 94.5942 153.395 94.3728 153.715 94.2208C154.034 94.0688 154.384 93.99 154.738 93.9902H253.861C254.988 93.9902 255.958 94.7794 256.189 95.8794L268.429 154.262C268.501 154.608 268.496 154.966 268.412 155.309C268.329 155.653 268.17 155.974 267.947 156.248C267.724 156.523 267.443 156.744 267.124 156.896C266.804 157.048 266.455 157.127 266.102 157.127H166.975C166.43 157.127 165.9 156.939 165.477 156.595C165.053 156.251 164.761 155.772 164.649 155.238Z" fill="#007CFF"/>
<path d="M199.883 95.9148H179.078L178.611 93.6758H199.416L199.883 95.9148Z" fill="#007CFF"/>
<path opacity="0.4" d="M196.498 99.4828H188.148L187.68 97.2461H196.031L196.498 99.4828V99.4828ZM210.396 99.4828H197.528L197.061 97.2461H209.929L210.396 99.4828ZM216.006 103.054H188.892L188.425 100.815H215.539L216.006 103.054ZM212.554 106.624H189.635L189.169 104.384H212.088L212.554 106.624ZM227.757 144.559H213.168L213.635 146.799H228.224L227.757 144.559Z" fill="#007CFF"/>
<path d="M209.566 139.66H188.197L187.73 137.422H209.099L209.566 139.66Z" fill="#007CFF"/>
<path opacity="0.4" d="M218.164 148.131H198.29L198.756 150.37H218.631L218.164 148.131ZM212.136 144.561H197.546L198.013 146.801H212.602L212.136 144.561ZM225.979 140.992H196.801L197.268 143.231H226.446L225.979 140.992Z" fill="#007CFF"/>
<path d="M199.153 79.2594H175.603L175.139 77.0215H198.687L199.153 79.2594Z" fill="#007CFF"/>
<path opacity="0.4" d="M210.776 87.731H184.814L185.281 89.9711H211.243L210.776 87.731ZM205.58 84.1625H184.07L184.536 86.4016H206.047L205.58 84.1625V84.1625ZM207.017 80.5918H183.325L183.792 82.8308H207.484L207.017 80.5929V80.5918Z" fill="#007CFF"/>
<path d="M198.882 112.433H182.522L182.055 110.195H198.415L198.882 112.432V112.433Z" fill="#007CFF"/>
<path opacity="0.4" d="M224.588 120.903H192.614L193.081 123.141H225.054L224.588 120.903ZM205.115 117.333H191.868L192.335 119.572H205.582L205.115 117.333ZM219.491 117.333H206.245L206.712 119.572H219.958L219.491 117.333ZM220.303 113.764H191.125L191.592 116.002H220.77L220.303 113.764ZM220.246 131.612H194.846L195.313 133.851H220.713L220.246 131.612ZM201.489 128.042H194.103L194.57 130.28H201.955L201.489 128.042ZM213.05 128.042H202.506L202.973 130.28H213.516L213.05 128.042ZM222.536 124.473H193.357L193.824 126.712H223.002L222.536 124.473ZM245.526 123.875H235.069L234.602 121.636H245.059L245.526 123.875ZM262.924 123.875H246.816L246.349 121.636H262.457L262.924 123.875ZM269.759 127.445H235.815L235.348 125.206H269.292L269.759 127.445ZM265.253 131.014H236.558L236.092 128.776H264.786L265.253 131.014ZM278.099 109.672H245.595L246.061 111.91H278.566L278.099 109.672ZM271.781 106.102H244.85L245.317 108.341H272.248L271.781 106.102Z" fill="#007CFF"/>
<path d="M266.911 102.533H237.25L237.717 104.772H267.378L266.911 102.533Z" fill="#007CFF"/>
<path opacity="0.4" d="M279.564 145.295H239.533L240 147.533H280.031L279.564 145.295ZM255.374 141.725H238.79L239.257 143.963H255.841L255.374 141.725ZM273.371 141.725H256.787L257.254 143.963H273.838L273.371 141.725ZM274.577 138.154H238.046L238.513 140.393H275.044L274.577 138.154ZM273.567 156.005H241.766L242.232 158.242H274.034L273.567 156.005ZM250.27 152.434H241.022L241.49 154.673H250.737L250.27 152.434V152.434ZM264.744 152.434H251.544L252.011 154.673H265.211L264.744 152.434ZM276.809 148.864H240.279L240.746 151.103H277.276L276.809 148.864ZM179.519 158.772H154.635L155.102 161.011H179.986L179.519 158.772ZM172.157 155.203H153.892L154.359 157.442H172.624L172.157 155.203ZM191.718 155.203H173.452L173.919 157.442H192.184L191.718 155.203ZM189.677 151.633H153.147L153.614 153.871H190.144L189.677 151.633Z" fill="#007CFF"/>
<path d="M469.141 225.816H453.736L455.53 249.123H467.347L469.141 225.816V225.816Z" fill="#007CFF"/>
<path opacity="0.4" d="M469.141 225.816H453.736L455.53 249.123H467.347L469.141 225.816V225.816Z" fill="white"/>
<path d="M133.36 209.631H155.509L147.948 249.125H125.799L133.36 209.631V209.631Z" fill="#1A2E35"/>
<path d="M161.572 199.043H130.285L139.042 249.124H170.328L161.572 199.043Z" fill="#4BA3F4"/>
<path d="M128.435 199.043H130.285L139.041 249.124H137.191L128.435 199.043Z" fill="#007CFF"/>
<path opacity="0.3" d="M128.435 199.043H130.285L139.041 249.124H137.191L128.435 199.043Z" fill="#4BA3F4"/>
<path d="M143.541 243.77L136.656 204.395H157.075L163.958 243.77H143.541Z" fill="white"/>
<path opacity="0.6" d="M162.99 243.77L156.105 204.395H157.075L163.959 243.77H162.99Z" fill="#007CFF"/>
<path d="M316.523 134.978C316.968 135.939 316.818 136.954 316.19 137.245C315.561 137.536 314.691 136.992 314.246 136.029C313.801 135.068 313.95 134.052 314.578 133.762C315.207 133.472 316.076 134.014 316.523 134.978Z" fill="#1A2E35"/>
<path d="M316.906 136.914C316.906 136.914 317.286 143.474 316.117 147.264C318.552 148.064 321.11 146.001 321.11 146.001L316.906 136.914Z" fill="#FF5551"/>
<path d="M316.64 127.094C316.538 127.175 316.413 127.222 316.283 127.229C313.541 127.383 312.381 129.301 312.333 129.382C312.25 129.525 312.114 129.629 311.955 129.672C311.795 129.714 311.625 129.692 311.483 129.609C311.34 129.527 311.236 129.391 311.193 129.231C311.15 129.072 311.173 128.902 311.255 128.759C311.316 128.654 312.776 126.18 316.215 125.987C316.346 125.981 316.476 126.016 316.586 126.088C316.696 126.16 316.781 126.264 316.828 126.387C316.875 126.51 316.882 126.644 316.848 126.771C316.815 126.898 316.741 127.011 316.64 127.094V127.094Z" fill="#1A2E35"/>
<path d="M351.862 133.529C355.571 146.374 359.706 156.354 364.767 162.02C364.767 162.02 364.857 172.116 347.657 176.917C328.744 182.197 335.998 170.052 335.998 170.052C345.633 164.705 344.683 156.641 337.46 153.572L351.862 133.529V133.529Z" fill="#FF8C7B"/>
<path d="M368.775 159.565C368.434 154.865 367.998 149.514 365.098 149.379C361.908 149.23 343.432 157.485 339.482 163.306C335.535 169.129 343.243 174.826 343.243 174.826L368.775 159.565Z" fill="#1A2E35"/>
<path d="M330.944 232.23L314.986 231.705L315.27 245.072C315.27 245.072 329.195 243.639 329.808 239.979L330.944 232.23V232.23Z" fill="#FF8C7B"/>
<path d="M306.551 238.263L304.877 245.098L315.27 245.072L314.987 231.703L306.551 238.263V238.263Z" fill="#FF8C7B"/>
<path d="M395.004 176.673L394.671 180.101C394.562 181.204 394.409 182.291 394.27 183.381C393.984 185.556 393.652 187.725 393.272 189.886C392.55 194.216 391.613 198.521 390.543 202.855C389.419 207.174 388.18 211.529 386.554 215.903C385.724 218.098 384.864 220.294 383.826 222.529C382.796 224.766 381.678 227.012 380.222 229.308C379.892 229.873 379.485 230.46 379.093 231.039C378.699 231.638 378.281 232.221 377.841 232.787C377.379 233.379 376.974 233.947 376.428 234.551L375.645 235.439C375.392 235.727 375.13 236.02 374.756 236.371C371.975 239.11 369.122 240.763 366.446 241.958C361.094 244.309 356.239 245.207 351.53 245.735C349.185 246.014 346.874 246.122 344.597 246.172C342.344 246.23 340.089 246.192 337.839 246.058C335.609 245.959 333.396 245.742 331.198 245.485C328.963 245.211 326.74 244.85 324.533 244.402L324.919 231.864C332.622 230.334 340.687 228.761 347.599 226.457C349.257 225.922 350.885 225.297 352.474 224.584C353.971 223.933 355.324 223.212 356.338 222.494C357.348 221.773 358.004 221.079 358.084 220.789L358.439 220.237C358.581 220.059 358.733 219.745 358.886 219.498C359.041 219.254 359.198 218.956 359.354 218.644C359.511 218.338 359.675 218.052 359.829 217.697C361.086 215.031 362.312 211.681 363.295 208.177C364.277 204.647 365.21 200.958 365.953 197.166C366.768 193.394 367.413 189.524 368.075 185.647L368.988 179.815L369.808 174.137L395.004 176.673V176.673Z" fill="#007CFF"/>
<path opacity="0.2" d="M395.004 176.673L394.671 180.101C394.562 181.204 394.409 182.291 394.27 183.381C393.984 185.556 393.652 187.725 393.272 189.886C392.55 194.216 391.613 198.521 390.543 202.855C389.419 207.174 388.18 211.529 386.554 215.903C385.724 218.098 384.864 220.294 383.826 222.529C382.796 224.766 381.678 227.012 380.222 229.308C379.892 229.873 379.485 230.46 379.093 231.039C378.699 231.638 378.281 232.221 377.841 232.787C377.379 233.379 376.974 233.947 376.428 234.551L375.645 235.439C375.392 235.727 375.13 236.02 374.756 236.371C371.975 239.11 369.122 240.763 366.446 241.958C361.094 244.309 356.239 245.207 351.53 245.735C349.185 246.014 346.874 246.122 344.597 246.172C342.344 246.23 340.089 246.192 337.839 246.058C335.609 245.959 333.396 245.742 331.198 245.485C328.963 245.211 326.74 244.85 324.533 244.402L324.919 231.864C332.622 230.334 340.687 228.761 347.599 226.457C349.257 225.922 350.885 225.297 352.474 224.584C353.971 223.933 355.324 223.212 356.338 222.494C357.348 221.773 358.004 221.079 358.084 220.789L358.439 220.237C358.581 220.059 358.733 219.745 358.886 219.498C359.041 219.254 359.198 218.956 359.354 218.644C359.511 218.338 359.675 218.052 359.829 217.697C361.086 215.031 362.312 211.681 363.295 208.177C364.277 204.647 365.21 200.958 365.953 197.166C366.768 193.394 367.413 189.524 368.075 185.647L368.988 179.815L369.808 174.137L395.004 176.673V176.673Z" fill="black"/>
<path d="M324.147 192.57C328.01 208.629 333.001 235.55 334.143 270.747H404.409C404.797 262.061 403.329 213.193 396.256 177.796C393.569 164.339 380.368 155.634 366.976 158.642L366.641 158.717C357.876 160.714 345.281 163.934 337.872 166.749L337.57 166.864C327.276 170.82 321.566 181.849 324.147 192.57Z" fill="#FFC655"/>
<path opacity="0.2" d="M328.714 215.066C329.271 218.435 329.829 222.005 330.347 225.752C336.095 219.751 337.919 201.367 337.919 201.367L328.714 215.066Z" fill="black"/>
<path d="M270.346 233.094L254.448 231.604L253.923 244.963C253.923 244.963 262.112 247.654 268.743 240.758L270.346 233.094V233.094Z" fill="#FF8C7B"/>
<path d="M246.819 235.548L241.7 244.727L253.923 244.963L254.448 231.604L246.819 235.548Z" fill="#FF8C7B"/>
<path d="M350.513 186.462C349.405 188.571 348.425 190.423 347.322 192.346C346.249 194.247 345.147 196.131 344.015 197.998C341.76 201.746 339.404 205.431 336.95 209.051C332.015 216.316 326.716 223.413 320.499 230.222C317.406 233.643 314.016 236.957 310.067 240.137C309.595 240.537 309.045 240.929 308.534 241.32C308.002 241.715 307.565 242.076 306.787 242.561C306.085 243.028 305.381 243.449 304.675 243.82C303.964 244.222 303.268 244.555 302.557 244.871C299.719 246.113 296.955 246.876 294.299 247.378C288.964 248.317 284.012 248.241 279.271 247.716C276.902 247.399 274.586 247.038 272.314 246.478C271.175 246.217 270.046 245.916 268.929 245.575C267.777 245.245 266.762 244.866 265.472 244.417L267.46 232.032C274.992 231.008 283.138 229.698 288.754 227.161C290.156 226.562 291.364 225.864 292.25 225.15C292.696 224.802 293.105 224.481 293.383 224.15C293.476 224.042 293.839 223.718 294.125 223.455C294.423 223.175 294.719 222.937 295.019 222.625C297.428 220.29 299.855 217.496 302.231 214.526C306.96 208.549 311.439 201.91 315.753 195.13C317.913 191.735 320.019 188.278 322.115 184.814L325.216 179.596L328.206 174.48L350.513 186.462V186.462Z" fill="#FFC655"/>
<path d="M331.227 436.945H318.09L311.487 406.523H324.623L331.227 436.945V436.945Z" fill="#FF8C7B"/>
<path d="M317.359 434.131H332.118C332.656 434.131 333.121 434.504 333.237 435.029L335.832 446.706C336.101 447.916 335.15 449.062 333.909 449.042C328.756 448.953 326.252 448.651 319.762 448.651C315.77 448.651 310.646 449.065 305.132 449.065C299.737 449.065 298.897 443.613 301.155 443.119C311.277 440.906 311.987 437.852 315.227 434.938C315.814 434.415 316.573 434.128 317.359 434.131V434.131Z" fill="#2D314F"/>
<path opacity="0.2" d="M324.628 406.531H311.486L315.15 423.377L328.037 422.212L324.628 406.531V406.531Z" fill="black"/>
<path d="M347.654 118.103C352.392 130.249 355.782 137.118 352.622 145.938C347.866 159.209 330.785 160.544 322.514 150.058C315.07 140.62 308.572 122.34 317.958 112.292C327.207 102.393 342.917 105.956 347.654 118.103V118.103Z" fill="#FF8C7B"/>
<path d="M324.586 136.297C322.613 138.941 321.11 140.939 321.11 140.939C321.11 140.939 317.065 130.895 318.613 126.291C316.643 122.39 312.672 128.138 311.173 120.541C309.673 112.943 316.158 104.783 318.613 103.094C318.959 103.659 318.94 105.821 318.94 105.821C318.94 105.821 328.648 97.1687 342.471 98.3823C341.521 99.3321 341.152 101.917 341.152 101.917C341.152 101.917 355.396 104.362 358.633 112.381C356.592 111.394 355.045 111.114 355.045 111.114C355.045 111.114 359.125 116.179 357.929 123.987C356.733 131.796 356.17 140.419 356.31 143.822C356.451 147.228 347.096 153.742 341.398 146.777C335.7 139.815 324.586 136.297 324.586 136.297V136.297Z" fill="#1A2E35"/>
<path d="M330.532 133.68C331.353 136.652 330.938 139.855 329.925 142.203C328.401 145.735 325.273 144.931 323.717 141.797C322.316 138.974 321.42 133.737 323.904 131.226C326.35 128.754 329.593 130.282 330.532 133.68V133.68Z" fill="#FF8C7B"/>
<path d="M355.203 270.746C355.203 270.746 294.196 292.864 292.399 322.138C289.085 376.053 311.139 418.74 311.139 418.74L331.347 416.577C331.347 416.577 327.754 399.226 325.07 350.382C321.695 289.007 425.862 351.82 404.409 270.746H355.203V270.746Z" fill="#2D314F"/>
<path d="M305.541 411.299C305.445 411.309 308.757 420.269 308.757 420.269L333.989 417.799L332.723 409.637L305.541 411.299Z" fill="#2D314F"/>
<path d="M274.475 438.437H261.339L257.5 408.014H270.637L274.475 438.437Z" fill="#FF8C7B"/>
<path d="M261.235 434.126L275.581 434.105C276.119 434.105 276.583 434.479 276.702 435.002L279.311 446.676C279.583 447.885 278.665 449.035 277.425 449.015C272.25 448.934 264.771 448.642 258.268 448.651C250.661 448.66 249.204 449.077 240.285 449.09C234.891 449.097 233.386 443.647 235.643 443.15C245.918 440.888 249.199 440.642 258.071 435.154C259.036 434.557 260.1 434.128 261.235 434.126V434.126Z" fill="#2D314F"/>
<path opacity="0.2" d="M257.503 408.021L259.592 424.59L272.622 423.702L270.646 408.021H257.503V408.021Z" fill="black"/>
<path d="M334.144 270.746C334.144 270.746 234.175 279.613 235.253 329.816C236.376 382.038 255.883 417.26 255.883 417.26H275.403C275.403 417.26 271.703 390.171 272.358 338.758C272.556 323.356 303.677 318.267 334.072 316.471C360.328 314.918 384.904 299.952 395.104 275.709L397.192 270.746H334.144V270.746Z" fill="#2D314F"/>
<path d="M251.318 412.011C251.23 412.019 254.665 421.036 254.665 421.036L278.224 419.352L276.851 411.186L251.318 412.011Z" fill="#2D314F"/>
<path d="M360.378 214.318L347.698 263.196C344.457 275.716 342.819 288.597 342.823 301.53V324.25C342.823 329.987 347.052 334.637 352.268 334.637H417.291C422.508 334.637 426.735 329.987 426.735 324.25V301.53C426.735 288.565 428.378 275.663 431.611 263.196L442.812 220.017C444.533 213.384 440.003 206.781 433.73 206.781H369.46C365.242 206.781 361.535 209.858 360.378 214.318V214.318Z" fill="#007CFF"/>
<path d="M279.512 310.973L281.641 323.093C282.761 329.468 288.368 334.638 294.167 334.638H366.443C372.241 334.638 376.033 329.468 374.914 323.093L372.785 310.973C371.512 303.718 365.131 297.836 358.533 297.836H289.151C282.553 297.836 278.238 303.718 279.512 310.973Z" fill="#007CFF"/>
<path d="M373.402 346.81H335.541L331.844 334.637H377.099L373.402 346.81ZM361.234 437.304H347.707V346.81H361.234V437.304Z" fill="#007CFF"/>
<path opacity="0.7" d="M361.235 437.303H347.708V348.982L361.235 350.359V437.303Z" fill="white"/>
<path opacity="0.7" d="M357.936 437.305H354.703V349.695L357.936 350.026V437.305Z" fill="white"/>
<path d="M385.575 451.289H323.367C321.702 451.289 321.006 449.164 322.349 448.178L332.224 440.94C336.963 437.465 342.687 435.591 348.564 435.592H360.378C366.255 435.592 371.979 437.465 376.719 440.94L386.593 448.178C387.934 449.164 387.24 451.289 385.575 451.289Z" fill="#007CFF"/>
<path d="M340.325 70.599H292.735V36.7051H340.325V70.599ZM294.119 69.2157H339.079V37.9496H294.119V69.2157V69.2157Z" fill="#A1D4FF"/>
<path d="M316.531 57.1796L293.014 37.8119L293.844 36.8438L316.531 55.5199L339.22 36.8438L340.049 37.8119L316.531 57.1796V57.1796Z" fill="#A1D4FF"/>
<path d="M323.162 51.4316L322.158 52.3837L339.201 70.3498L340.204 69.3977L323.162 51.4316V51.4316ZM309.964 51.4913L292.934 69.47L293.937 70.4209L310.967 52.4433L309.964 51.4913Z" fill="#A1D4FF"/>
<path d="M44.3639 229.335C30.8059 229.335 19.7393 218.268 19.7393 204.711H21.1226C21.1226 217.576 31.6364 227.952 44.3639 227.952C57.2292 227.952 67.6053 217.438 67.6053 204.711C67.6053 191.845 57.0915 181.469 44.3639 181.469V180.086C57.922 180.086 68.9886 191.154 68.9886 204.711C68.9886 218.406 57.922 229.335 44.3639 229.335V229.335ZM44.3639 226.015C32.7433 226.015 23.1976 216.47 23.1976 204.849C23.1976 193.229 32.7433 183.683 44.3639 183.683C55.9846 183.683 65.5303 193.229 65.5303 204.849H64.147C64.147 193.92 55.2918 184.928 44.2251 184.928C33.2973 184.928 24.3045 193.782 24.3045 204.849C24.3045 215.778 33.1585 224.77 44.2251 224.77V226.015H44.3639V226.015Z" fill="#78C2FF"/>
<path d="M41.4596 212.874L32.4668 204.02L33.436 203.19L41.4596 211.076L55.4317 197.104L56.2622 198.072L41.4596 212.874V212.874Z" fill="#78C2FF"/>
<path d="M124.762 33.0635L124.208 31.8189C123.792 31.8189 123.378 31.6801 122.963 31.5413L121.995 32.5106L119.089 30.4344L119.642 29.1899C119.366 28.7747 119.089 28.4982 118.951 28.083H117.567L117.014 24.4859L118.259 23.933C118.259 23.5178 118.398 23.1026 118.535 22.6885L117.567 21.7192L119.642 18.8149L120.888 19.3678C121.303 19.0914 121.58 18.8149 121.995 18.6761V17.2928L125.591 16.7399L126.145 17.9845C126.56 17.9845 126.974 18.1221 127.389 18.2609L128.358 17.2928L131.263 19.3678L130.71 20.6123C130.987 21.0276 131.263 21.3051 131.402 21.7192H132.785L133.338 25.3163L132.093 25.8704C132.093 26.2845 131.955 26.6997 131.817 27.1149L132.785 28.083L130.71 30.9885L129.464 30.4356C129.049 30.7109 128.773 30.9885 128.358 31.1273V32.5106L124.762 33.0635V33.0635ZM122.687 30.4356L122.963 30.5732L124.623 30.9885H124.899L125.314 32.0954L127.252 31.8189V30.5732L127.528 30.4356C128.081 30.158 128.496 29.8816 128.912 29.6051L129.188 29.4675L130.295 29.8816L131.402 28.2218L130.571 27.3913L130.71 27.1149L131.125 25.4551V25.1787L132.231 24.7635L131.955 22.8261H130.71L130.571 22.5497C130.326 22.0707 130.049 21.6086 129.742 21.1664L129.603 20.8899L130.018 19.783L128.358 18.6761L127.528 19.5066L127.252 19.3678L125.591 18.9526H125.314L124.899 17.8457L122.963 18.1233V19.3678L122.687 19.5054C122.133 19.783 121.717 20.0595 121.303 20.3359L121.026 20.4735L119.919 20.0606L118.813 21.7192L119.642 22.5497L119.505 22.8261L119.089 24.487V24.7623L117.983 25.1787L118.259 27.1149H119.505L119.642 27.3913C119.919 27.9454 120.196 28.3606 120.473 28.7747L120.61 29.0523L120.196 30.158L121.856 31.2649L122.687 30.4356V30.4356ZM125.176 28.7747C124.346 28.7747 123.655 28.4994 122.963 28.083C121.164 26.8385 120.749 24.3482 121.995 22.6885C123.239 20.8899 125.73 20.4747 127.389 21.7192C128.22 22.2732 128.773 23.2413 128.912 24.2095C129.049 25.1787 128.912 26.2856 128.22 27.1149C127.666 27.9454 126.698 28.4982 125.73 28.637C125.591 28.7747 125.314 28.7747 125.176 28.7747V28.7747ZM125.176 21.858C124.208 21.858 123.378 22.2732 122.824 23.1026C122.409 23.7942 122.133 24.487 122.271 25.3163C122.409 26.1468 122.824 26.6997 123.516 27.2537C124.208 27.6678 124.899 27.9454 125.73 27.8066C126.56 27.6689 127.113 27.2537 127.666 26.562C128.081 25.8704 128.358 25.1787 128.22 24.3482C128.081 23.5178 127.666 22.9649 126.974 22.4109C126.283 22.1356 125.73 21.858 125.176 21.858V21.858ZM97.2314 37.2135L96.1245 34.3091C94.9412 34.18 93.7791 33.901 92.6662 33.4787L90.4524 35.5537L84.3662 31.2649L85.6107 28.4982C84.9191 27.5301 84.2274 26.562 83.6745 25.4551L80.6303 25.3163L79.3857 17.8457L82.2912 16.7388C82.4288 15.4942 82.7064 14.3873 83.1205 13.2804L81.0455 11.0667L85.3354 4.98045L88.101 6.22499C89.0691 5.53333 90.0383 4.84166 91.1452 4.28879L91.2829 1.24454L98.6147 0L99.7216 2.90546C100.967 3.0431 102.073 3.32068 103.18 3.73477L105.394 1.65977L111.481 5.9497L110.235 8.71522C110.927 9.68332 111.619 10.6526 112.173 11.7595L115.216 11.8971L116.462 19.3678L113.556 20.4747C113.427 21.658 113.148 22.8201 112.726 23.933L114.801 26.1468L110.512 32.233L107.745 30.9885C106.777 31.6801 105.809 32.3718 104.702 32.9247L104.564 35.9689L97.2314 37.2135V37.2135ZM92.3897 32.0954L92.805 32.233C94.0495 32.6482 95.4328 33.0635 96.6785 33.0635H97.0938L98.0619 35.6925L103.319 34.862L103.456 32.0954L103.872 31.9577C105.117 31.4037 106.223 30.712 107.331 29.8816L107.606 29.6051L110.235 30.712L113.28 26.4221L111.342 24.3482L111.48 23.933C111.896 22.6885 112.31 21.304 112.31 20.0595V19.6442L114.939 18.6761L114.109 13.4192L111.342 13.2816L111.205 12.8652C110.651 11.6207 109.959 10.5138 109.129 9.40689L108.853 9.13045L109.959 6.50258L105.67 3.45833L103.595 5.39568L103.18 5.25804C101.935 4.84166 100.552 4.42643 99.3064 4.42643H98.8923L97.9231 1.79856L92.6662 2.62902L92.5285 5.39568L92.1133 5.53333C90.8676 6.08735 89.7619 6.77901 88.655 7.60947L88.3774 7.88476L85.7495 6.77901L82.7064 11.0678L84.6426 13.1428L84.505 13.5569C84.0898 14.8026 83.6745 16.1859 83.6745 17.4304V17.8457L81.0455 18.8149L81.876 24.0718L84.6426 24.2095L84.7803 24.6247C85.3343 25.8692 86.026 26.9761 86.8564 28.083L87.1329 28.3594L86.026 30.9885L90.3148 34.0316L92.3897 32.0954V32.0954ZM97.9231 27.2526C96.2633 27.2526 94.4647 26.6997 92.9438 25.7316C89.0702 22.9649 88.2397 17.708 91.0064 13.8345C93.7731 9.96091 99.03 9.13045 102.904 11.8971C106.777 14.6638 107.606 19.9207 104.98 23.7942C103.18 26.008 100.552 27.2526 97.9231 27.2526ZM97.9231 11.4819C95.7093 11.4819 93.4955 12.5888 91.9745 14.5261C90.8676 16.0471 90.4535 17.9845 90.73 19.9207C91.0064 21.858 92.1133 23.5178 93.6343 24.6247C96.8173 26.9761 101.383 26.1468 103.734 22.9649C104.841 21.4428 105.255 19.5066 104.979 17.5692C104.702 15.633 103.595 13.9721 102.074 12.8664C100.829 11.8971 99.4452 11.4819 97.9231 11.4819Z" fill="#A1D4FF"/>
</svg>
