<svg width="90" height="80" viewBox="0 0 90 80" fill="none" xmlns="http://www.w3.org/2000/svg">
    <path
        d="M89.7403 40.0076C89.7403 34.0568 82.2955 28.4173 70.8813 24.92C73.5154 13.2748 72.3447 4.00991 67.1863 1.04367C65.9974 0.347891 64.6072 0.0183098 63.0889 0.0183098V4.10146C63.9304 4.10146 64.6072 4.26625 65.1742 4.57752C67.6619 6.00571 68.7412 11.4438 67.8997 18.4383C67.6985 20.1594 67.3693 21.9721 66.9668 23.8214C63.3816 22.9426 59.4671 22.2651 55.3515 21.8256C52.882 18.4383 50.3212 15.3622 47.742 12.6706C53.7052 7.12263 59.3025 4.08315 63.1072 4.08315V0C58.077 0 51.4919 3.58878 44.8336 9.81421C38.1753 3.6254 31.5902 0.0732407 26.5599 0.0732407V4.15639C30.3464 4.15639 35.962 7.17756 41.9252 12.6889C39.3643 15.3805 36.8034 18.4383 34.3706 21.8256C30.2366 22.2651 26.3221 22.9426 22.7369 23.8397C22.3162 22.0087 22.0052 20.2327 21.7857 18.5298C20.926 11.5354 21.9869 6.09726 24.4563 4.65076C25.0051 4.32118 25.7185 4.1747 26.5599 4.1747V0.0915505C25.0234 0.0915505 23.6332 0.421132 22.4259 1.11692C17.2859 4.08315 16.1335 13.3297 18.7858 24.9384C7.40824 28.4539 0 34.0751 0 40.0076C0 45.9583 7.44482 51.5979 18.859 55.0951C16.225 66.7403 17.3956 76.0052 22.554 78.9714C23.743 79.6672 25.1331 79.9968 26.6697 79.9968C31.7 79.9968 38.2851 76.408 44.9433 70.1826C51.6016 76.3714 58.1867 79.9236 63.217 79.9236C64.7535 79.9236 66.1437 79.594 67.351 78.8982C72.491 75.932 73.6434 66.6854 70.9911 55.0768C82.3321 51.5795 89.7403 45.94 89.7403 40.0076ZM65.9242 27.7947C65.2474 30.1567 64.406 32.592 63.4548 35.0272C62.7048 33.5624 61.9183 32.0976 61.0585 30.6328C60.2171 29.168 59.3208 27.7398 58.4245 26.3482C61.022 26.7327 63.528 27.2088 65.9242 27.7947ZM57.5465 47.295C56.1197 49.7668 54.6564 52.1105 53.1381 54.2894C50.4126 54.5275 47.6505 54.6556 44.8702 54.6556C42.1081 54.6556 39.346 54.5275 36.6388 54.3077C35.1206 52.1288 33.6389 49.8035 32.2121 47.3499C30.8219 44.9513 29.5598 42.516 28.4074 40.0625C29.5415 37.6089 30.8219 35.1554 32.1938 32.7568C33.6206 30.2849 35.084 27.9412 36.6022 25.7623C39.3277 25.5243 42.0898 25.3961 44.8702 25.3961C47.6323 25.3961 50.3943 25.5243 53.1015 25.744C54.6198 27.9229 56.1014 30.2483 57.5282 32.7018C58.9184 35.1005 60.1805 37.5357 61.3329 39.9893C60.1805 42.4428 58.9184 44.8964 57.5465 47.295ZM63.4548 44.9147C64.4425 47.3682 65.284 49.8218 65.9791 52.2021C63.5828 52.788 61.0585 53.2824 58.4428 53.6669C59.3391 52.257 60.2354 50.8105 61.0768 49.3274C61.9183 47.8626 62.7048 46.3795 63.4548 44.9147ZM44.9068 64.4515C43.2056 62.6938 41.5044 60.7346 39.8216 58.5923C41.4679 58.6656 43.1507 58.7205 44.8519 58.7205C46.5713 58.7205 48.2725 58.6839 49.937 58.5923C48.2908 60.7346 46.5896 62.6938 44.9068 64.4515ZM31.2975 53.6669C28.7001 53.2824 26.1941 52.8063 23.7978 52.2204C24.4746 49.8584 25.3161 47.4232 26.2672 44.9879C27.0172 46.4527 27.8038 47.9175 28.6635 49.3823C29.5232 50.8471 30.4012 52.2753 31.2975 53.6669ZM44.8153 15.5636C46.5164 17.3214 48.2176 19.2805 49.9005 21.4228C48.2542 21.3496 46.5713 21.2946 44.8702 21.2946C43.1507 21.2946 41.4496 21.3313 39.785 21.4228C41.4313 19.2805 43.1324 17.3214 44.8153 15.5636ZM31.2792 26.3482C30.3829 27.7581 29.4866 29.2046 28.6452 30.6877C27.8038 32.1525 27.0172 33.6173 26.2672 35.0821C25.2795 32.6286 24.4381 30.175 23.743 27.7947C26.1392 27.2271 28.6635 26.7327 31.2792 26.3482ZM14.725 49.2725C8.24967 46.5076 4.06081 42.8822 4.06081 40.0076C4.06081 37.1329 8.24967 33.4892 14.725 30.7427C16.2981 30.0652 18.0176 29.4609 19.7919 28.8933C20.8345 32.4821 22.2064 36.2174 23.9076 40.0442C22.2247 43.8527 20.8711 47.5696 19.8468 51.1401C18.0359 50.5725 16.3164 49.9499 14.725 49.2725ZM24.5661 75.4376C22.0784 74.0094 20.9992 68.5713 21.8406 61.5769C22.0418 59.8557 22.3711 58.043 22.7735 56.1937C26.3587 57.0726 30.2732 57.75 34.3889 58.1895C36.8583 61.5769 39.4192 64.6529 41.9983 67.3445C36.0351 72.8925 30.4378 75.932 26.6331 75.932C25.8099 75.9137 25.1149 75.7489 24.5661 75.4376ZM67.9546 61.4853C68.8143 68.4798 67.7534 73.9179 65.284 75.3644C64.7352 75.6939 64.0218 75.8404 63.1804 75.8404C59.394 75.8404 53.7784 72.8193 47.8152 67.3079C50.376 64.6163 52.9369 61.5585 55.3697 58.1712C59.5037 57.7317 63.4182 57.0543 67.0034 56.1571C67.4241 58.0064 67.7534 59.7825 67.9546 61.4853ZM74.997 49.2725C73.4239 49.9499 71.7045 50.5542 69.9301 51.1218C68.8875 47.533 67.5156 43.7977 65.8145 39.9709C67.4973 36.1624 68.8509 32.4455 69.8753 28.875C71.6862 29.4426 73.4056 30.0652 75.0153 30.7427C81.4907 33.5075 85.6795 37.1329 85.6795 40.0076C85.6612 42.8822 81.4724 46.526 74.997 49.2725Z"
        fill="#104065" />
    <path
        d="M44.8516 48.3761C49.4684 48.3761 53.211 44.6297 53.211 40.0083C53.211 35.387 49.4684 31.6406 44.8516 31.6406C40.2348 31.6406 36.4922 35.387 36.4922 40.0083C36.4922 44.6297 40.2348 48.3761 44.8516 48.3761Z"
        fill="#104065" />
</svg>