<svg width="51" height="51" viewBox="0 0 51 51" fill="none" xmlns="http://www.w3.org/2000/svg">
    <g clip-path="url(#clip0_2533_1330)">
        <path
            d="M38.836 35.4643C37.7939 34.4201 36.3793 33.8333 34.9042 33.8333V33.8333L34.0875 33.0458C36.9458 29.7208 38.6667 25.4042 38.6667 20.7083C38.6667 10.2375 30.1792 1.75 19.7083 1.75C9.2375 1.75 0.75 10.2375 0.75 20.7083C0.75 31.1792 9.2375 39.6667 19.7083 39.6667C24.4042 39.6667 28.7208 37.9458 32.0458 35.0875L32.8333 35.9042V35.9042C32.8333 37.3793 33.4201 38.7939 34.4643 39.836L45.2416 50.5918C46.4432 51.791 48.3892 51.79 49.5896 50.5896V50.5896C50.79 49.3892 50.791 47.4432 49.5918 46.2416L38.836 35.4643ZM19.7083 33.8333C12.4458 33.8333 6.58333 27.9708 6.58333 20.7083C6.58333 13.4458 12.4458 7.58333 19.7083 7.58333C26.9708 7.58333 32.8333 13.4458 32.8333 20.7083C32.8333 27.9708 26.9708 33.8333 19.7083 33.8333Z"
            fill="#104065" fill-opacity="0.3" />
        <path fill-rule="evenodd" clip-rule="evenodd"
            d="M32.8333 35.9042L32.0458 35.0875C28.7208 37.9458 24.4042 39.6667 19.7083 39.6667C9.2375 39.6667 0.75 31.1792 0.75 20.7083C0.75 10.2375 9.2375 1.75 19.7083 1.75C30.1792 1.75 38.6667 10.2375 38.6667 20.7083C38.6667 25.4042 36.9458 29.7208 34.0875 33.0458L34.9042 33.8333C36.3793 33.8333 37.7939 34.4201 38.836 35.4643L49.5918 46.2416C50.791 47.4432 50.79 49.3892 49.5896 50.5896C48.3892 51.79 46.4432 51.791 45.2416 50.5918L34.4643 39.836C33.4201 38.7939 32.8333 37.3793 32.8333 35.9042ZM35.5255 32.8628C38.1248 29.4892 39.6667 25.2683 39.6667 20.7083C39.6667 9.68521 30.7314 0.75 19.7083 0.75C8.68521 0.75 -0.25 9.68521 -0.25 20.7083C-0.25 31.7314 8.68521 40.6667 19.7083 40.6667C24.2683 40.6667 28.4892 39.1248 31.8628 36.5255C32.0068 38.0382 32.6732 39.4613 33.7579 40.5438L44.5352 51.2996C46.1274 52.8886 48.706 52.8874 50.2967 51.2967C51.8874 49.706 51.8886 47.1274 50.2996 45.5352L39.5438 34.7579C38.4613 33.6732 37.0382 33.0068 35.5255 32.8628ZM7.58333 20.7083C7.58333 27.4185 12.9981 32.8333 19.7083 32.8333C26.4185 32.8333 31.8333 27.4185 31.8333 20.7083C31.8333 13.9981 26.4185 8.58333 19.7083 8.58333C12.9981 8.58333 7.58333 13.9981 7.58333 20.7083ZM6.58333 20.7083C6.58333 27.9708 12.4458 33.8333 19.7083 33.8333C26.9708 33.8333 32.8333 27.9708 32.8333 20.7083C32.8333 13.4458 26.9708 7.58333 19.7083 7.58333C12.4458 7.58333 6.58333 13.4458 6.58333 20.7083Z"
            fill="#104065" fill-opacity="0.3" />
    </g>
    <defs>
        <clipPath id="clip0_2533_1330">
            <rect width="51" height="51" fill="white" />
        </clipPath>
    </defs>
</svg>